<?xml version="1.0" encoding="UTF-8"?>
<!-- Generated by Pixelmator Pro 3.6.12 -->
<svg width="827" height="82" viewBox="0 0 827 82" xmlns="http://www.w3.org/2000/svg">
    <g id="Group-copy">
        <path id="Rectangle" fill="#ffffff" fill-rule="evenodd" stroke="none" opacity="0.096512" d="M 0 66 C -0 74.836555 7.163444 82 16 82 L 811 82 C 819.836548 82 827 74.836555 827 66 L 827 16 C 827 7.163445 819.836548 0 811 0 L 16 0 C 7.163444 0 0 7.163445 0 16 Z"/>
    </g>
    <path id="contact-email-gabegaberomualdocom" fill="#ffffff" fill-rule="evenodd" stroke="none" d="M 650.921387 52 L 653.464355 36.714844 L 655.269043 36.714844 L 654.831543 39.435547 C 655.387573 38.405579 656.098511 37.651367 656.964355 37.172852 L 659.575684 36.455078 C 660.623901 36.455078 661.44873 36.753601 662.050293 37.350586 C 662.651855 37.947571 663.016479 38.729187 663.144043 39.695313 C 663.654541 38.6745 664.381348 37.879211 665.324707 37.30957 C 666.268066 36.739929 667.286621 36.455078 668.380371 36.455078 C 669.774902 36.455078 670.861816 36.910828 671.641113 37.822266 C 672.42041 38.733704 672.664307 40.050781 672.372559 41.773438 L 670.677246 52 L 668.817871 52 L 670.540527 41.677734 C 670.741089 40.447266 670.57251 39.554016 670.034668 38.998047 C 669.496948 38.442078 668.767822 38.164063 667.847168 38.164063 C 666.707886 38.164063 665.72583 38.519531 664.900879 39.230469 C 664.07605 39.941406 663.57251 40.862 663.390137 41.992188 L 661.722168 52 L 659.876465 52 L 661.612793 41.527344 C 661.795166 40.451843 661.633301 39.622375 661.127441 39.039063 C 660.621582 38.45575 659.908447 38.164063 658.987793 38.164063 L 655.303223 40.057617 L 652.780762 52 Z M 640.899414 52.328125 C 639.732666 52.328125 638.723267 52.068359 637.871094 51.548828 C 637.018799 51.029297 636.360352 50.30011 635.895508 49.361328 C 635.430664 48.422546 635.198242 47.328796 635.198242 46.080078 L 635.772461 42.580078 L 637.40625 39.503906 L 639.956055 37.323242 C 640.949463 36.780945 642.056885 36.509766 643.27832 36.509766 C 644.454102 36.509766 645.468018 36.769531 646.320313 37.289063 C 647.172485 37.808594 647.831055 38.537781 648.295898 39.476563 C 648.760742 40.415344 648.993164 41.509094 648.993164 42.757813 L 648.412109 46.271484 L 646.764648 49.347656 L 644.214844 51.521484 C 643.22583 52.059265 642.120728 52.328125 640.899414 52.328125 Z M 640.94043 50.646484 C 641.906494 50.646484 642.772461 50.414063 643.538086 49.949219 L 645.486328 48.09668 L 647.133789 42.8125 C 647.133789 41.48175 646.807861 40.378906 646.15625 39.503906 C 645.504517 38.628906 644.531494 38.191406 643.237305 38.191406 L 640.673828 38.881836 L 638.725586 40.713867 L 637.057617 46.052734 C 637.057617 47.374329 637.381104 48.470398 638.02832 49.34082 C 638.675415 50.211243 639.646118 50.646484 640.94043 50.646484 Z M 625.791382 52.287109 C 624.041382 52.287109 622.656006 51.717468 621.635132 50.578125 C 620.614258 49.438782 620.103882 47.934875 620.103882 46.066406 L 620.671265 42.573242 L 622.298218 39.503906 L 624.848022 37.323242 C 625.841553 36.780945 626.948975 36.509766 628.170288 36.509766 L 630.884155 37.111328 L 633.461304 40.447266 L 631.670288 40.898438 L 630.043335 38.628906 L 628.142944 38.191406 C 627.158569 38.191406 626.283569 38.423828 625.517944 38.888672 L 623.576538 40.748047 L 621.949585 46.080078 C 621.949585 47.392578 622.270874 48.477234 622.913452 49.333984 C 623.55603 50.190735 624.529053 50.619141 625.832397 50.619141 L 628.019897 50.133789 L 630.562866 47.707031 L 632.244507 48.363281 L 628.641968 51.699219 L 625.791382 52.287109 Z M 614.128784 52.164063 L 613.096558 51.699219 L 612.816284 50.564453 L 614.374878 49.224609 L 615.70105 50.783203 L 614.128784 52.164063 Z M 602.411377 52.328125 C 601.244751 52.328125 600.235352 52.068359 599.383057 51.548828 C 598.530884 51.029297 597.872314 50.30011 597.407471 49.361328 C 596.942627 48.422546 596.710205 47.328796 596.710205 46.080078 L 597.284424 42.580078 L 598.918213 39.503906 L 601.468018 37.323242 C 602.461548 36.780945 603.56897 36.509766 604.790283 36.509766 C 605.966064 36.509766 606.980103 36.769531 607.832275 37.289063 C 608.68457 37.808594 609.343018 38.537781 609.807861 39.476563 C 610.272705 40.415344 610.505127 41.509094 610.505127 42.757813 L 609.924072 46.271484 L 608.276611 49.347656 L 605.726807 51.521484 C 604.737915 52.059265 603.632813 52.328125 602.411377 52.328125 Z M 602.452393 50.646484 L 605.050049 49.949219 L 606.998291 48.09668 L 608.645752 42.8125 C 608.645752 41.48175 608.319946 40.378906 607.668213 39.503906 C 607.016602 38.628906 606.043579 38.191406 604.749268 38.191406 L 602.185791 38.881836 L 600.237549 40.713867 L 598.56958 46.052734 C 598.56958 47.374329 598.893188 48.470398 599.540283 49.34082 C 600.1875 50.211243 601.158203 50.646484 602.452393 50.646484 Z M 585.635498 52.328125 C 584.013062 52.328125 582.737061 51.776672 581.807373 50.673828 C 580.877686 49.570984 580.412842 48.094421 580.412842 46.244141 L 580.925537 42.750977 L 582.429443 39.613281 L 584.828857 37.357422 C 585.767578 36.792297 586.833984 36.509766 588.028076 36.509766 L 590.324951 37.015625 L 592.444092 39.695313 L 593.783936 31.628906 L 595.643311 31.628906 L 592.266357 52 L 590.46167 52 L 590.748779 49.142578 L 587.980225 51.842773 L 585.635498 52.328125 Z M 585.922607 50.646484 C 586.888672 50.646484 587.740967 50.404968 588.479248 49.921875 L 590.338623 48.000977 L 591.869873 42.580078 C 591.869873 41.258484 591.564453 40.196594 590.953857 39.394531 C 590.34314 38.592468 589.431641 38.191406 588.219482 38.191406 C 587.271484 38.191406 586.428467 38.426086 585.690186 38.895508 L 583.823975 40.768555 L 582.272217 46.148438 C 582.272217 47.470032 582.577515 48.55011 583.188232 49.388672 C 583.798828 50.227234 584.710327 50.646484 585.922607 50.646484 Z M 579.345825 31.628906 L 575.968872 52 L 574.109497 52 L 577.48645 31.628906 Z M 563.226196 52.328125 C 561.977539 52.328125 560.936157 51.995422 560.102173 51.330078 C 559.268188 50.664734 558.687134 49.737305 558.359009 48.547852 C 558.030884 47.358398 557.999023 45.970703 558.263306 44.384766 C 558.518555 42.807922 559.010742 41.429382 559.739868 40.249023 C 560.468994 39.068665 561.362305 38.150391 562.419556 37.494141 C 563.476807 36.837891 564.625244 36.509766 565.864868 36.509766 L 568.10022 37.001953 L 570.021118 39.654297 L 570.663696 36.714844 L 572.523071 36.714844 L 569.993774 52 L 568.189087 52 L 568.435181 49.142578 L 565.598267 51.835938 L 563.226196 52.328125 Z M 563.773071 50.646484 C 564.757446 50.646484 565.636963 50.377625 566.411743 49.839844 L 568.346313 47.611328 L 569.419556 44.371094 C 569.720337 42.548157 569.56311 41.0625 568.947876 39.914063 C 568.332642 38.765625 567.295898 38.191406 565.837524 38.191406 C 564.825806 38.191406 563.925781 38.464844 563.137329 39.011719 L 561.189087 41.233398 L 560.136353 44.371094 L 560.15686 47.556641 C 560.361938 48.504578 560.765259 49.256531 561.366821 49.8125 C 561.968384 50.368469 562.770508 50.646484 563.773071 50.646484 Z M 547.092773 52.205078 C 545.55249 52.205078 544.369873 51.726563 543.544922 50.769531 C 542.720093 49.8125 542.458008 48.422546 542.758789 46.599609 L 544.385742 36.714844 L 546.245117 36.714844 L 544.631836 46.462891 C 544.431396 47.711609 544.618164 48.698242 545.192383 49.422852 C 545.766602 50.147461 546.64624 50.509766 547.831055 50.509766 L 550.066406 49.99707 L 551.830078 48.527344 L 554.338867 36.714844 L 556.198242 36.714844 L 553.668945 52 L 551.864258 52 L 552.342773 49.169922 C 551.695679 50.245422 550.916382 51.020203 550.004883 51.494141 L 547.092773 52.205078 Z M 517.971191 52 L 520.51416 36.714844 L 522.318848 36.714844 L 521.881348 39.435547 C 522.437256 38.405579 523.148193 37.651367 524.01416 37.172852 L 526.625488 36.455078 C 527.673584 36.455078 528.498535 36.753601 529.100098 37.350586 C 529.70166 37.947571 530.066162 38.729187 530.193848 39.695313 C 530.704224 38.6745 531.431152 37.879211 532.374512 37.30957 C 533.317871 36.739929 534.336426 36.455078 535.430176 36.455078 C 536.824707 36.455078 537.911621 36.910828 538.690918 37.822266 C 539.470215 38.733704 539.713989 40.050781 539.422363 41.773438 L 537.727051 52 L 535.867676 52 L 537.590332 41.677734 C 537.790771 40.447266 537.622192 39.554016 537.084473 38.998047 C 536.546631 38.442078 535.817505 38.164063 534.896973 38.164063 C 533.757568 38.164063 532.775513 38.519531 531.950684 39.230469 C 531.125732 39.941406 530.622192 40.862 530.439941 41.992188 L 528.771973 52 L 526.92627 52 L 528.662598 41.527344 C 528.844849 40.451843 528.683105 39.622375 528.177246 39.039063 C 527.671387 38.45575 526.95813 38.164063 526.037598 38.164063 L 522.353027 40.057617 L 519.830566 52 Z M 483.694092 52.287109 C 481.907715 52.287109 480.490356 51.744812 479.4422 50.660156 C 478.394043 49.5755 477.869934 48.103516 477.869934 46.244141 L 478.505676 42.395508 L 480.269348 39.271484 L 482.907959 37.179688 C 483.915161 36.678406 485.006592 36.427734 486.182373 36.427734 C 487.622559 36.427734 488.757324 36.785461 489.58667 37.500977 C 490.416138 38.216492 490.830811 39.194031 490.830811 40.433594 C 490.830811 41.636719 490.425293 42.5755 489.614014 43.25 C 488.802856 43.9245 487.574707 44.400696 485.929443 44.678711 L 479.715637 45.123047 L 479.66095 46.244141 C 479.66095 47.501953 480.000488 48.547852 480.679504 49.381836 C 481.358521 50.21582 482.395264 50.632813 483.789795 50.632813 L 486.531006 49.956055 L 488.49292 48.158203 L 490.174561 48.71875 C 489.563965 49.803406 488.675293 50.66925 487.508545 51.316406 C 486.341919 51.963562 485.070435 52.287109 483.694092 52.287109 Z M 479.975403 43.673828 L 485.122803 43.400391 L 488.048584 42.443359 C 488.672974 41.978516 488.985107 41.304016 488.985107 40.419922 C 488.985107 39.681641 488.720825 39.10968 488.192139 38.704102 L 486.018311 38.095703 C 484.924561 38.095703 483.969849 38.35321 483.154053 38.868164 L 481.137451 40.912109 L 479.975403 43.673828 Z M 468.011963 52.328125 L 465.72876 51.835938 L 463.705322 49.142578 L 463.0354 52 L 461.230713 52 L 464.607666 31.628906 L 466.467041 31.628906 L 465.127197 39.654297 L 468.032471 37.001953 L 470.377197 36.509766 C 471.999634 36.509766 473.280151 37.058899 474.218994 38.157227 C 475.157837 39.255554 475.627197 40.729797 475.627197 42.580078 L 475.107666 46.05957 L 473.60376 49.210938 L 471.211182 51.480469 C 470.272339 52.045593 469.205933 52.328125 468.011963 52.328125 Z M 467.793213 50.646484 C 468.750244 50.646484 469.5979 50.404968 470.336182 49.921875 L 472.209229 48.007813 L 473.767822 42.621094 C 473.767822 41.326843 473.462463 40.264954 472.851807 39.435547 C 472.241089 38.60614 471.320557 38.191406 470.090088 38.191406 C 469.133057 38.191406 468.2854 38.428406 467.547119 38.902344 L 465.687744 40.789063 L 464.170166 46.203125 C 464.170166 47.533875 464.475464 48.607117 465.086182 49.422852 C 465.696838 50.238586 466.599182 50.646484 467.793213 50.646484 Z M 450.347351 52.328125 C 449.098633 52.328125 448.057312 51.995422 447.223328 51.330078 C 446.389343 50.664734 445.808289 49.737305 445.480164 48.547852 C 445.152039 47.358398 445.120117 45.970703 445.38446 44.384766 C 445.639648 42.807922 446.131836 41.429382 446.861023 40.249023 C 447.59021 39.068665 448.483398 38.150391 449.54071 37.494141 C 450.598022 36.837891 451.74646 36.509766 452.986023 36.509766 L 455.221375 37.001953 L 457.142273 39.654297 L 457.784851 36.714844 L 459.644226 36.714844 L 457.114929 52 L 455.310242 52 L 455.556335 49.142578 L 452.719421 51.835938 L 450.347351 52.328125 Z M 450.894226 50.646484 C 451.878601 50.646484 452.758179 50.377625 453.532898 49.839844 L 455.467468 47.611328 L 456.54071 44.371094 C 456.841492 42.548157 456.684265 41.0625 456.069031 39.914063 C 455.453796 38.765625 454.416992 38.191406 452.958679 38.191406 C 451.94696 38.191406 451.046875 38.464844 450.258484 39.011719 L 448.310242 41.233398 L 447.257507 44.371094 L 447.278015 47.556641 C 447.483093 48.504578 447.886414 49.256531 448.487976 49.8125 C 449.089539 50.368469 449.891602 50.646484 450.894226 50.646484 Z M 433.571411 58.042969 C 431.95813 58.042969 430.697998 57.73761 429.791138 57.126953 C 428.884216 56.516296 428.284912 55.773438 427.993286 54.898438 L 429.620239 54.050781 L 431.547974 56.053711 L 433.612427 56.402344 C 434.98877 56.402344 436.155396 56.055969 437.112427 55.363281 C 438.069458 54.670593 438.666443 53.622375 438.903442 52.21875 L 439.463989 48.855469 L 436.5177 51.405273 L 434.227661 51.835938 C 432.623474 51.835938 431.340576 51.32782 430.379028 50.311523 C 429.417419 49.295227 428.936646 47.875671 428.936646 46.052734 L 429.463013 42.634766 L 430.973755 39.558594 L 433.373169 37.34375 C 434.316528 36.787781 435.380615 36.509766 436.565552 36.509766 L 438.848755 37.015625 L 440.817505 39.695313 L 441.528442 36.714844 L 443.33313 36.714844 L 440.70813 52.4375 C 440.498474 53.73175 440.056396 54.791321 439.381958 55.616211 C 438.707458 56.441101 437.871216 57.051758 436.873169 57.448242 L 433.571411 58.042969 Z M 434.528442 50.167969 L 437.098755 49.498047 L 438.92395 47.713867 L 440.393677 42.525391 C 440.393677 41.23114 440.088379 40.185242 439.477661 39.387695 C 438.866943 38.590149 437.955566 38.191406 436.743286 38.191406 L 434.234497 38.875 L 432.368286 40.700195 L 430.796021 45.957031 C 430.796021 47.233093 431.110474 48.253906 431.73938 49.019531 C 432.368286 49.785156 433.297974 50.167969 434.528442 50.167969 Z M 413.008362 57.400391 C 410.474487 57.400391 408.359924 56.887695 406.664612 55.862305 C 404.969299 54.836914 403.766174 53.383118 403.055237 51.500977 C 402.344299 49.618835 402.198486 47.401733 402.617737 44.849609 C 403.036987 42.352173 403.891479 40.166992 405.181213 38.293945 C 406.470947 36.420898 408.0979 34.964844 410.062073 33.925781 C 412.026245 32.886719 414.225159 32.367188 416.658752 32.367188 C 418.44519 32.367188 420.003784 32.677063 421.334534 33.296875 C 422.665283 33.916687 423.749878 34.762024 424.58844 35.833008 C 425.427002 36.903992 426.001221 38.123047 426.311096 39.490234 C 426.620972 40.857422 426.652893 42.288391 426.406799 43.783203 L 424.615784 49.046875 L 422.893127 50.810547 L 420.445862 51.466797 C 418.486206 51.466797 417.579346 50.619141 417.725159 48.923828 L 415.783752 50.749023 C 414.990784 51.254883 414.065674 51.507813 413.008362 51.507813 C 411.85083 51.507813 410.900635 51.211609 410.157776 50.619141 C 409.414917 50.026672 408.897705 49.222351 408.606018 48.206055 C 408.314331 47.189758 408.273315 46.048157 408.482971 44.78125 C 408.683472 43.550781 409.1073 42.445618 409.754456 41.46582 L 412.126526 39.141602 C 413.060791 38.57196 414.065674 38.287109 415.141174 38.287109 L 417.506409 38.922852 L 418.791565 40.392578 L 419.201721 38.574219 L 420.86969 38.574219 L 419.427307 49.395508 C 419.605042 49.782898 419.99469 49.976563 420.596252 49.976563 C 421.662659 49.976563 422.537659 49.452454 423.221252 48.404297 C 423.904846 47.35614 424.415283 45.815796 424.752502 43.783203 L 424.711487 40.037109 C 424.465393 38.852234 423.995972 37.79718 423.303284 36.87207 C 422.610596 35.94696 421.699097 35.217773 420.568909 34.68457 C 419.438721 34.151367 418.098877 33.884766 416.549377 33.884766 C 414.480347 33.884766 412.59137 34.342773 410.882385 35.258789 C 409.173401 36.174805 407.746948 37.462219 406.603088 39.121094 C 405.459229 40.779968 404.704956 42.716797 404.340393 44.931641 C 403.97583 47.146484 404.080627 49.07196 404.654846 50.708008 C 405.229065 52.344055 406.227112 53.613281 407.648987 54.515625 C 409.070862 55.417969 410.875549 55.869141 413.063049 55.869141 L 418.90094 54.515625 L 419.188049 55.964844 L 413.008362 57.400391 Z M 413.21344 49.908203 C 414.562378 49.908203 415.672119 49.445618 416.542542 48.520508 C 417.412964 47.595398 417.984924 46.317078 418.258362 44.685547 C 418.522705 43.063171 418.363159 41.855469 417.779846 41.0625 C 417.196533 40.269531 416.271362 39.873047 415.004456 39.873047 L 412.782776 40.529297 L 411.046448 42.279297 L 410.15094 47.290039 L 411.169495 49.19043 C 411.675354 49.668945 412.356689 49.908203 413.21344 49.908203 Z M 392.828125 52.287109 C 391.041626 52.287109 389.62439 51.744812 388.576172 50.660156 C 387.527954 49.5755 387.003906 48.103516 387.003906 46.244141 L 387.639648 42.395508 L 389.40332 39.271484 L 392.041992 37.179688 C 393.049194 36.678406 394.140625 36.427734 395.316406 36.427734 C 396.756531 36.427734 397.891235 36.785461 398.720703 37.500977 C 399.550171 38.216492 399.964844 39.194031 399.964844 40.433594 C 399.964844 41.636719 399.559204 42.5755 398.748047 43.25 C 397.936829 43.9245 396.708679 44.400696 395.063477 44.678711 L 388.849609 45.123047 L 388.794922 46.244141 C 388.794922 47.501953 389.134399 48.547852 389.813477 49.381836 C 390.492554 50.21582 391.529297 50.632813 392.923828 50.632813 L 395.665039 49.956055 L 397.626953 48.158203 L 399.308594 48.71875 C 398.697876 49.803406 397.809265 50.66925 396.642578 51.316406 C 395.475891 51.963562 394.204468 52.287109 392.828125 52.287109 Z M 389.109375 43.673828 L 394.256836 43.400391 L 397.182617 42.443359 C 397.807007 41.978516 398.119141 41.304016 398.119141 40.419922 C 398.119141 39.681641 397.854858 39.10968 397.326172 38.704102 L 395.152344 38.095703 C 394.058594 38.095703 393.103882 38.35321 392.288086 38.868164 L 390.271484 40.912109 L 389.109375 43.673828 Z M 377.145935 52.328125 L 374.862732 51.835938 L 372.839294 49.142578 L 372.169373 52 L 370.364685 52 L 373.741638 31.628906 L 375.601013 31.628906 L 374.261169 39.654297 L 377.166443 37.001953 L 379.511169 36.509766 C 381.133545 36.509766 382.414185 37.058899 383.352966 38.157227 C 384.291748 39.255554 384.761169 40.729797 384.761169 42.580078 L 384.241638 46.05957 L 382.737732 49.210938 L 380.345154 51.480469 C 379.406372 52.045593 378.339966 52.328125 377.145935 52.328125 Z M 376.927185 50.646484 C 377.884216 50.646484 378.731873 50.404968 379.470154 49.921875 L 381.343201 48.007813 L 382.901794 42.621094 C 382.901794 41.326843 382.596436 40.264954 381.985779 39.435547 C 381.375122 38.60614 380.454529 38.191406 379.22406 38.191406 C 378.267029 38.191406 377.419373 38.428406 376.681091 38.902344 L 374.821716 40.789063 L 373.304138 46.203125 C 373.304138 47.533875 373.609497 48.607117 374.220154 49.422852 C 374.830811 50.238586 375.733154 50.646484 376.927185 50.646484 Z M 359.481323 52.328125 C 358.232605 52.328125 357.191284 51.995422 356.3573 51.330078 C 355.523315 50.664734 354.942261 49.737305 354.614136 48.547852 C 354.286011 47.358398 354.25415 45.970703 354.518433 44.384766 C 354.773682 42.807922 355.265808 41.429382 355.994995 40.249023 C 356.724182 39.068665 357.617371 38.150391 358.674683 37.494141 C 359.731995 36.837891 360.880432 36.509766 362.119995 36.509766 L 364.355347 37.001953 L 366.276245 39.654297 L 366.918823 36.714844 L 368.778198 36.714844 L 366.248901 52 L 364.444214 52 L 364.690308 49.142578 L 361.853394 51.835938 L 359.481323 52.328125 Z M 360.028198 50.646484 C 361.012573 50.646484 361.892151 50.377625 362.66687 49.839844 L 364.60144 47.611328 L 365.674683 44.371094 C 365.975464 42.548157 365.818237 41.0625 365.203003 39.914063 C 364.587769 38.765625 363.551025 38.191406 362.092651 38.191406 C 361.080933 38.191406 360.180908 38.464844 359.392456 39.011719 L 357.444214 41.233398 L 356.391479 44.371094 L 356.411987 47.556641 C 356.617065 48.504578 357.020386 49.256531 357.621948 49.8125 C 358.223511 50.368469 359.025574 50.646484 360.028198 50.646484 Z M 342.705383 58.042969 C 341.092102 58.042969 339.832031 57.73761 338.92511 57.126953 C 338.018188 56.516296 337.418945 55.773438 337.127258 54.898438 L 338.754211 54.050781 L 340.681946 56.053711 L 342.746399 56.402344 C 344.122681 56.402344 345.289368 56.055969 346.246399 55.363281 C 347.20343 54.670593 347.800415 53.622375 348.037415 52.21875 L 348.597961 48.855469 L 345.651672 51.405273 L 343.361633 51.835938 C 341.757446 51.835938 340.474609 51.32782 339.513 50.311523 C 338.551392 49.295227 338.070618 47.875671 338.070618 46.052734 L 338.596985 42.634766 L 340.107727 39.558594 L 342.507141 37.34375 C 343.4505 36.787781 344.514648 36.509766 345.699524 36.509766 L 347.982727 37.015625 L 349.951477 39.695313 L 350.662415 36.714844 L 352.467102 36.714844 L 349.842102 52.4375 C 349.632446 53.73175 349.19043 54.791321 348.51593 55.616211 C 347.841431 56.441101 347.005188 57.051758 346.007141 57.448242 L 342.705383 58.042969 Z M 343.662415 50.167969 L 346.232727 49.498047 L 348.057922 47.713867 L 349.527649 42.525391 C 349.527649 41.23114 349.22229 40.185242 348.611633 39.387695 C 348.000977 38.590149 347.089478 38.191406 345.877258 38.191406 L 343.368469 38.875 L 341.502258 40.700195 L 339.929993 45.957031 C 339.929993 47.233093 340.244446 48.253906 340.873352 49.019531 C 341.502258 49.785156 342.431946 50.167969 343.662415 50.167969 Z M 324.780457 52.164063 L 323.74823 51.699219 L 323.467957 50.564453 L 325.02655 49.224609 L 326.352722 50.783203 L 324.780457 52.164063 Z M 326.721863 40.392578 L 325.689636 39.927734 L 325.409363 38.792969 L 326.967957 37.453125 L 328.294128 39.011719 L 326.721863 40.392578 Z M 322.332642 31.628906 L 318.955688 52 L 317.096313 52 L 320.473267 31.628906 Z M 311.121155 52 L 313.650452 36.714844 L 315.509827 36.714844 L 312.98053 52 Z M 315.058655 33.884766 L 313.923889 32.585938 L 315.496155 31.287109 L 316.63092 32.572266 L 315.058655 33.884766 Z M 300.224121 52.328125 C 298.975464 52.328125 297.934082 51.995422 297.100098 51.330078 C 296.266113 50.664734 295.685059 49.737305 295.356934 48.547852 C 295.028809 47.358398 294.996948 45.970703 295.26123 44.384766 C 295.516479 42.807922 296.008667 41.429382 296.737793 40.249023 C 297.46698 39.068665 298.360229 38.150391 299.41748 37.494141 C 300.474792 36.837891 301.62323 36.509766 302.862793 36.509766 L 305.098145 37.001953 L 307.019043 39.654297 L 307.661621 36.714844 L 309.520996 36.714844 L 306.991699 52 L 305.187012 52 L 305.433105 49.142578 L 302.596191 51.835938 L 300.224121 52.328125 Z M 300.770996 50.646484 C 301.755371 50.646484 302.634949 50.377625 303.409668 49.839844 L 305.344238 47.611328 L 306.41748 44.371094 C 306.718262 42.548157 306.561035 41.0625 305.945801 39.914063 C 305.330566 38.765625 304.293823 38.191406 302.835449 38.191406 C 301.82373 38.191406 300.923706 38.464844 300.135254 39.011719 L 298.187012 41.233398 L 297.134277 44.371094 L 297.154785 47.556641 C 297.359863 48.504578 297.763184 49.256531 298.364746 49.8125 C 298.966309 50.368469 299.768433 50.646484 300.770996 50.646484 Z M 270.911072 52 L 273.454041 36.714844 L 275.258728 36.714844 L 274.821228 39.435547 C 275.377258 38.405579 276.088135 37.651367 276.954041 37.172852 L 279.565369 36.455078 C 280.613586 36.455078 281.438416 36.753601 282.039978 37.350586 C 282.641602 37.947571 283.006165 38.729187 283.133728 39.695313 C 283.644165 38.6745 284.371033 37.879211 285.314392 37.30957 C 286.257813 36.739929 287.276306 36.455078 288.370056 36.455078 C 289.764648 36.455078 290.851501 36.910828 291.630798 37.822266 C 292.410156 38.733704 292.653931 40.050781 292.362244 41.773438 L 290.666931 52 L 288.807556 52 L 290.530212 41.677734 C 290.730774 40.447266 290.562134 39.554016 290.024353 38.998047 C 289.486633 38.442078 288.757446 38.164063 287.836853 38.164063 C 286.69751 38.164063 285.715454 38.519531 284.890564 39.230469 C 284.065735 39.941406 283.562134 40.862 283.379822 41.992188 L 281.711853 52 L 279.86615 52 L 281.602478 41.527344 C 281.78479 40.451843 281.623047 39.622375 281.117126 39.039063 C 280.611267 38.45575 279.898071 38.164063 278.977478 38.164063 L 275.292908 40.057617 L 272.770447 52 Z M 261.736694 52.287109 C 259.950256 52.287109 258.532959 51.744812 257.484741 50.660156 C 256.436584 49.5755 255.912476 48.103516 255.912476 46.244141 L 256.548218 42.395508 L 258.31189 39.271484 L 260.950562 37.179688 C 261.957764 36.678406 263.049194 36.427734 264.224976 36.427734 C 265.6651 36.427734 266.799866 36.785461 267.629272 37.500977 C 268.45874 38.216492 268.873413 39.194031 268.873413 40.433594 C 268.873413 41.636719 268.467834 42.5755 267.656616 43.25 C 266.845459 43.9245 265.617249 44.400696 263.972046 44.678711 L 257.758179 45.123047 L 257.703491 46.244141 C 257.703491 47.501953 258.04303 48.547852 258.722046 49.381836 C 259.401123 50.21582 260.437866 50.632813 261.832397 50.632813 L 264.573608 49.956055 L 266.535522 48.158203 L 268.217163 48.71875 C 267.606506 49.803406 266.717834 50.66925 265.551147 51.316406 C 264.384521 51.963562 263.113037 52.287109 261.736694 52.287109 Z M 258.017944 43.673828 L 263.165405 43.400391 L 266.091187 42.443359 C 266.715576 41.978516 267.02771 41.304016 267.02771 40.419922 C 267.02771 39.681641 266.763428 39.10968 266.234741 38.704102 L 264.060913 38.095703 C 262.967163 38.095703 262.012451 38.35321 261.196655 38.868164 L 259.180054 40.912109 L 258.017944 43.673828 Z M 248.159424 36.714844 L 247.899658 38.328125 L 244.755127 38.328125 L 243.087158 48.390625 C 242.83197 49.930969 243.401611 50.628235 244.796143 50.482422 L 245.821533 50.332031 L 245.930908 51.931641 L 244.522705 52.150391 C 243.274048 52.232422 242.362549 51.940735 241.78833 51.275391 C 241.214111 50.610046 241.022705 49.689453 241.214111 48.513672 L 242.909424 38.328125 L 240.612549 38.328125 L 240.885986 36.714844 L 243.169189 36.714844 L 243.770752 33.078125 L 245.630127 33.078125 L 245.028564 36.714844 Z M 231.369873 52.287109 C 229.619812 52.287109 228.234436 51.717468 227.213623 50.578125 C 226.192749 49.438782 225.682373 47.934875 225.682373 46.066406 L 226.249756 42.573242 L 227.876709 39.503906 L 230.426514 37.323242 C 231.419983 36.780945 232.527405 36.509766 233.748779 36.509766 L 236.462646 37.111328 L 239.039795 40.447266 L 237.248779 40.898438 L 235.621826 38.628906 L 233.721436 38.191406 C 232.737061 38.191406 231.862061 38.423828 231.096436 38.888672 L 229.155029 40.748047 L 227.528076 46.080078 C 227.528076 47.392578 227.849365 48.477234 228.491943 49.333984 C 229.134521 50.190735 230.107483 50.619141 231.410889 50.619141 L 233.598389 50.133789 L 236.141357 47.707031 L 237.822998 48.363281 L 234.220459 51.699219 L 231.369873 52.287109 Z M 214.457153 52.328125 C 213.208496 52.328125 212.167175 51.995422 211.33313 51.330078 C 210.499146 50.664734 209.918152 49.737305 209.589966 48.547852 C 209.261841 47.358398 209.22998 45.970703 209.494263 44.384766 C 209.749512 42.807922 210.241699 41.429382 210.970825 40.249023 C 211.700012 39.068665 212.593262 38.150391 213.650513 37.494141 C 214.707825 36.837891 215.856262 36.509766 217.095825 36.509766 L 219.331177 37.001953 L 221.252075 39.654297 L 221.894653 36.714844 L 223.754028 36.714844 L 221.224731 52 L 219.420044 52 L 219.666138 49.142578 L 216.829224 51.835938 L 214.457153 52.328125 Z M 215.004028 50.646484 C 215.988464 50.646484 216.867981 50.377625 217.6427 49.839844 L 219.577271 47.611328 L 220.650513 44.371094 C 220.951355 42.548157 220.794128 41.0625 220.178833 39.914063 C 219.563599 38.765625 218.526855 38.191406 217.068481 38.191406 C 216.056763 38.191406 215.156738 38.464844 214.368286 39.011719 L 212.420044 41.233398 L 211.36731 44.371094 L 211.387817 47.556641 C 211.592957 48.504578 211.996216 49.256531 212.597778 49.8125 C 213.199402 50.368469 214.001465 50.646484 215.004028 50.646484 Z M 209.138306 36.714844 L 208.87854 38.328125 L 205.734009 38.328125 L 204.06604 48.390625 C 203.810791 49.930969 204.380493 50.628235 205.775024 50.482422 L 206.800415 50.332031 L 206.90979 51.931641 L 205.501587 52.150391 C 204.252869 52.232422 203.341431 51.940735 202.767212 51.275391 C 202.192993 50.610046 202.001587 49.689453 202.192993 48.513672 L 203.888306 38.328125 L 201.591431 38.328125 L 201.864868 36.714844 L 204.148071 36.714844 L 204.749634 33.078125 L 206.609009 33.078125 L 206.007446 36.714844 Z M 188.930725 42.525391 L 187.358459 52 L 185.512756 52 L 188.042053 36.714844 L 189.833069 36.714844 L 189.381897 39.435547 C 190.019897 38.405579 190.783264 37.660461 191.671936 37.200195 L 194.549866 36.509766 C 196.126648 36.509766 197.327515 36.999695 198.152405 37.979492 C 198.977234 38.95929 199.239319 40.35614 198.938538 42.169922 L 197.311584 52 L 195.452209 52 L 197.079163 42.197266 C 197.288757 40.939453 197.115601 39.959656 196.559631 39.257813 C 196.003601 38.555969 195.151428 38.205078 194.002991 38.205078 L 191.69928 38.738281 L 189.887756 40.242188 L 188.930725 42.525391 Z M 175.477051 52.328125 C 174.310364 52.328125 173.300903 52.068359 172.44873 51.548828 C 171.596497 51.029297 170.937988 50.30011 170.473145 49.361328 C 170.008301 48.422546 169.775879 47.328796 169.775879 46.080078 L 170.350098 42.580078 L 171.983887 39.503906 L 174.533691 37.323242 C 175.527161 36.780945 176.634583 36.509766 177.855957 36.509766 C 179.031738 36.509766 180.045715 36.769531 180.897949 37.289063 C 181.750122 37.808594 182.408691 38.537781 182.873535 39.476563 C 183.338379 40.415344 183.570801 41.509094 183.570801 42.757813 L 182.989746 46.271484 L 181.342285 49.347656 L 178.79248 51.521484 C 177.803528 52.059265 176.698364 52.328125 175.477051 52.328125 Z M 175.518066 50.646484 C 176.484192 50.646484 177.350098 50.414063 178.115723 49.949219 L 180.063965 48.09668 L 181.711426 42.8125 C 181.711426 41.48175 181.385559 40.378906 180.733887 39.503906 C 180.082153 38.628906 179.109192 38.191406 177.814941 38.191406 L 175.251465 38.881836 L 173.303223 40.713867 L 171.635254 46.052734 C 171.635254 47.374329 171.958801 48.470398 172.605957 49.34082 C 173.253052 50.211243 174.223755 50.646484 175.518066 50.646484 Z M 160.36908 52.287109 C 158.61908 52.287109 157.233643 51.717468 156.21283 50.578125 C 155.191956 49.438782 154.68158 47.934875 154.68158 46.066406 L 155.248962 42.573242 L 156.875916 39.503906 L 159.42572 37.323242 C 160.419189 36.780945 161.526611 36.509766 162.747986 36.509766 L 165.461853 37.111328 L 168.039001 40.447266 L 166.247986 40.898438 L 164.621033 38.628906 L 162.720642 38.191406 C 161.736267 38.191406 160.861267 38.423828 160.095642 38.888672 L 158.154236 40.748047 L 156.527283 46.080078 C 156.527283 47.392578 156.848572 48.477234 157.49115 49.333984 C 158.133728 50.190735 159.106689 50.619141 160.410095 50.619141 L 162.597595 50.133789 L 165.140564 47.707031 L 166.822205 48.363281 L 163.219666 51.699219 L 160.36908 52.287109 Z M 504.920776 51.548828 C 505.773071 52.068359 506.782471 52.328125 507.949097 52.328125 C 509.170532 52.328125 510.275635 52.059265 511.264526 51.521484 L 513.814331 49.347656 L 515.461792 46.271484 L 516.042847 42.757813 C 516.042847 41.509094 515.810547 40.415344 515.345581 39.476563 C 514.880737 38.537781 514.22229 37.808594 513.369995 37.289063 C 512.517822 36.769531 511.503906 36.509766 510.328003 36.509766 C 509.106689 36.509766 507.999268 36.780945 507.005737 37.323242 L 504.455933 39.503906 L 502.822144 42.580078 L 502.247925 46.080078 C 502.247925 47.328796 502.480347 48.422546 502.94519 49.361328 C 503.410156 50.30011 504.068604 51.029297 504.920776 51.548828 Z M 495.411499 36.714844 L 492.882202 52 L 494.741577 52 L 497.223022 40.1875 L 498.911499 38.806641 L 502.179077 38.396484 L 502.479858 36.537109 L 498.863647 37.213867 C 498.029663 37.683289 497.393921 38.309875 496.956421 39.09375 L 497.216187 36.714844 L 495.411499 36.714844 Z M 510.587769 49.949219 C 509.822144 50.414063 508.956299 50.646484 507.990112 50.646484 C 506.695923 50.646484 505.72522 50.211243 505.078003 49.34082 C 504.430908 48.470398 504.1073 47.374329 504.1073 46.052734 L 505.775269 40.713867 L 507.723511 38.881836 L 510.286987 38.191406 C 511.581299 38.191406 512.554321 38.628906 513.205933 39.503906 C 513.857666 40.378906 514.183472 41.48175 514.183472 42.8125 L 512.536011 48.09668 L 510.587769 49.949219 Z"/>
</svg>
