<?xml version="1.0" encoding="UTF-8"?>
<!-- Generated by Pixelmator Pro 3.5.7 -->
<svg width="524" height="200" viewBox="0 0 524 200" xmlns="http://www.w3.org/2000/svg">
    <path id="Gabe-Romualdo" fill="#ffffff" fill-rule="evenodd" stroke="none" d="M 491.252502 71.828003 C 502.08551 71.828003 509.192505 64.307007 509.192505 52.714996 C 509.192505 41.123001 502.08551 33.602005 491.252502 33.602005 C 480.419495 33.602005 473.3125 41.123001 473.3125 52.714996 C 473.3125 64.307007 480.419495 71.828003 491.252502 71.828003 Z M 482.144501 52.714996 C 482.144501 45.125 485.456512 40.639999 491.252502 40.639999 C 497.048492 40.639999 500.360504 45.125 500.360504 52.714996 C 500.360504 60.304993 497.048492 64.789993 491.252502 64.789993 C 485.456512 64.789993 482.144501 60.304993 482.144501 52.714996 Z M 468.206512 22.009995 L 459.650513 22.009995 L 459.650513 39.328995 C 457.511505 35.602997 453.785492 33.602005 448.679504 33.602005 C 438.329498 33.602005 433.223511 42.296005 433.223511 52.714996 C 433.223511 63.134003 438.329498 71.828003 448.679504 71.828003 C 454.061493 71.828003 457.856506 69.619995 459.926514 65.824997 L 460.133514 71 L 468.206512 71 Z M 441.986511 52.714996 C 441.986511 46.160004 444.67749 40.363998 451.094513 40.363998 C 457.511505 40.363998 460.202515 46.160004 460.202515 52.714996 C 460.202515 58.994003 457.511505 64.789993 451.094513 64.789993 C 444.74649 64.789993 441.986511 58.994003 441.986511 52.714996 Z M 417.146515 22.009995 L 417.146515 62.029999 C 417.146515 67.619003 420.734497 71 426.116486 71 L 431.153503 71 L 431.153503 64.238007 L 428.255493 64.238007 C 426.599487 64.238007 425.702515 63.410004 425.702515 61.684998 L 425.702515 22.009995 Z M 376.298492 45.539001 L 385.061493 46.022003 C 385.958496 42.020004 388.511505 39.949997 392.444489 39.949997 C 397.412506 39.949997 399.758514 42.641006 399.827515 48.229996 L 389.546509 50.300003 C 380.990509 51.955994 375.67749 54.233002 375.67749 61.408997 C 375.67749 67.895004 381.542511 71.828003 388.856506 71.828003 C 395.135498 71.828003 399.206512 68.998993 400.931488 65.410995 C 401.48349 71 407.00351 71.069 409.97049 71.069 L 412.109497 71 L 412.109497 64.651993 L 410.729492 64.651993 C 409.280487 64.651993 408.452515 64.100006 408.452515 62.029999 L 408.452515 49.264999 C 408.452515 39.052994 402.932495 33.602005 392.444489 33.602005 C 383.612488 33.602005 377.747498 38.018005 376.298492 45.539001 Z M 384.509491 61.132996 C 384.509491 56.854996 388.166504 56.371994 392.92749 55.475006 L 399.965515 54.233002 L 399.965515 54.578003 C 399.965515 62.029999 396.170502 65.686996 391.064514 65.686996 C 386.648499 65.686996 384.509491 63.686005 384.509491 61.132996 Z M 370.364502 71 L 370.364502 34.429993 L 361.808502 34.429993 L 361.808502 55.199005 C 361.808502 61.408997 358.841492 64.789993 354.080505 64.789993 C 349.388489 64.789993 347.732513 61.408997 347.732513 55.199005 L 347.732513 34.429993 L 339.176514 34.429993 L 339.176514 57.959 C 339.176514 66.100998 343.592499 71.828003 351.527496 71.828003 C 356.219513 71.828003 360.290497 69.964996 362.291504 65.272995 L 362.429504 71 Z M 279.836487 34.429993 L 279.836487 71 L 288.392487 71 L 288.392487 50.162003 C 288.392487 44.089996 291.014496 40.570999 295.775513 40.570999 C 299.639496 40.570999 301.709503 43.951996 301.709503 50.162003 L 301.709503 71 L 309.5755 71 L 309.5755 50.162003 C 309.5755 43.951996 312.19751 40.570999 316.958496 40.570999 C 320.89151 40.570999 322.892487 43.882996 322.892487 50.162003 L 322.892487 71 L 331.448486 71 L 331.448486 47.470993 C 331.448486 38.501007 326.894501 33.602005 319.511505 33.602005 C 314.198486 33.602005 310.403503 36.154999 308.609497 41.123001 C 307.022491 36.362 303.296509 33.602005 298.12149 33.602005 C 293.291504 33.602005 289.565491 36.016998 287.771515 40.294998 L 287.564514 34.429993 Z M 257.066498 71.828003 C 267.899506 71.828003 275.0065 64.307007 275.0065 52.714996 C 275.0065 41.123001 267.899506 33.602005 257.066498 33.602005 C 246.233505 33.602005 239.126495 41.123001 239.126495 52.714996 C 239.126495 64.307007 246.233505 71.828003 257.066498 71.828003 Z M 247.958496 52.714996 C 247.958496 45.125 251.270493 40.639999 257.066498 40.639999 C 262.862488 40.639999 266.1745 45.125 266.1745 52.714996 C 266.1745 60.304993 262.862488 64.789993 257.066498 64.789993 C 251.270493 64.789993 247.958496 60.304993 247.958496 52.714996 Z M 218.7715 22.009995 L 198.485504 22.009995 L 198.485504 71 L 207.179504 71 L 207.179504 52.369995 L 217.460495 52.369995 C 223.739502 52.369995 226.292496 53.75 226.637497 58.028 L 227.672501 71 L 236.435501 71 L 235.193497 56.785995 C 234.710495 51.542007 232.433502 49.057999 227.3965 48.367996 C 232.226501 47.057007 236.0215 42.779007 236.0215 36.776001 C 236.0215 27.460999 228.914505 22.009995 218.7715 22.009995 Z M 207.179504 44.710999 L 207.179504 29.669006 L 217.874496 29.669006 C 223.739502 29.669006 227.051498 32.360001 227.051498 37.190002 C 227.051498 42.020004 223.739502 44.710999 217.874496 44.710999 Z M 143.906494 52.714996 C 143.906494 64.307007 151.013504 71.828003 161.846497 71.828003 C 169.643494 71.828003 176.198502 67.481003 178.406494 60.442993 L 169.643494 59.822006 C 168.263504 62.996002 165.227493 64.927994 161.846497 64.927994 C 156.533493 64.927994 153.290497 61.270996 152.876495 55.061005 L 178.889496 55.061005 L 178.889496 52.783997 C 178.613495 39.811996 171.092499 33.602005 161.846497 33.602005 C 151.013504 33.602005 143.906494 41.123001 143.906494 52.714996 Z M 152.945496 49.195999 C 153.704498 43.744995 156.878494 40.432999 161.846497 40.432999 C 165.779495 40.432999 169.298492 42.779007 170.057495 49.195999 Z M 105.749496 22.009995 L 105.749496 71 L 113.822502 71 L 114.029503 65.824997 C 116.099503 69.619995 119.894501 71.828003 125.276497 71.828003 C 135.626495 71.828003 140.732498 63.134003 140.732498 52.714996 C 140.732498 42.296005 135.626495 33.602005 125.276497 33.602005 C 120.170502 33.602005 116.444504 35.602997 114.305496 39.328995 L 114.305496 22.009995 Z M 113.753502 52.714996 C 113.753502 46.160004 116.444504 40.363998 122.861504 40.363998 C 129.278503 40.363998 131.969498 46.160004 131.969498 52.714996 C 131.969498 58.994003 129.209503 64.789993 122.861504 64.789993 C 116.444504 64.789993 113.753502 58.994003 113.753502 52.714996 Z M 65.384499 45.539001 L 74.147499 46.022003 C 75.044502 42.020004 77.597504 39.949997 81.530502 39.949997 C 86.498497 39.949997 88.844498 42.641006 88.913498 48.229996 L 78.6325 50.300003 C 70.0765 51.955994 64.763496 54.233002 64.763496 61.408997 C 64.763496 67.895004 70.628502 71.828003 77.942497 71.828003 C 84.221497 71.828003 88.292503 68.998993 90.017502 65.410995 C 90.569504 71 96.0895 71.069 99.056503 71.069 L 101.195503 71 L 101.195503 64.651993 L 99.815498 64.651993 C 98.366501 64.651993 97.538498 64.100006 97.538498 62.029999 L 97.538498 49.264999 C 97.538498 39.052994 92.018501 33.602005 81.530502 33.602005 C 72.698502 33.602005 66.833504 38.018005 65.384499 45.539001 Z M 73.595497 61.132996 C 73.595497 56.854996 77.252502 56.371994 82.013496 55.475006 L 89.051498 54.233002 L 89.051498 54.578003 C 89.051498 62.029999 85.2565 65.686996 80.150497 65.686996 C 75.734497 65.686996 73.595497 63.686005 73.595497 61.132996 Z M 61.244499 71 L 61.244499 45.746002 L 40.544498 45.746002 L 40.544498 52.783997 L 52.550499 52.783997 C 51.8605 59.477005 47.789501 64.445007 40.613499 64.445007 C 30.953501 64.445007 26.606501 56.440994 26.606501 46.574005 C 26.606501 36.638 30.884501 28.565002 40.613499 28.565002 C 46.685501 28.565002 50.6185 32.153 51.998501 37.466003 L 61.037498 36.983002 C 58.760502 27.391998 51.515499 20.906006 40.682499 20.906006 C 26.3305 20.906006 17.636499 32.153 17.636499 46.574005 C 17.636499 60.925995 26.3305 72.103996 40.337502 72.103996 C 46.961498 72.103996 52.7575 68.723007 55.0345 63.617004 L 55.655499 71 Z"/>
    <path id="NEW-SITE-COMING-SOON---2024--all-rights-reserved" fill="#ffffff" fill-rule="evenodd" stroke="none" opacity="0.414369" d="M 267.519531 191.775391 C 264.851532 191.775391 262.851471 190.373779 262.230469 188.257813 L 264.714844 188.095703 C 265.174866 189.130692 266.139984 189.751953 267.542969 189.751953 C 269.520966 189.751953 270.716797 188.878189 270.716797 187.199219 L 270.716797 185.404297 C 270.003784 186.738281 268.647369 187.429688 267.359375 187.429688 C 264.024353 187.429688 261.908203 184.990967 261.908203 181.541016 C 261.908203 178.068069 264.093353 175.583984 267.359375 175.583984 C 268.946381 175.583984 270.256592 176.43512 270.808594 177.746094 L 270.808594 175.859375 L 273.109375 175.859375 L 273.109375 186.785156 C 273.109375 190.005112 270.831543 191.775391 267.519531 191.775391 Z M 156.568359 188.417969 C 152.474365 188.417969 149.966797 185.10614 149.966797 179.908203 C 149.966797 174.664276 152.474365 171.351563 156.568359 171.351563 C 160.685364 171.351563 163.191406 174.664276 163.191406 179.908203 C 163.191406 185.10614 160.685364 188.417969 156.568359 188.417969 Z M 119.123047 188.326172 C 114.431145 188.326172 110.636719 184.531784 110.636719 179.839844 C 110.636719 175.147888 114.431145 171.351563 119.123047 171.351563 C 123.814949 171.351563 127.611328 175.147888 127.611328 179.839844 C 127.611328 184.531784 123.814949 188.326172 119.123047 188.326172 Z M 217.126953 188.326172 C 214.68895 188.326172 212.734375 187.038483 212.734375 184.853516 C 212.734375 182.392548 214.55098 181.70282 217.333984 181.173828 L 220.830078 180.482422 C 220.807083 178.527451 219.909241 177.585938 218.115234 177.585938 C 216.68924 177.585938 215.747345 178.297318 215.402344 179.654297 L 212.941406 179.494141 C 213.424408 177.056168 215.35524 175.583984 218.115234 175.583984 C 221.427231 175.583984 223.222656 177.424377 223.222656 180.736328 L 223.222656 185.335938 C 223.222656 185.910919 223.474045 186.117188 223.957031 186.117188 L 224.464844 186.117188 L 224.464844 188.050781 L 223.658203 188.050781 C 222.554199 188.073776 221.105667 187.843475 221.013672 186.1875 C 220.484665 187.337494 219.12796 188.326172 217.126953 188.326172 Z M 304.435547 188.326172 C 301.353546 188.326172 299.121521 186.738953 298.9375 184.208984 L 301.398438 184.048828 C 301.628448 185.428818 302.710114 186.279297 304.412109 186.279297 C 305.493134 186.279297 306.896484 185.910187 306.896484 184.783203 C 306.873474 183.449234 305.332062 183.28923 303.998047 182.990234 C 301.468048 182.438232 299.236328 181.771759 299.236328 179.425781 C 299.236328 177.056808 301.145203 175.583984 304.158203 175.583984 C 306.757202 175.583984 308.782837 177.124084 309.173828 179.539063 L 306.712891 179.677734 C 306.4599 178.389755 305.216187 177.607422 303.951172 177.607422 C 302.709167 177.607422 301.697693 178.251053 301.720703 179.332031 C 301.720703 180.436005 303.170135 180.896957 304.412109 181.126953 C 307.40213 181.678955 309.380859 182.484985 309.380859 184.876953 C 309.380859 187.268921 306.942535 188.326172 304.435547 188.326172 Z M 331.804688 188.326172 C 328.308685 188.326172 326.03125 185.842026 326.03125 181.955078 C 326.03125 178.06813 328.308685 175.583984 331.804688 175.583984 C 334.656708 175.583984 337.141296 177.469452 337.279297 181.816406 L 337.302734 182.644531 L 328.539063 182.644531 C 328.723053 184.921509 329.872681 186.255859 331.804688 186.255859 C 333.023682 186.255859 334.105347 185.565567 334.611328 184.392578 L 337.117188 184.576172 C 336.404175 186.876144 334.265686 188.326172 331.804688 188.326172 Z M 345.099609 188.326172 C 342.017609 188.326172 339.785583 186.738953 339.601563 184.208984 L 342.0625 184.048828 C 342.292511 185.428818 343.374176 186.279297 345.076172 186.279297 C 346.157196 186.279297 347.560547 185.910187 347.560547 184.783203 C 347.537537 183.449234 345.996124 183.28923 344.662109 182.990234 C 342.132111 182.438232 339.900391 181.771759 339.900391 179.425781 C 339.900391 177.056808 341.809265 175.583984 344.822266 175.583984 C 347.421265 175.583984 349.446899 177.124084 349.837891 179.539063 L 347.376953 179.677734 C 347.123932 178.389755 345.880249 177.607422 344.615234 177.607422 C 343.37323 177.607422 342.361755 178.251053 342.384766 179.332031 C 342.384766 180.436005 343.834198 180.896957 345.076172 181.126953 C 348.066193 181.678955 350.044922 182.484985 350.044922 184.876953 C 350.044922 187.268921 347.606598 188.326172 345.099609 188.326172 Z M 358.117188 188.326172 C 354.621185 188.326172 352.34375 185.842026 352.34375 181.955078 C 352.34375 178.06813 354.621185 175.583984 358.117188 175.583984 C 360.969177 175.583984 363.453796 177.469452 363.591797 181.816406 L 363.613281 182.644531 L 354.851563 182.644531 C 355.035553 184.921509 356.185181 186.255859 358.117188 186.255859 C 359.336182 186.255859 360.417816 185.565567 360.923828 184.392578 L 363.429688 184.576172 C 362.716705 186.876144 360.578186 188.326172 358.117188 188.326172 Z M 393.330078 188.326172 C 389.834106 188.326172 387.556641 185.842026 387.556641 181.955078 C 387.556641 178.06813 389.834106 175.583984 393.330078 175.583984 C 396.182098 175.583984 398.666687 177.469452 398.804688 181.816406 L 398.826172 182.644531 L 390.064453 182.644531 C 390.248444 184.921509 391.398102 186.255859 393.330078 186.255859 C 394.549103 186.255859 395.630737 185.565567 396.136719 184.392578 L 398.642578 184.576172 C 397.929565 186.876144 395.791077 188.326172 393.330078 188.326172 Z M 406.279297 188.326172 C 402.783295 188.326172 401.126953 185.359024 401.126953 181.955078 C 401.126953 178.551132 402.783295 175.583984 406.279297 175.583984 C 408.027313 175.583984 409.26944 176.228287 409.982422 177.447266 L 409.982422 171.720703 L 412.373047 171.720703 L 412.373047 188.050781 L 410.142578 188.050781 L 410.074219 186.347656 C 409.407227 187.589645 408.119293 188.326172 406.279297 188.326172 Z M 135.845703 188.050781 C 135.845703 183.12886 139.179688 181.241684 142.054688 179.470703 C 143.733688 178.41272 144.929688 177.285385 144.929688 176.066406 C 144.929688 174.640427 143.757126 173.605469 142.078125 173.605469 C 140.261124 173.605469 139.019897 174.756638 138.628906 176.849609 L 136.097656 176.6875 C 136.488647 173.605545 138.720123 171.351563 142.078125 171.351563 C 145.183121 171.351563 147.460938 173.352875 147.460938 176.089844 C 147.460938 178.504822 145.550201 180.092041 143.158203 181.541016 C 142.031204 182.185013 138.927933 184.255905 138.835938 185.796875 L 147.574219 185.796875 L 147.574219 188.050781 L 135.845703 188.050781 Z M 165.583984 188.050781 C 165.583984 183.12886 168.919922 181.241684 171.794922 179.470703 C 173.473923 178.41272 174.669922 177.285385 174.669922 176.066406 C 174.669922 174.640427 173.495407 173.605469 171.816406 173.605469 C 169.999405 173.605469 168.758179 174.756638 168.367188 176.849609 L 165.837891 176.6875 C 166.228882 173.605545 168.458405 171.351563 171.816406 171.351563 C 174.921402 171.351563 177.199219 173.352875 177.199219 176.089844 C 177.199219 178.504822 175.290436 180.092041 172.898438 181.541016 C 171.771439 182.185013 168.666214 184.255905 168.574219 185.796875 L 177.314453 185.796875 L 177.314453 188.050781 L 165.583984 188.050781 Z M 187.595703 188.050781 L 187.595703 184.830078 L 179.222656 184.830078 L 179.222656 182.576172 L 187.318359 171.720703 L 190.033203 171.720703 L 190.033203 182.576172 L 191.873047 182.576172 L 191.873047 184.830078 L 190.033203 184.830078 L 190.033203 188.050781 L 187.595703 188.050781 Z M 230.076172 188.050781 C 228.466171 188.050781 227.408203 187.015793 227.408203 185.382813 L 227.408203 171.720703 L 229.800781 171.720703 L 229.800781 185.267578 C 229.800781 185.819565 230.053024 186.072266 230.582031 186.072266 L 231.59375 186.072266 L 231.59375 188.050781 L 230.076172 188.050781 Z M 237.320313 188.050781 C 235.710312 188.050781 234.652344 187.015793 234.652344 185.382813 L 234.652344 171.720703 L 237.044922 171.720703 L 237.044922 185.267578 C 237.044922 185.819565 237.29718 186.072266 237.826172 186.072266 L 238.839844 186.072266 L 238.839844 188.050781 L 237.320313 188.050781 Z M 247.625 188.050781 L 247.625 175.859375 L 249.810547 175.859375 L 249.878906 178.160156 C 250.269913 176.596176 251.190353 175.859375 252.777344 175.859375 L 253.949219 175.859375 L 253.949219 177.837891 L 252.753906 177.837891 C 250.867905 177.837891 250.017578 178.872955 250.017578 180.919922 L 250.017578 188.050781 L 247.625 188.050781 Z M 256.410156 188.050781 L 256.410156 175.859375 L 258.802734 175.859375 L 258.802734 188.050781 L 256.410156 188.050781 Z M 277.042969 188.050781 L 277.042969 171.720703 L 279.433594 171.720703 L 279.433594 177.492188 C 280.146606 176.158218 281.526489 175.583984 283.021484 175.583984 C 285.758484 175.583984 287.115234 177.608063 287.115234 180.207031 L 287.115234 188.050781 L 284.724609 188.050781 L 284.724609 181.035156 C 284.724609 178.896179 284.080902 177.722656 282.378906 177.722656 C 280.56192 177.722656 279.433594 178.896179 279.433594 181.035156 L 279.433594 188.050781 L 277.042969 188.050781 Z M 295.257813 188.050781 C 292.911804 188.050781 291.646484 186.830139 291.646484 184.576172 L 291.646484 177.837891 L 289.806641 177.837891 L 289.806641 175.859375 L 291.646484 175.859375 L 291.646484 173.099609 L 294.039063 173.099609 L 294.039063 175.859375 L 297.28125 175.859375 L 297.28125 177.837891 L 294.039063 177.837891 L 294.039063 184.576172 C 294.039063 185.565155 294.521851 186.072266 295.464844 186.072266 L 297.259766 186.072266 L 297.259766 188.050781 L 295.257813 188.050781 Z M 318.326172 188.050781 L 318.326172 175.859375 L 320.511719 175.859375 L 320.580078 178.160156 C 320.971069 176.596176 321.89151 175.859375 323.478516 175.859375 L 324.652344 175.859375 L 324.652344 177.837891 L 323.455078 177.837891 C 321.569092 177.837891 320.71875 178.872955 320.71875 180.919922 L 320.71875 188.050781 L 318.326172 188.050781 Z M 366.580078 188.050781 L 366.580078 175.859375 L 368.765625 175.859375 L 368.835938 178.160156 C 369.226959 176.596176 370.145416 175.859375 371.732422 175.859375 L 372.90625 175.859375 L 372.90625 177.837891 L 371.710938 177.837891 C 369.824951 177.837891 368.972656 178.872955 368.972656 180.919922 L 368.972656 188.050781 L 366.580078 188.050781 Z M 379.138672 188.050781 L 374.677734 175.859375 L 377.138672 175.859375 L 380.542969 185.589844 L 383.923828 175.859375 L 386.384766 175.859375 L 381.921875 188.050781 L 379.138672 188.050781 Z M 119.123047 186.578125 C 122.780045 186.578125 125.839844 183.519791 125.839844 179.839844 C 125.839844 176.159897 122.780045 173.099609 119.123047 173.099609 C 115.443047 173.099609 112.408203 176.159897 112.408203 179.839844 C 112.408203 183.519791 115.443047 186.578125 119.123047 186.578125 Z M 217.587891 186.439453 C 219.450882 186.439453 220.876953 185.128906 220.876953 182.460938 L 220.876953 182.345703 L 218.253906 182.806641 C 216.55191 183.105637 215.21875 183.242661 215.21875 184.806641 C 215.21875 185.703629 215.97789 186.439453 217.587891 186.439453 Z M 406.876953 186.232422 C 409.222931 186.232422 410.166016 184.14006 410.166016 181.955078 C 410.166016 179.701111 409.222931 177.607422 406.876953 177.607422 C 404.530945 177.607422 403.611328 179.678101 403.611328 181.955078 C 403.611328 184.14006 404.553925 186.232422 406.876953 186.232422 Z M 156.568359 186.164063 C 159.213364 186.164063 160.662109 183.933151 160.662109 179.908203 C 160.662109 175.86026 159.213364 173.605469 156.568359 173.605469 C 153.946365 173.605469 152.496094 175.86026 152.496094 179.908203 C 152.496094 183.933151 153.946365 186.164063 156.568359 186.164063 Z M 267.589844 185.404297 C 269.544861 185.404297 270.762146 183.794983 270.785156 181.541016 C 270.808136 179.287048 269.590851 177.677734 267.589844 177.677734 C 265.588867 177.677734 264.392578 179.287048 264.392578 181.541016 C 264.392578 183.794983 265.611847 185.404297 267.589844 185.404297 Z M 119.216797 184.669922 C 116.364792 184.669922 114.570313 182.806793 114.570313 179.839844 C 114.570313 176.849899 116.364792 175.054688 119.216797 175.054688 C 121.608795 175.054688 123.241776 176.434174 123.425781 178.619141 L 121.515625 178.734375 C 121.331627 177.515396 120.458794 176.734375 119.216797 176.734375 C 117.537796 176.734375 116.501953 177.861862 116.501953 179.839844 C 116.501953 181.817825 117.537796 182.966797 119.216797 182.966797 C 120.527794 182.966797 121.424942 182.161667 121.585938 180.804688 L 123.517578 180.943359 C 123.287582 183.220337 121.677795 184.669922 119.216797 184.669922 Z M 202.107422 184.208984 C 200.635422 184.208984 199.578125 183.150589 199.578125 181.724609 C 199.578125 180.29863 200.635422 179.21875 202.107422 179.21875 C 203.533417 179.21875 204.638672 180.29863 204.638672 181.724609 C 204.638672 183.150589 203.533417 184.208984 202.107422 184.208984 Z M 182.074219 182.576172 L 187.595703 182.576172 L 187.595703 175.193359 L 182.074219 182.576172 Z M 328.585938 180.804688 L 334.771484 180.804688 C 334.449493 178.45871 333.184692 177.654297 331.804688 177.654297 C 330.010681 177.654297 328.884949 178.826706 328.585938 180.804688 Z M 354.896484 180.804688 L 361.083984 180.804688 C 360.761963 178.45871 359.497192 177.654297 358.117188 177.654297 C 356.323181 177.654297 355.195496 178.826706 354.896484 180.804688 Z M 390.109375 180.804688 L 396.296875 180.804688 C 395.974884 178.45871 394.710083 177.654297 393.330078 177.654297 C 391.536102 177.654297 390.408386 178.826706 390.109375 180.804688 Z M 256.388672 174.042969 L 256.388672 171.720703 L 258.871094 171.720703 L 258.871094 174.042969 L 256.388672 174.042969 Z M 229.84375 141.648438 C 221.500824 141.648438 216.599609 135.005066 216.599609 126.662109 C 216.599609 118.278648 221.460327 111.597656 229.84375 111.597656 C 236.121246 111.597656 240.211807 115.404144 241.507813 120.912109 L 237.052734 121.195313 C 236.161728 117.833809 233.73175 115.566406 229.84375 115.566406 C 223.687744 115.566406 221.054688 120.668144 221.054688 126.662109 C 221.054688 132.61557 223.728241 137.679688 229.84375 137.679688 C 233.893753 137.679688 236.444839 135.127426 237.173828 131.482422 L 241.708984 131.724609 C 240.615479 137.556564 236.566742 141.648438 229.84375 141.648438 Z M 258.962891 141.648438 C 250.822495 141.648438 245.71875 135.85556 245.71875 126.662109 C 245.71875 117.38765 250.822495 111.597656 258.962891 111.597656 C 267.14389 111.597656 272.246094 117.38765 272.246094 126.662109 C 272.246094 135.85556 267.14389 141.648438 258.962891 141.648438 Z M 367.746094 141.648438 C 359.48407 141.648438 354.582031 135.005035 354.582031 126.662109 C 354.582031 118.278687 359.442657 111.597656 367.826172 111.597656 C 374.063171 111.597656 378.194214 115.403152 379.490234 120.830078 L 375.035156 121.115234 C 374.144165 117.794235 371.673676 115.566406 367.826172 115.566406 C 361.670166 115.566406 359.037109 120.668182 359.037109 126.662109 C 359.037109 132.61554 361.710663 137.679688 367.826172 137.679688 C 372.443176 137.679688 375.035889 134.398392 375.400391 130.105469 L 367.785156 130.105469 L 367.785156 126.298828 L 379.611328 126.298828 L 379.611328 141 L 376.695313 141 L 376.371094 136.464844 C 375.075073 139.542801 371.593567 141.648438 367.746094 141.648438 Z M 434.529297 141.648438 C 426.388794 141.648438 421.287109 135.855515 421.287109 126.662109 C 421.287109 117.387695 426.388794 111.597656 434.529297 111.597656 C 442.710297 111.597656 447.814453 117.387695 447.814453 126.662109 C 447.814453 135.855515 442.710297 141.648438 434.529297 141.648438 Z M 465.269531 141.648438 C 457.129028 141.648438 452.025391 135.855499 452.025391 126.662109 C 452.025391 117.387703 457.129028 111.597656 465.269531 111.597656 C 473.450531 111.597656 478.552734 117.387703 478.552734 126.662109 C 478.552734 135.855499 473.450531 141.648438 465.269531 141.648438 Z M 131.103516 141.486328 C 124.583023 141.486328 119.884949 137.637604 119.439453 131.724609 L 123.855469 131.482422 C 124.543968 135.086914 127.095161 137.517578 131.347656 137.517578 C 134.749649 137.517578 137.017578 136.220383 137.017578 133.587891 C 137.017578 130.87439 134.708755 129.295486 129.322266 127.958984 C 124.219269 126.703484 120.007813 124.313744 120.007813 119.65625 C 120.007813 114.715256 124.056168 111.597656 129.847656 111.597656 C 136.084656 111.597656 140.256302 115.485115 140.904297 120.912109 L 136.490234 121.154297 C 136.004242 117.752296 133.453079 115.525391 129.767578 115.525391 C 126.689575 115.525391 124.422394 117.145767 124.462891 119.697266 C 124.503395 122.896767 128.390457 123.787247 131.751953 124.71875 C 137.259949 126.136246 141.472656 128.808685 141.472656 133.263672 C 141.472656 138.650162 136.571014 141.486328 131.103516 141.486328 Z M 406.341797 141.486328 C 399.821289 141.486328 395.12323 137.637527 394.677734 131.724609 L 399.091797 131.482422 C 399.780304 135.086914 402.333435 137.517578 406.585938 137.517578 C 409.987946 137.517578 412.255859 136.220352 412.255859 133.587891 C 412.255859 130.87439 409.947052 129.295486 404.560547 127.958984 C 399.45755 126.703484 395.244141 124.313667 395.244141 119.65625 C 395.244141 114.715332 399.294464 111.597656 405.085938 111.597656 C 411.322937 111.597656 415.494568 115.485191 416.142578 120.912109 L 411.728516 121.154297 C 411.242523 117.752296 408.691376 115.525391 405.005859 115.525391 C 401.927856 115.525391 399.658691 117.145767 399.699219 119.697266 C 399.739716 122.896767 403.628754 123.787247 406.990234 124.71875 C 412.49823 126.136246 416.710938 128.808746 416.710938 133.263672 C 416.710938 138.650131 411.809296 141.486328 406.341797 141.486328 Z M 146.697266 141 L 146.697266 112.244141 L 150.990234 112.244141 L 150.990234 141 L 146.697266 141 Z M 164.759766 141 L 164.759766 116.214844 L 155.970703 116.214844 L 155.970703 112.244141 L 177.880859 112.244141 L 177.880859 116.214844 L 169.052734 116.214844 L 169.052734 141 L 164.759766 141 Z M 182.863281 141 L 182.863281 112.244141 L 201.492188 112.244141 L 201.492188 116.214844 L 187.15625 116.214844 L 187.15625 124.638672 L 201.007813 124.638672 L 201.007813 128.525391 L 187.15625 128.525391 L 187.15625 137.03125 L 201.816406 137.03125 L 201.816406 141 L 182.863281 141 Z M 277.632813 141 L 277.632813 112.244141 L 283.505859 112.244141 L 292.091797 136.017578 L 300.677734 112.244141 L 306.550781 112.244141 L 306.550781 141 L 302.257813 141 L 302.257813 120.222656 L 294.5625 141 L 289.621094 141 L 281.925781 120.222656 L 281.925781 141 L 277.632813 141 Z M 314.001953 141 L 314.001953 112.244141 L 318.294922 112.244141 L 318.294922 141 L 314.001953 141 Z M 325.746094 141 L 325.746094 112.244141 L 331.214844 112.244141 L 344.457031 135.451172 L 344.457031 112.244141 L 348.751953 112.244141 L 348.751953 141 L 343.041016 141 L 330.039063 118.320313 L 330.039063 141 L 325.746094 141 Z M 483.939453 141 L 483.939453 112.244141 L 489.408203 112.244141 L 502.650391 135.451172 L 502.650391 112.244141 L 506.943359 112.244141 L 506.943359 141 L 501.234375 141 L 488.232422 118.320313 L 488.232422 141 L 483.939453 141 Z M 258.962891 137.679688 C 264.673401 137.679688 267.791016 133.709061 267.791016 126.662109 C 267.791016 119.574654 264.673401 115.566406 258.962891 115.566406 C 253.292892 115.566406 250.173828 119.574654 250.173828 126.662109 C 250.173828 133.709061 253.292892 137.679688 258.962891 137.679688 Z M 434.529297 137.679688 C 440.239807 137.679688 443.359375 133.709015 443.359375 126.662109 C 443.359375 119.574699 440.239807 115.566406 434.529297 115.566406 C 428.859283 115.566406 425.742188 119.574699 425.742188 126.662109 C 425.742188 133.709015 428.859283 137.679688 434.529297 137.679688 Z M 465.269531 137.679688 C 470.980042 137.679688 474.097656 133.709015 474.097656 126.662109 C 474.097656 119.574707 470.980042 115.566406 465.269531 115.566406 C 459.599518 115.566406 456.480469 119.574707 456.480469 126.662109 C 456.480469 133.709015 459.599518 137.679688 465.269531 137.679688 Z M 69.503502 112.245003 L 77.1175 141 L 82.139503 141 L 87.526001 120.466499 L 92.912498 141 L 97.934502 141 L 105.5485 112.245003 L 100.890999 112.245003 L 95.383003 135.087006 L 89.712997 112.245003 L 85.2985 112.245003 L 79.668999 135.087006 L 74.080002 112.245003 Z M 46.540001 112.245003 L 46.540001 141 L 65.494003 141 L 65.494003 137.031006 L 50.833 137.031006 L 50.833 128.526001 L 64.683998 128.526001 L 64.683998 124.638 L 50.833 124.638 L 50.833 116.213997 L 65.169998 116.213997 L 65.169998 112.245003 Z M 16.650999 112.245003 L 16.650999 141 L 20.944 141 L 20.944 118.32 L 33.9445 141 L 39.654999 141 L 39.654999 112.245003 L 35.362 112.245003 L 35.362 135.451508 L 22.1185 112.245003 Z"/>
</svg>
