<?xml version="1.0" encoding="UTF-8"?>
<!-- Generated by Pixelmator Pro 3.6.6 -->
<svg width="524" height="163" viewBox="0 0 524 163" xmlns="http://www.w3.org/2000/svg">
    <g id="Group">
        <path id="NEW-SITE-COMING-SOON" fill="#ffffff" fill-rule="evenodd" stroke="none" opacity="0.453379" d="M 482.645508 137 L 482.645508 109.717285 L 488.175293 109.717285 L 497.605225 124.750244 C 498.093506 125.531494 498.624512 126.44397 499.198242 127.487671 C 499.771973 128.531372 500.35791 129.736816 500.956055 131.104004 C 500.858398 129.785645 500.785156 128.485596 500.736328 127.203857 C 500.6875 125.922119 500.663086 124.866211 500.663086 124.036133 L 500.663086 109.717285 L 505.625244 109.717285 L 505.625244 137 L 500.077148 137 L 491.562744 123.468506 C 491.08667 122.71167 490.638062 121.960938 490.216919 121.216309 C 489.795776 120.47168 489.353271 119.659912 488.889404 118.781006 C 488.425537 117.9021 487.888428 116.870605 487.278076 115.686523 C 487.363525 117.371109 487.442871 118.896973 487.516113 120.26416 C 487.589355 121.631348 487.625977 122.693359 487.625977 123.450195 L 487.625977 137 Z M 464.381836 137.366211 C 461.989258 137.366211 459.849976 136.810791 457.963989 135.699951 C 456.078003 134.589111 454.585693 132.990005 453.487061 130.902588 C 452.388428 128.81517 451.839111 126.306656 451.839111 123.376953 C 451.839111 120.435043 452.388428 117.917374 453.487061 115.823853 C 454.585693 113.730331 456.078003 112.128174 457.963989 111.017334 C 459.849976 109.906494 461.989258 109.351074 464.381836 109.351074 C 466.762207 109.351074 468.895386 109.906494 470.781372 111.017334 C 472.667358 112.128174 474.156616 113.730331 475.249146 115.823853 C 476.341675 117.917374 476.887939 120.435043 476.887939 123.376953 C 476.887939 126.318863 476.341675 128.830429 475.249146 130.911743 C 474.156616 132.993057 472.667358 134.589111 470.781372 135.699951 C 468.895386 136.810791 466.762207 137.366211 464.381836 137.366211 Z M 464.381836 132.98999 C 466.603516 132.98999 468.422363 132.166031 469.838379 130.518066 C 471.254395 128.870102 471.962402 126.489761 471.962402 123.376953 C 471.962402 120.251938 471.254395 117.862442 469.838379 116.208374 C 468.422363 114.554306 466.603516 113.727295 464.381836 113.727295 C 462.147949 113.727295 460.316895 114.554306 458.888672 116.208374 C 457.460449 117.862442 456.746338 120.251938 456.746338 123.376953 C 456.746338 126.477554 457.460449 128.854843 458.888672 130.508911 C 460.316895 132.162979 462.147949 132.98999 464.381836 132.98999 Z M 434.436035 137.366211 C 432.043457 137.366211 429.904175 136.810791 428.018188 135.699951 C 426.132202 134.589111 424.639893 132.990005 423.54126 130.902588 C 422.442627 128.81517 421.893311 126.306656 421.893311 123.376953 C 421.893311 120.435043 422.442627 117.917374 423.54126 115.823853 C 424.639893 113.730331 426.132202 112.128174 428.018188 111.017334 C 429.904175 109.906494 432.043457 109.351074 434.436035 109.351074 C 436.816406 109.351074 438.949585 109.906494 440.835571 111.017334 C 442.721558 112.128174 444.210815 113.730331 445.303345 115.823853 C 446.395874 117.917374 446.942139 120.435043 446.942139 123.376953 C 446.942139 126.318863 446.395874 128.830429 445.303345 130.911743 C 444.210815 132.993057 442.721558 134.589111 440.835571 135.699951 C 438.949585 136.810791 436.816406 137.366211 434.436035 137.366211 Z M 434.436035 132.98999 C 436.657715 132.98999 438.476563 132.166031 439.892578 130.518066 C 441.308594 128.870102 442.016602 126.489761 442.016602 123.376953 C 442.016602 120.251938 441.308594 117.862442 439.892578 116.208374 C 438.476563 114.554306 436.657715 113.727295 434.436035 113.727295 C 432.202148 113.727295 430.371094 114.554306 428.942871 116.208374 C 427.514648 117.862442 426.800537 120.251938 426.800537 123.376953 C 426.800537 126.477554 427.514648 128.854843 428.942871 130.508911 C 430.371094 132.162979 432.202148 132.98999 434.436035 132.98999 Z M 406.815674 137.421143 C 403.641815 137.421143 401.111938 136.688721 399.225952 135.223877 C 397.339966 133.759033 396.342041 131.67775 396.232178 128.97998 L 401.047852 128.97998 C 401.157715 130.42041 401.755859 131.491577 402.842285 132.193481 C 403.928711 132.895386 405.240967 133.246338 406.779053 133.246338 C 408.390381 133.246338 409.705688 132.883179 410.724976 132.15686 C 411.744263 131.430542 412.253906 130.481445 412.253906 129.30957 C 412.253906 128.247559 411.802246 127.444946 410.898926 126.901733 C 409.995605 126.358521 408.80542 125.897705 407.328369 125.519287 L 404.233887 124.713623 C 401.951172 124.127686 400.171997 123.242676 398.896362 122.058594 C 397.620728 120.874512 396.98291 119.31813 396.98291 117.389404 C 396.98291 115.778061 397.41626 114.371216 398.282959 113.168823 C 399.149658 111.966431 400.33374 111.029541 401.835205 110.358154 C 403.33667 109.686768 405.039551 109.351074 406.943848 109.351074 C 408.884766 109.351074 410.584595 109.686768 412.043335 110.358154 C 413.502075 111.029541 414.646484 111.957275 415.476563 113.141357 C 416.306641 114.325439 416.73999 115.674316 416.776611 117.187988 L 412.03418 117.187988 C 411.912109 116.02832 411.390259 115.125 410.468628 114.478027 C 409.546997 113.831055 408.347656 113.507568 406.870605 113.507568 C 405.33252 113.507568 404.124023 113.846313 403.245117 114.523804 C 402.366211 115.201294 401.926758 116.058838 401.926758 117.096436 C 401.926758 117.865479 402.161743 118.491089 402.631714 118.973267 C 403.101685 119.455444 403.693726 119.843018 404.407837 120.135986 C 405.121948 120.428955 405.845215 120.666992 406.577637 120.850098 L 409.122803 121.509277 C 410.465576 121.838867 411.750366 122.31189 412.977173 122.928345 C 414.203979 123.5448 415.204956 124.371826 415.980103 125.409424 C 416.755249 126.447021 417.142822 127.759262 417.142822 129.346191 C 417.142822 130.945328 416.733887 132.352173 415.916016 133.566772 C 415.098145 134.781372 413.920166 135.727417 412.38208 136.404907 C 410.843994 137.082397 408.988525 137.421143 406.815674 137.421143 Z M 369.226318 137.366211 C 366.71167 137.366211 364.508301 136.801636 362.616211 135.672485 C 360.724121 134.543335 359.24707 132.932022 358.185059 130.838501 C 357.123047 128.74498 356.592041 126.263931 356.592041 123.395264 C 356.592041 120.465561 357.138306 117.953995 358.230835 115.860474 C 359.323364 113.766953 360.80957 112.158691 362.689453 111.035645 C 364.569336 109.912598 366.699463 109.351074 369.079834 109.351074 C 371.081787 109.351074 372.897583 109.735596 374.527222 110.504639 C 376.15686 111.273682 377.499634 112.341797 378.555542 113.708984 C 379.61145 115.076172 380.279785 116.650864 380.560547 118.433105 L 375.561768 118.433105 C 375.122314 116.980469 374.356323 115.833008 373.263794 114.990723 C 372.171265 114.148438 370.794922 113.727295 369.134766 113.727295 C 367.669922 113.727295 366.360718 114.099609 365.207153 114.844238 C 364.053589 115.588867 363.147217 116.678345 362.488037 118.112671 C 361.828857 119.546997 361.499268 121.295639 361.499268 123.358643 C 361.499268 126.447037 362.216431 128.824326 363.650757 130.490601 C 365.085083 132.156876 366.949707 132.98999 369.244629 132.98999 C 371.29541 132.98999 372.931152 132.413208 374.151855 131.259644 C 375.372559 130.106079 376.007324 128.546646 376.056152 126.581299 L 369.757324 126.581299 L 369.757324 122.736084 L 380.798584 122.736084 L 380.798584 126.013672 C 380.798584 128.34523 380.301147 130.362411 379.306274 132.065308 C 378.311401 133.768204 376.944214 135.077393 375.204712 135.99292 C 373.46521 136.908447 371.472412 137.366211 369.226318 137.366211 Z M 327.854736 137 L 327.854736 109.717285 L 333.384521 109.717285 L 342.814453 124.750244 C 343.302734 125.531494 343.83374 126.44397 344.407471 127.487671 C 344.981201 128.531372 345.567139 129.736816 346.165283 131.104004 C 346.067627 129.785645 345.994385 128.485596 345.945557 127.203857 C 345.896729 125.922119 345.872314 124.866211 345.872314 124.036133 L 345.872314 109.717285 L 350.834473 109.717285 L 350.834473 137 L 345.286377 137 L 336.771973 123.468506 C 336.295898 122.71167 335.84729 121.960938 335.426147 121.216309 C 335.005005 120.47168 334.5625 119.659912 334.098633 118.781006 C 333.634766 117.9021 333.097656 116.870605 332.487305 115.686523 C 332.572754 117.371109 332.6521 118.896973 332.725342 120.26416 C 332.798584 121.631348 332.835205 122.693359 332.835205 123.450195 L 332.835205 137 Z M 321.236572 109.717285 L 321.236572 137 L 316.347656 137 L 316.347656 109.717285 Z M 280.634033 137 L 280.634033 109.717285 L 287.994873 109.717285 L 293.176758 123.798096 C 293.359863 124.335205 293.570435 125.034058 293.808472 125.894653 C 294.046509 126.755249 294.287598 127.67688 294.531738 128.659546 C 294.775879 129.642212 295.001709 130.585205 295.209229 131.488525 C 295.416748 130.597412 295.642578 129.660522 295.886719 128.677856 C 296.130859 127.69519 296.371948 126.77356 296.609985 125.912964 C 296.848022 125.052368 297.05249 124.347412 297.223389 123.798096 L 302.350342 109.717285 L 309.729492 109.717285 L 309.729492 137 L 304.858887 137 L 304.858887 123.230469 C 304.858887 122.546875 304.868042 121.701538 304.886353 120.694458 C 304.904663 119.687378 304.929077 118.616211 304.959595 117.480957 C 304.990112 116.345703 305.011475 115.234863 305.023682 114.148438 C 304.718506 115.320313 304.39502 116.486084 304.053223 117.645752 C 303.711426 118.80542 303.387939 119.873535 303.082764 120.850098 C 302.777588 121.82666 302.515137 122.620117 302.29541 123.230469 L 297.26001 137 L 293.103516 137 L 287.994873 123.230469 C 287.775146 122.644531 287.515747 121.875488 287.216675 120.92334 C 286.917603 119.971191 286.60022 118.921387 286.264526 117.773926 C 285.928833 116.626465 285.590088 115.466797 285.248291 114.294922 C 285.272705 115.320313 285.300171 116.391479 285.330688 117.508423 C 285.361206 118.625366 285.38562 119.684326 285.403931 120.685303 C 285.422241 121.686279 285.431396 122.534668 285.431396 123.230469 L 285.431396 137 Z M 262.370361 137.366211 C 259.977783 137.366211 257.838501 136.810791 255.952515 135.699951 C 254.066513 134.589111 252.574219 132.990005 251.475586 130.902588 C 250.376953 128.81517 249.827637 126.306656 249.827637 123.376953 C 249.827637 120.435043 250.376953 117.917374 251.475586 115.823853 C 252.574219 113.730331 254.066513 112.128174 255.952515 111.017334 C 257.838501 109.906494 259.977783 109.351074 262.370361 109.351074 C 264.750732 109.351074 266.883911 109.906494 268.769897 111.017334 C 270.655884 112.128174 272.145142 113.730331 273.237671 115.823853 C 274.3302 117.917374 274.876465 120.435043 274.876465 123.376953 C 274.876465 126.318863 274.3302 128.830429 273.237671 130.911743 C 272.145142 132.993057 270.655884 134.589111 268.769897 135.699951 C 266.883911 136.810791 264.750732 137.366211 262.370361 137.366211 Z M 262.370361 132.98999 C 264.592041 132.98999 266.410889 132.166031 267.826904 130.518066 C 269.24292 128.870102 269.950928 126.489761 269.950928 123.376953 C 269.950928 120.251938 269.24292 117.862442 267.826904 116.208374 C 266.410889 114.554306 264.592041 113.727295 262.370361 113.727295 C 260.136475 113.727295 258.30542 114.554306 256.877197 116.208374 C 255.448975 117.862442 254.734863 120.251938 254.734863 123.376953 C 254.734863 126.477554 255.448975 128.854843 256.877197 130.508911 C 258.30542 132.162979 260.136475 132.98999 262.370361 132.98999 Z M 233.559814 137.366211 C 231.167221 137.366211 229.031021 136.810791 227.151123 135.699951 C 225.271225 134.589111 223.788086 132.990005 222.70166 130.902588 C 221.615234 128.81517 221.072021 126.306656 221.072021 123.376953 C 221.072021 120.435043 221.618286 117.917374 222.710815 115.823853 C 223.803345 113.730331 225.289536 112.128174 227.169434 111.017334 C 229.049332 109.906494 231.179428 109.351074 233.559814 109.351074 C 235.549576 109.351074 237.359238 109.723389 238.988892 110.468018 C 240.618546 111.212646 241.964355 112.289917 243.026367 113.699829 C 244.088379 115.109741 244.765869 116.809555 245.058838 118.799316 L 240.133301 118.799316 C 239.828125 117.187973 239.077393 115.939819 237.881104 115.05481 C 236.684814 114.1698 235.268814 113.727295 233.633057 113.727295 C 231.399155 113.727295 229.565063 114.56041 228.130737 116.226685 C 226.696411 117.89296 225.979248 120.276352 225.979248 123.376953 C 225.979248 126.514175 226.699463 128.90062 228.139893 130.536377 C 229.580322 132.172134 231.405258 132.98999 233.614746 132.98999 C 235.250504 132.98999 236.669556 132.547485 237.871948 131.662476 C 239.074341 130.777466 239.828125 129.529312 240.133301 127.917969 L 245.077148 127.917969 C 244.820801 129.663589 244.192139 131.250488 243.191162 132.678711 C 242.190186 134.106934 240.871841 135.245239 239.236084 136.093628 C 237.600327 136.942017 235.708267 137.366211 233.559814 137.366211 Z M 187.529297 137 L 187.529297 109.717285 L 205.253906 109.717285 L 205.253906 113.837158 L 192.418213 113.837158 L 192.418213 121.197998 L 204.301758 121.197998 L 204.301758 125.262939 L 192.418213 125.262939 L 192.418213 132.880127 L 205.327148 132.880127 L 205.327148 137 Z M 160.421631 113.837158 L 160.421631 109.717285 L 182.137939 109.717285 L 182.137939 113.837158 L 173.733398 113.837158 L 173.733398 137 L 168.844482 137 L 168.844482 113.837158 Z M 155.030273 109.717285 L 155.030273 137 L 150.141357 137 L 150.141357 109.717285 Z M 134.203125 137.421143 C 131.029282 137.421143 128.499405 136.688721 126.613403 135.223877 C 124.727409 133.759033 123.729492 131.67775 123.619629 128.97998 L 128.435303 128.97998 C 128.545166 130.42041 129.143311 131.491577 130.229736 132.193481 C 131.316162 132.895386 132.628403 133.246338 134.166504 133.246338 C 135.777847 133.246338 137.09314 132.883179 138.112427 132.15686 C 139.131714 131.430542 139.641357 130.481445 139.641357 129.30957 C 139.641357 128.247559 139.189697 127.444946 138.286377 126.901733 C 137.383057 126.358521 136.192871 125.897705 134.71582 125.519287 L 131.621338 124.713623 C 129.338608 124.127686 127.559456 123.242676 126.283813 122.058594 C 125.008171 120.874512 124.370361 119.31813 124.370361 117.389404 C 124.370361 115.778061 124.803703 114.371216 125.67041 113.168823 C 126.537117 111.966431 127.721184 111.029541 129.222656 110.358154 C 130.724121 109.686768 132.426987 109.351074 134.331299 109.351074 C 136.272232 109.351074 137.972046 109.686768 139.430786 110.358154 C 140.889526 111.029541 142.033936 111.957275 142.864014 113.141357 C 143.694092 114.325439 144.127441 115.674316 144.164063 117.187988 L 139.421631 117.187988 C 139.299561 116.02832 138.77771 115.125 137.856079 114.478027 C 136.934448 113.831055 135.735107 113.507568 134.258057 113.507568 C 132.719955 113.507568 131.511475 113.846313 130.632568 114.523804 C 129.753662 115.201294 129.314209 116.058838 129.314209 117.096436 C 129.314209 117.865479 129.549194 118.491089 130.019165 118.973267 C 130.489136 119.455444 131.081177 119.843018 131.795288 120.135986 C 132.509399 120.428955 133.232666 120.666992 133.965088 120.850098 L 136.510254 121.509277 C 137.853027 121.838867 139.137817 122.31189 140.364624 122.928345 C 141.591431 123.5448 142.592407 124.371826 143.367554 125.409424 C 144.1427 126.447021 144.530273 127.759262 144.530273 129.346191 C 144.530273 130.945328 144.121338 132.352173 143.303467 133.566772 C 142.485596 134.781372 141.307632 135.727417 139.769531 136.404907 C 138.23143 137.082397 136.375992 137.421143 134.203125 137.421143 Z M 80.20752 137 L 72.84668 109.717285 L 78.101807 109.717285 L 81.654053 124.237549 C 81.934814 125.470459 82.197266 126.77356 82.441406 128.146851 C 82.685547 129.520142 82.923584 130.884277 83.155518 132.239258 C 83.399658 130.884277 83.652954 129.520142 83.915405 128.146851 C 84.177856 126.77356 84.46167 125.470459 84.766846 124.237549 L 88.465576 109.717285 L 93.647461 109.717285 L 97.327881 124.237549 C 97.633057 125.458252 97.91687 126.746094 98.179321 128.101074 C 98.441772 129.456055 98.695068 130.804932 98.939209 132.147705 C 99.171143 130.804932 99.412231 129.456055 99.662476 128.101074 C 99.91272 126.746094 100.178223 125.458252 100.458984 124.237549 L 103.99292 109.717285 L 109.266357 109.717285 L 101.887207 137 L 96.28418 137 L 92.310791 121.93042 C 92.06665 120.978271 91.84082 119.965088 91.633301 118.890869 C 91.425781 117.81665 91.224365 116.693604 91.029053 115.521729 C 90.845947 116.656982 90.65979 117.755615 90.470581 118.817627 C 90.281372 119.879639 90.05249 120.917236 89.783936 121.93042 L 85.810547 137 Z M 50.847656 137 L 50.847656 109.717285 L 68.572266 109.717285 L 68.572266 113.837158 L 55.736572 113.837158 L 55.736572 121.197998 L 67.620117 121.197998 L 67.620117 125.262939 L 55.736572 125.262939 L 55.736572 132.880127 L 68.645508 132.880127 L 68.645508 137 Z M 21.249756 137 L 21.249756 109.717285 L 26.779541 109.717285 L 36.209473 124.750244 C 36.697758 125.531494 37.228756 126.44397 37.80249 127.487671 C 38.376225 128.531372 38.962154 129.736816 39.560303 131.104004 C 39.462646 129.785645 39.389404 128.485596 39.340576 127.203857 C 39.291748 125.922119 39.267334 124.866211 39.267334 124.036133 L 39.267334 109.717285 L 44.229492 109.717285 L 44.229492 137 L 38.681396 137 L 30.166992 123.468506 C 29.690916 122.71167 29.242311 121.960938 28.821167 121.216309 C 28.400023 120.47168 27.957521 119.659912 27.493652 118.781006 C 27.029783 117.9021 26.49268 116.870605 25.882324 115.686523 C 25.967773 117.371109 26.047119 118.896973 26.120361 120.26416 C 26.193604 121.631348 26.230225 122.693359 26.230225 123.450195 L 26.230225 137 Z"/>
    </g>
    <path id="Gabe-Romualdo" fill="#ffffff" fill-rule="evenodd" stroke="none" d="M 491.252502 71.828003 C 502.08551 71.828003 509.192505 64.307007 509.192505 52.714996 C 509.192505 41.123001 502.08551 33.602005 491.252502 33.602005 C 480.419495 33.602005 473.3125 41.123001 473.3125 52.714996 C 473.3125 64.307007 480.419495 71.828003 491.252502 71.828003 Z M 482.144501 52.714996 C 482.144501 45.125 485.456512 40.639999 491.252502 40.639999 C 497.048492 40.639999 500.360504 45.125 500.360504 52.714996 C 500.360504 60.304993 497.048492 64.789993 491.252502 64.789993 C 485.456512 64.789993 482.144501 60.304993 482.144501 52.714996 Z M 468.206512 22.009995 L 459.650513 22.009995 L 459.650513 39.328995 C 457.511505 35.602997 453.785492 33.602005 448.679504 33.602005 C 438.329498 33.602005 433.223511 42.296005 433.223511 52.714996 C 433.223511 63.134003 438.329498 71.828003 448.679504 71.828003 C 454.061493 71.828003 457.856506 69.619995 459.926514 65.824997 L 460.133514 71 L 468.206512 71 Z M 441.986511 52.714996 C 441.986511 46.160004 444.67749 40.363998 451.094513 40.363998 C 457.511505 40.363998 460.202515 46.160004 460.202515 52.714996 C 460.202515 58.994003 457.511505 64.789993 451.094513 64.789993 C 444.74649 64.789993 441.986511 58.994003 441.986511 52.714996 Z M 417.146515 22.009995 L 417.146515 62.029999 C 417.146515 67.619003 420.734497 71 426.116486 71 L 431.153503 71 L 431.153503 64.238007 L 428.255493 64.238007 C 426.599487 64.238007 425.702515 63.410004 425.702515 61.684998 L 425.702515 22.009995 Z M 376.298492 45.539001 L 385.061493 46.022003 C 385.958496 42.020004 388.511505 39.949997 392.444489 39.949997 C 397.412506 39.949997 399.758514 42.641006 399.827515 48.229996 L 389.546509 50.300003 C 380.990509 51.955994 375.67749 54.233002 375.67749 61.408997 C 375.67749 67.895004 381.542511 71.828003 388.856506 71.828003 C 395.135498 71.828003 399.206512 68.998993 400.931488 65.410995 C 401.48349 71 407.00351 71.069 409.97049 71.069 L 412.109497 71 L 412.109497 64.651993 L 410.729492 64.651993 C 409.280487 64.651993 408.452515 64.100006 408.452515 62.029999 L 408.452515 49.264999 C 408.452515 39.052994 402.932495 33.602005 392.444489 33.602005 C 383.612488 33.602005 377.747498 38.018005 376.298492 45.539001 Z M 384.509491 61.132996 C 384.509491 56.854996 388.166504 56.371994 392.92749 55.475006 L 399.965515 54.233002 L 399.965515 54.578003 C 399.965515 62.029999 396.170502 65.686996 391.064514 65.686996 C 386.648499 65.686996 384.509491 63.686005 384.509491 61.132996 Z M 370.364502 71 L 370.364502 34.429993 L 361.808502 34.429993 L 361.808502 55.199005 C 361.808502 61.408997 358.841492 64.789993 354.080505 64.789993 C 349.388489 64.789993 347.732513 61.408997 347.732513 55.199005 L 347.732513 34.429993 L 339.176514 34.429993 L 339.176514 57.959 C 339.176514 66.100998 343.592499 71.828003 351.527496 71.828003 C 356.219513 71.828003 360.290497 69.964996 362.291504 65.272995 L 362.429504 71 Z M 279.836487 34.429993 L 279.836487 71 L 288.392487 71 L 288.392487 50.162003 C 288.392487 44.089996 291.014496 40.570999 295.775513 40.570999 C 299.639496 40.570999 301.709503 43.951996 301.709503 50.162003 L 301.709503 71 L 309.5755 71 L 309.5755 50.162003 C 309.5755 43.951996 312.19751 40.570999 316.958496 40.570999 C 320.89151 40.570999 322.892487 43.882996 322.892487 50.162003 L 322.892487 71 L 331.448486 71 L 331.448486 47.470993 C 331.448486 38.501007 326.894501 33.602005 319.511505 33.602005 C 314.198486 33.602005 310.403503 36.154999 308.609497 41.123001 C 307.022491 36.362 303.296509 33.602005 298.12149 33.602005 C 293.291504 33.602005 289.565491 36.016998 287.771515 40.294998 L 287.564514 34.429993 Z M 257.066498 71.828003 C 267.899506 71.828003 275.0065 64.307007 275.0065 52.714996 C 275.0065 41.123001 267.899506 33.602005 257.066498 33.602005 C 246.233505 33.602005 239.126495 41.123001 239.126495 52.714996 C 239.126495 64.307007 246.233505 71.828003 257.066498 71.828003 Z M 247.958496 52.714996 C 247.958496 45.125 251.270493 40.639999 257.066498 40.639999 C 262.862488 40.639999 266.1745 45.125 266.1745 52.714996 C 266.1745 60.304993 262.862488 64.789993 257.066498 64.789993 C 251.270493 64.789993 247.958496 60.304993 247.958496 52.714996 Z M 218.7715 22.009995 L 198.485504 22.009995 L 198.485504 71 L 207.179504 71 L 207.179504 52.369995 L 217.460495 52.369995 C 223.739502 52.369995 226.292496 53.75 226.637497 58.028 L 227.672501 71 L 236.435501 71 L 235.193497 56.785995 C 234.710495 51.542007 232.433502 49.057999 227.3965 48.367996 C 232.226501 47.057007 236.0215 42.779007 236.0215 36.776001 C 236.0215 27.460999 228.914505 22.009995 218.7715 22.009995 Z M 207.179504 44.710999 L 207.179504 29.669006 L 217.874496 29.669006 C 223.739502 29.669006 227.051498 32.360001 227.051498 37.190002 C 227.051498 42.020004 223.739502 44.710999 217.874496 44.710999 Z M 143.906494 52.714996 C 143.906494 64.307007 151.013504 71.828003 161.846497 71.828003 C 169.643494 71.828003 176.198502 67.481003 178.406494 60.442993 L 169.643494 59.822006 C 168.263504 62.996002 165.227493 64.927994 161.846497 64.927994 C 156.533493 64.927994 153.290497 61.270996 152.876495 55.061005 L 178.889496 55.061005 L 178.889496 52.783997 C 178.613495 39.811996 171.092499 33.602005 161.846497 33.602005 C 151.013504 33.602005 143.906494 41.123001 143.906494 52.714996 Z M 152.945496 49.195999 C 153.704498 43.744995 156.878494 40.432999 161.846497 40.432999 C 165.779495 40.432999 169.298492 42.779007 170.057495 49.195999 Z M 105.749496 22.009995 L 105.749496 71 L 113.822502 71 L 114.029503 65.824997 C 116.099503 69.619995 119.894501 71.828003 125.276497 71.828003 C 135.626495 71.828003 140.732498 63.134003 140.732498 52.714996 C 140.732498 42.296005 135.626495 33.602005 125.276497 33.602005 C 120.170502 33.602005 116.444504 35.602997 114.305496 39.328995 L 114.305496 22.009995 Z M 113.753502 52.714996 C 113.753502 46.160004 116.444504 40.363998 122.861504 40.363998 C 129.278503 40.363998 131.969498 46.160004 131.969498 52.714996 C 131.969498 58.994003 129.209503 64.789993 122.861504 64.789993 C 116.444504 64.789993 113.753502 58.994003 113.753502 52.714996 Z M 65.384499 45.539001 L 74.147499 46.022003 C 75.044502 42.020004 77.597504 39.949997 81.530502 39.949997 C 86.498497 39.949997 88.844498 42.641006 88.913498 48.229996 L 78.6325 50.300003 C 70.0765 51.955994 64.763496 54.233002 64.763496 61.408997 C 64.763496 67.895004 70.628502 71.828003 77.942497 71.828003 C 84.221497 71.828003 88.292503 68.998993 90.017502 65.410995 C 90.569504 71 96.0895 71.069 99.056503 71.069 L 101.195503 71 L 101.195503 64.651993 L 99.815498 64.651993 C 98.366501 64.651993 97.538498 64.100006 97.538498 62.029999 L 97.538498 49.264999 C 97.538498 39.052994 92.018501 33.602005 81.530502 33.602005 C 72.698502 33.602005 66.833504 38.018005 65.384499 45.539001 Z M 73.595497 61.132996 C 73.595497 56.854996 77.252502 56.371994 82.013496 55.475006 L 89.051498 54.233002 L 89.051498 54.578003 C 89.051498 62.029999 85.2565 65.686996 80.150497 65.686996 C 75.734497 65.686996 73.595497 63.686005 73.595497 61.132996 Z M 61.244499 71 L 61.244499 45.746002 L 40.544498 45.746002 L 40.544498 52.783997 L 52.550499 52.783997 C 51.8605 59.477005 47.789501 64.445007 40.613499 64.445007 C 30.953501 64.445007 26.606501 56.440994 26.606501 46.574005 C 26.606501 36.638 30.884501 28.565002 40.613499 28.565002 C 46.685501 28.565002 50.6185 32.153 51.998501 37.466003 L 61.037498 36.983002 C 58.760502 27.391998 51.515499 20.906006 40.682499 20.906006 C 26.3305 20.906006 17.636499 32.153 17.636499 46.574005 C 17.636499 60.925995 26.3305 72.103996 40.337502 72.103996 C 46.961498 72.103996 52.7575 68.723007 55.0345 63.617004 L 55.655499 71 Z"/>
</svg>
