<?xml version="1.0" encoding="UTF-8"?>
<!-- Generated by Pixelmator Pro 3.6.6 -->
<svg width="524" height="296" viewBox="0 0 524 296" xmlns="http://www.w3.org/2000/svg">
    <g id="Group">
        <path id="NEW-SITE-COMING-SOON" fill="#ffffff" fill-rule="evenodd" stroke="none" opacity="0.453379" d="M 482.645508 137 L 482.645508 109.717285 L 488.175293 109.717285 L 497.605225 124.750244 C 498.093506 125.531494 498.624512 126.44397 499.198242 127.487671 C 499.771973 128.531372 500.35791 129.736816 500.956055 131.104004 C 500.858398 129.785645 500.785156 128.485596 500.736328 127.203857 C 500.6875 125.922119 500.663086 124.866211 500.663086 124.036133 L 500.663086 109.717285 L 505.625244 109.717285 L 505.625244 137 L 500.077148 137 L 491.562744 123.468506 C 491.08667 122.71167 490.638062 121.960938 490.216919 121.216309 C 489.795776 120.47168 489.353271 119.659912 488.889404 118.781006 C 488.425537 117.9021 487.888428 116.870605 487.278076 115.686523 C 487.363525 117.371109 487.442871 118.896973 487.516113 120.26416 C 487.589355 121.631348 487.625977 122.693359 487.625977 123.450195 L 487.625977 137 Z M 464.381836 137.366211 C 461.989258 137.366211 459.849976 136.810791 457.963989 135.699951 C 456.078003 134.589111 454.585693 132.990005 453.487061 130.902588 C 452.388428 128.81517 451.839111 126.306656 451.839111 123.376953 C 451.839111 120.435043 452.388428 117.917374 453.487061 115.823853 C 454.585693 113.730331 456.078003 112.128174 457.963989 111.017334 C 459.849976 109.906494 461.989258 109.351074 464.381836 109.351074 C 466.762207 109.351074 468.895386 109.906494 470.781372 111.017334 C 472.667358 112.128174 474.156616 113.730331 475.249146 115.823853 C 476.341675 117.917374 476.887939 120.435043 476.887939 123.376953 C 476.887939 126.318863 476.341675 128.830429 475.249146 130.911743 C 474.156616 132.993057 472.667358 134.589111 470.781372 135.699951 C 468.895386 136.810791 466.762207 137.366211 464.381836 137.366211 Z M 464.381836 132.98999 C 466.603516 132.98999 468.422363 132.166031 469.838379 130.518066 C 471.254395 128.870102 471.962402 126.489761 471.962402 123.376953 C 471.962402 120.251938 471.254395 117.862442 469.838379 116.208374 C 468.422363 114.554306 466.603516 113.727295 464.381836 113.727295 C 462.147949 113.727295 460.316895 114.554306 458.888672 116.208374 C 457.460449 117.862442 456.746338 120.251938 456.746338 123.376953 C 456.746338 126.477554 457.460449 128.854843 458.888672 130.508911 C 460.316895 132.162979 462.147949 132.98999 464.381836 132.98999 Z M 434.436035 137.366211 C 432.043457 137.366211 429.904175 136.810791 428.018188 135.699951 C 426.132202 134.589111 424.639893 132.990005 423.54126 130.902588 C 422.442627 128.81517 421.893311 126.306656 421.893311 123.376953 C 421.893311 120.435043 422.442627 117.917374 423.54126 115.823853 C 424.639893 113.730331 426.132202 112.128174 428.018188 111.017334 C 429.904175 109.906494 432.043457 109.351074 434.436035 109.351074 C 436.816406 109.351074 438.949585 109.906494 440.835571 111.017334 C 442.721558 112.128174 444.210815 113.730331 445.303345 115.823853 C 446.395874 117.917374 446.942139 120.435043 446.942139 123.376953 C 446.942139 126.318863 446.395874 128.830429 445.303345 130.911743 C 444.210815 132.993057 442.721558 134.589111 440.835571 135.699951 C 438.949585 136.810791 436.816406 137.366211 434.436035 137.366211 Z M 434.436035 132.98999 C 436.657715 132.98999 438.476563 132.166031 439.892578 130.518066 C 441.308594 128.870102 442.016602 126.489761 442.016602 123.376953 C 442.016602 120.251938 441.308594 117.862442 439.892578 116.208374 C 438.476563 114.554306 436.657715 113.727295 434.436035 113.727295 C 432.202148 113.727295 430.371094 114.554306 428.942871 116.208374 C 427.514648 117.862442 426.800537 120.251938 426.800537 123.376953 C 426.800537 126.477554 427.514648 128.854843 428.942871 130.508911 C 430.371094 132.162979 432.202148 132.98999 434.436035 132.98999 Z M 406.815674 137.421143 C 403.641815 137.421143 401.111938 136.688721 399.225952 135.223877 C 397.339966 133.759033 396.342041 131.67775 396.232178 128.97998 L 401.047852 128.97998 C 401.157715 130.42041 401.755859 131.491577 402.842285 132.193481 C 403.928711 132.895386 405.240967 133.246338 406.779053 133.246338 C 408.390381 133.246338 409.705688 132.883179 410.724976 132.15686 C 411.744263 131.430542 412.253906 130.481445 412.253906 129.30957 C 412.253906 128.247559 411.802246 127.444946 410.898926 126.901733 C 409.995605 126.358521 408.80542 125.897705 407.328369 125.519287 L 404.233887 124.713623 C 401.951172 124.127686 400.171997 123.242676 398.896362 122.058594 C 397.620728 120.874512 396.98291 119.31813 396.98291 117.389404 C 396.98291 115.778061 397.41626 114.371216 398.282959 113.168823 C 399.149658 111.966431 400.33374 111.029541 401.835205 110.358154 C 403.33667 109.686768 405.039551 109.351074 406.943848 109.351074 C 408.884766 109.351074 410.584595 109.686768 412.043335 110.358154 C 413.502075 111.029541 414.646484 111.957275 415.476563 113.141357 C 416.306641 114.325439 416.73999 115.674316 416.776611 117.187988 L 412.03418 117.187988 C 411.912109 116.02832 411.390259 115.125 410.468628 114.478027 C 409.546997 113.831055 408.347656 113.507568 406.870605 113.507568 C 405.33252 113.507568 404.124023 113.846313 403.245117 114.523804 C 402.366211 115.201294 401.926758 116.058838 401.926758 117.096436 C 401.926758 117.865479 402.161743 118.491089 402.631714 118.973267 C 403.101685 119.455444 403.693726 119.843018 404.407837 120.135986 C 405.121948 120.428955 405.845215 120.666992 406.577637 120.850098 L 409.122803 121.509277 C 410.465576 121.838867 411.750366 122.31189 412.977173 122.928345 C 414.203979 123.5448 415.204956 124.371826 415.980103 125.409424 C 416.755249 126.447021 417.142822 127.759262 417.142822 129.346191 C 417.142822 130.945328 416.733887 132.352173 415.916016 133.566772 C 415.098145 134.781372 413.920166 135.727417 412.38208 136.404907 C 410.843994 137.082397 408.988525 137.421143 406.815674 137.421143 Z M 369.226318 137.366211 C 366.71167 137.366211 364.508301 136.801636 362.616211 135.672485 C 360.724121 134.543335 359.24707 132.932022 358.185059 130.838501 C 357.123047 128.74498 356.592041 126.263931 356.592041 123.395264 C 356.592041 120.465561 357.138306 117.953995 358.230835 115.860474 C 359.323364 113.766953 360.80957 112.158691 362.689453 111.035645 C 364.569336 109.912598 366.699463 109.351074 369.079834 109.351074 C 371.081787 109.351074 372.897583 109.735596 374.527222 110.504639 C 376.15686 111.273682 377.499634 112.341797 378.555542 113.708984 C 379.61145 115.076172 380.279785 116.650864 380.560547 118.433105 L 375.561768 118.433105 C 375.122314 116.980469 374.356323 115.833008 373.263794 114.990723 C 372.171265 114.148438 370.794922 113.727295 369.134766 113.727295 C 367.669922 113.727295 366.360718 114.099609 365.207153 114.844238 C 364.053589 115.588867 363.147217 116.678345 362.488037 118.112671 C 361.828857 119.546997 361.499268 121.295639 361.499268 123.358643 C 361.499268 126.447037 362.216431 128.824326 363.650757 130.490601 C 365.085083 132.156876 366.949707 132.98999 369.244629 132.98999 C 371.29541 132.98999 372.931152 132.413208 374.151855 131.259644 C 375.372559 130.106079 376.007324 128.546646 376.056152 126.581299 L 369.757324 126.581299 L 369.757324 122.736084 L 380.798584 122.736084 L 380.798584 126.013672 C 380.798584 128.34523 380.301147 130.362411 379.306274 132.065308 C 378.311401 133.768204 376.944214 135.077393 375.204712 135.99292 C 373.46521 136.908447 371.472412 137.366211 369.226318 137.366211 Z M 327.854736 137 L 327.854736 109.717285 L 333.384521 109.717285 L 342.814453 124.750244 C 343.302734 125.531494 343.83374 126.44397 344.407471 127.487671 C 344.981201 128.531372 345.567139 129.736816 346.165283 131.104004 C 346.067627 129.785645 345.994385 128.485596 345.945557 127.203857 C 345.896729 125.922119 345.872314 124.866211 345.872314 124.036133 L 345.872314 109.717285 L 350.834473 109.717285 L 350.834473 137 L 345.286377 137 L 336.771973 123.468506 C 336.295898 122.71167 335.84729 121.960938 335.426147 121.216309 C 335.005005 120.47168 334.5625 119.659912 334.098633 118.781006 C 333.634766 117.9021 333.097656 116.870605 332.487305 115.686523 C 332.572754 117.371109 332.6521 118.896973 332.725342 120.26416 C 332.798584 121.631348 332.835205 122.693359 332.835205 123.450195 L 332.835205 137 Z M 321.236572 109.717285 L 321.236572 137 L 316.347656 137 L 316.347656 109.717285 Z M 280.634033 137 L 280.634033 109.717285 L 287.994873 109.717285 L 293.176758 123.798096 C 293.359863 124.335205 293.570435 125.034058 293.808472 125.894653 C 294.046509 126.755249 294.287598 127.67688 294.531738 128.659546 C 294.775879 129.642212 295.001709 130.585205 295.209229 131.488525 C 295.416748 130.597412 295.642578 129.660522 295.886719 128.677856 C 296.130859 127.69519 296.371948 126.77356 296.609985 125.912964 C 296.848022 125.052368 297.05249 124.347412 297.223389 123.798096 L 302.350342 109.717285 L 309.729492 109.717285 L 309.729492 137 L 304.858887 137 L 304.858887 123.230469 C 304.858887 122.546875 304.868042 121.701538 304.886353 120.694458 C 304.904663 119.687378 304.929077 118.616211 304.959595 117.480957 C 304.990112 116.345703 305.011475 115.234863 305.023682 114.148438 C 304.718506 115.320313 304.39502 116.486084 304.053223 117.645752 C 303.711426 118.80542 303.387939 119.873535 303.082764 120.850098 C 302.777588 121.82666 302.515137 122.620117 302.29541 123.230469 L 297.26001 137 L 293.103516 137 L 287.994873 123.230469 C 287.775146 122.644531 287.515747 121.875488 287.216675 120.92334 C 286.917603 119.971191 286.60022 118.921387 286.264526 117.773926 C 285.928833 116.626465 285.590088 115.466797 285.248291 114.294922 C 285.272705 115.320313 285.300171 116.391479 285.330688 117.508423 C 285.361206 118.625366 285.38562 119.684326 285.403931 120.685303 C 285.422241 121.686279 285.431396 122.534668 285.431396 123.230469 L 285.431396 137 Z M 262.370361 137.366211 C 259.977783 137.366211 257.838501 136.810791 255.952515 135.699951 C 254.066513 134.589111 252.574219 132.990005 251.475586 130.902588 C 250.376953 128.81517 249.827637 126.306656 249.827637 123.376953 C 249.827637 120.435043 250.376953 117.917374 251.475586 115.823853 C 252.574219 113.730331 254.066513 112.128174 255.952515 111.017334 C 257.838501 109.906494 259.977783 109.351074 262.370361 109.351074 C 264.750732 109.351074 266.883911 109.906494 268.769897 111.017334 C 270.655884 112.128174 272.145142 113.730331 273.237671 115.823853 C 274.3302 117.917374 274.876465 120.435043 274.876465 123.376953 C 274.876465 126.318863 274.3302 128.830429 273.237671 130.911743 C 272.145142 132.993057 270.655884 134.589111 268.769897 135.699951 C 266.883911 136.810791 264.750732 137.366211 262.370361 137.366211 Z M 262.370361 132.98999 C 264.592041 132.98999 266.410889 132.166031 267.826904 130.518066 C 269.24292 128.870102 269.950928 126.489761 269.950928 123.376953 C 269.950928 120.251938 269.24292 117.862442 267.826904 116.208374 C 266.410889 114.554306 264.592041 113.727295 262.370361 113.727295 C 260.136475 113.727295 258.30542 114.554306 256.877197 116.208374 C 255.448975 117.862442 254.734863 120.251938 254.734863 123.376953 C 254.734863 126.477554 255.448975 128.854843 256.877197 130.508911 C 258.30542 132.162979 260.136475 132.98999 262.370361 132.98999 Z M 233.559814 137.366211 C 231.167221 137.366211 229.031021 136.810791 227.151123 135.699951 C 225.271225 134.589111 223.788086 132.990005 222.70166 130.902588 C 221.615234 128.81517 221.072021 126.306656 221.072021 123.376953 C 221.072021 120.435043 221.618286 117.917374 222.710815 115.823853 C 223.803345 113.730331 225.289536 112.128174 227.169434 111.017334 C 229.049332 109.906494 231.179428 109.351074 233.559814 109.351074 C 235.549576 109.351074 237.359238 109.723389 238.988892 110.468018 C 240.618546 111.212646 241.964355 112.289917 243.026367 113.699829 C 244.088379 115.109741 244.765869 116.809555 245.058838 118.799316 L 240.133301 118.799316 C 239.828125 117.187973 239.077393 115.939819 237.881104 115.05481 C 236.684814 114.1698 235.268814 113.727295 233.633057 113.727295 C 231.399155 113.727295 229.565063 114.56041 228.130737 116.226685 C 226.696411 117.89296 225.979248 120.276352 225.979248 123.376953 C 225.979248 126.514175 226.699463 128.90062 228.139893 130.536377 C 229.580322 132.172134 231.405258 132.98999 233.614746 132.98999 C 235.250504 132.98999 236.669556 132.547485 237.871948 131.662476 C 239.074341 130.777466 239.828125 129.529312 240.133301 127.917969 L 245.077148 127.917969 C 244.820801 129.663589 244.192139 131.250488 243.191162 132.678711 C 242.190186 134.106934 240.871841 135.245239 239.236084 136.093628 C 237.600327 136.942017 235.708267 137.366211 233.559814 137.366211 Z M 187.529297 137 L 187.529297 109.717285 L 205.253906 109.717285 L 205.253906 113.837158 L 192.418213 113.837158 L 192.418213 121.197998 L 204.301758 121.197998 L 204.301758 125.262939 L 192.418213 125.262939 L 192.418213 132.880127 L 205.327148 132.880127 L 205.327148 137 Z M 160.421631 113.837158 L 160.421631 109.717285 L 182.137939 109.717285 L 182.137939 113.837158 L 173.733398 113.837158 L 173.733398 137 L 168.844482 137 L 168.844482 113.837158 Z M 155.030273 109.717285 L 155.030273 137 L 150.141357 137 L 150.141357 109.717285 Z M 134.203125 137.421143 C 131.029282 137.421143 128.499405 136.688721 126.613403 135.223877 C 124.727409 133.759033 123.729492 131.67775 123.619629 128.97998 L 128.435303 128.97998 C 128.545166 130.42041 129.143311 131.491577 130.229736 132.193481 C 131.316162 132.895386 132.628403 133.246338 134.166504 133.246338 C 135.777847 133.246338 137.09314 132.883179 138.112427 132.15686 C 139.131714 131.430542 139.641357 130.481445 139.641357 129.30957 C 139.641357 128.247559 139.189697 127.444946 138.286377 126.901733 C 137.383057 126.358521 136.192871 125.897705 134.71582 125.519287 L 131.621338 124.713623 C 129.338608 124.127686 127.559456 123.242676 126.283813 122.058594 C 125.008171 120.874512 124.370361 119.31813 124.370361 117.389404 C 124.370361 115.778061 124.803703 114.371216 125.67041 113.168823 C 126.537117 111.966431 127.721184 111.029541 129.222656 110.358154 C 130.724121 109.686768 132.426987 109.351074 134.331299 109.351074 C 136.272232 109.351074 137.972046 109.686768 139.430786 110.358154 C 140.889526 111.029541 142.033936 111.957275 142.864014 113.141357 C 143.694092 114.325439 144.127441 115.674316 144.164063 117.187988 L 139.421631 117.187988 C 139.299561 116.02832 138.77771 115.125 137.856079 114.478027 C 136.934448 113.831055 135.735107 113.507568 134.258057 113.507568 C 132.719955 113.507568 131.511475 113.846313 130.632568 114.523804 C 129.753662 115.201294 129.314209 116.058838 129.314209 117.096436 C 129.314209 117.865479 129.549194 118.491089 130.019165 118.973267 C 130.489136 119.455444 131.081177 119.843018 131.795288 120.135986 C 132.509399 120.428955 133.232666 120.666992 133.965088 120.850098 L 136.510254 121.509277 C 137.853027 121.838867 139.137817 122.31189 140.364624 122.928345 C 141.591431 123.5448 142.592407 124.371826 143.367554 125.409424 C 144.1427 126.447021 144.530273 127.759262 144.530273 129.346191 C 144.530273 130.945328 144.121338 132.352173 143.303467 133.566772 C 142.485596 134.781372 141.307632 135.727417 139.769531 136.404907 C 138.23143 137.082397 136.375992 137.421143 134.203125 137.421143 Z M 80.20752 137 L 72.84668 109.717285 L 78.101807 109.717285 L 81.654053 124.237549 C 81.934814 125.470459 82.197266 126.77356 82.441406 128.146851 C 82.685547 129.520142 82.923584 130.884277 83.155518 132.239258 C 83.399658 130.884277 83.652954 129.520142 83.915405 128.146851 C 84.177856 126.77356 84.46167 125.470459 84.766846 124.237549 L 88.465576 109.717285 L 93.647461 109.717285 L 97.327881 124.237549 C 97.633057 125.458252 97.91687 126.746094 98.179321 128.101074 C 98.441772 129.456055 98.695068 130.804932 98.939209 132.147705 C 99.171143 130.804932 99.412231 129.456055 99.662476 128.101074 C 99.91272 126.746094 100.178223 125.458252 100.458984 124.237549 L 103.99292 109.717285 L 109.266357 109.717285 L 101.887207 137 L 96.28418 137 L 92.310791 121.93042 C 92.06665 120.978271 91.84082 119.965088 91.633301 118.890869 C 91.425781 117.81665 91.224365 116.693604 91.029053 115.521729 C 90.845947 116.656982 90.65979 117.755615 90.470581 118.817627 C 90.281372 119.879639 90.05249 120.917236 89.783936 121.93042 L 85.810547 137 Z M 50.847656 137 L 50.847656 109.717285 L 68.572266 109.717285 L 68.572266 113.837158 L 55.736572 113.837158 L 55.736572 121.197998 L 67.620117 121.197998 L 67.620117 125.262939 L 55.736572 125.262939 L 55.736572 132.880127 L 68.645508 132.880127 L 68.645508 137 Z M 21.249756 137 L 21.249756 109.717285 L 26.779541 109.717285 L 36.209473 124.750244 C 36.697758 125.531494 37.228756 126.44397 37.80249 127.487671 C 38.376225 128.531372 38.962154 129.736816 39.560303 131.104004 C 39.462646 129.785645 39.389404 128.485596 39.340576 127.203857 C 39.291748 125.922119 39.267334 124.866211 39.267334 124.036133 L 39.267334 109.717285 L 44.229492 109.717285 L 44.229492 137 L 38.681396 137 L 30.166992 123.468506 C 29.690916 122.71167 29.242311 121.960938 28.821167 121.216309 C 28.400023 120.47168 27.957521 119.659912 27.493652 118.781006 C 27.029783 117.9021 26.49268 116.870605 25.882324 115.686523 C 25.967773 117.371109 26.047119 118.896973 26.120361 120.26416 C 26.193604 121.631348 26.230225 122.693359 26.230225 123.450195 L 26.230225 137 Z"/>
        <path id="Rectangle" fill="#ffffff" fill-rule="evenodd" stroke="none" opacity="0.096512" d="M 21 259 C 21 267.836548 28.163445 275 37 275 L 490 275 C 498.836548 275 506 267.836548 506 259 L 506 184 C 506 175.163452 498.836548 168 490 168 L 37 168 C 28.163445 168 21 175.163452 21 184 Z"/>
        <path id="always-feel-free-to-reach-out-gabegaberomualdocom" fill="#ffffff" fill-rule="evenodd" stroke="none" opacity="0.853198" d="M 98.511719 255.443359 C 96.89843 255.443359 95.637375 255.138031 94.730469 254.527344 C 93.823563 253.916656 93.225266 253.173828 92.933594 252.298828 L 94.560547 251.451172 C 94.697266 251.833984 94.91732 252.204422 95.222656 252.564453 C 95.528 252.924484 95.950523 253.220703 96.488281 253.453125 C 97.026047 253.685547 97.714188 253.802734 98.552734 253.802734 C 99.929047 253.802734 101.095703 253.45639 102.052734 252.763672 C 103.009773 252.070953 103.606773 251.022797 103.84375 249.619141 L 104.404297 246.255859 L 104.240234 246.296875 C 103.94857 246.779953 103.574875 247.246094 103.119141 247.697266 C 102.663414 248.148438 102.108727 248.517578 101.457031 248.804688 C 100.805336 249.091797 100.042976 249.236328 99.167969 249.236328 C 97.563797 249.236328 96.279953 248.727219 95.318359 247.710938 C 94.356766 246.694656 93.876953 245.276047 93.876953 243.453125 C 93.876953 242.304688 94.05143 241.165375 94.402344 240.035156 C 94.753258 238.904938 95.257813 237.879562 95.914063 236.958984 C 96.57032 236.038406 97.369141 235.30014 98.3125 234.744141 C 99.255867 234.188141 100.320961 233.910156 101.505859 233.910156 C 102.453781 233.910156 103.214844 234.078766 103.789063 234.416016 C 104.363289 234.75325 104.802086 235.167969 105.107422 235.660156 C 105.412766 236.152344 105.630211 236.630859 105.757813 237.095703 L 105.976563 237.054688 L 106.46875 234.115234 L 108.273438 234.115234 L 105.648438 249.837891 C 105.438805 251.132172 104.99675 252.19075 104.322266 253.015625 C 103.647789 253.8405 102.810555 254.451172 101.8125 254.847656 C 100.814453 255.244141 99.714851 255.443359 98.511719 255.443359 Z M 189.376953 255.443359 C 187.763657 255.443359 186.502609 255.138031 185.595703 254.527344 C 184.688797 253.916656 184.0905 253.173828 183.798828 252.298828 L 185.425781 251.451172 C 185.5625 251.833984 185.782547 252.204422 186.087891 252.564453 C 186.393234 252.924484 186.81575 253.220703 187.353516 253.453125 C 187.891281 253.685547 188.579422 253.802734 189.417969 253.802734 C 190.794281 253.802734 191.960938 253.45639 192.917969 252.763672 C 193.875 252.070953 194.472 251.022797 194.708984 249.619141 L 195.269531 246.255859 L 195.105469 246.296875 C 194.813797 246.779953 194.440109 247.246094 193.984375 247.697266 C 193.528641 248.148438 192.973953 248.517578 192.322266 248.804688 C 191.670563 249.091797 190.908203 249.236328 190.033203 249.236328 C 188.429031 249.236328 187.145187 248.727219 186.183594 247.710938 C 185.222 246.694656 184.742188 245.276047 184.742188 243.453125 C 184.742188 242.304688 184.916656 241.165375 185.267578 240.035156 C 185.618484 238.904938 186.123047 237.879562 186.779297 236.958984 C 187.435547 236.038406 188.234375 235.30014 189.177734 234.744141 C 190.121094 234.188141 191.186188 233.910156 192.371094 233.910156 C 193.319016 233.910156 194.080078 234.078766 194.654297 234.416016 C 195.228516 234.75325 195.667313 235.167969 195.972656 235.660156 C 196.278 236.152344 196.495438 236.630859 196.623047 237.095703 L 196.841797 237.054688 L 197.333984 234.115234 L 199.138672 234.115234 L 196.513672 249.837891 C 196.304031 251.132172 195.861984 252.19075 195.1875 253.015625 C 194.513016 253.8405 193.675781 254.451172 192.677734 254.847656 C 191.679688 255.244141 190.580078 255.443359 189.376953 255.443359 Z M 168.814453 254.800781 C 166.280594 254.800781 164.166031 254.287109 162.470703 253.261719 C 160.775375 252.236328 159.572266 250.782562 158.861328 248.900391 C 158.150391 247.018219 158.004562 244.802002 158.423828 242.25 C 158.843109 239.752686 159.696609 237.566406 160.986328 235.693359 C 162.276047 233.820297 163.902985 232.365234 165.867188 231.326172 C 167.83139 230.287109 170.031235 229.767578 172.464844 229.767578 C 174.251312 229.767578 175.809891 230.077469 177.140625 230.697266 C 178.471359 231.317047 179.555984 232.161453 180.394531 233.232422 C 181.233078 234.303391 181.807297 235.523438 182.117188 236.890625 C 182.427078 238.257813 182.458984 239.688797 182.212891 241.183594 C 182.057938 242.131516 181.835938 243.061188 181.548828 243.972656 C 181.261719 244.884125 180.886719 245.708984 180.421875 246.447266 C 179.957031 247.185547 179.382813 247.773438 178.699219 248.210938 C 178.015625 248.648438 177.199875 248.867188 176.251953 248.867188 C 174.292313 248.867188 173.385422 248.019531 173.53125 246.324219 L 173.435547 246.324219 C 172.998047 247.035156 172.382813 247.642578 171.589844 248.148438 C 170.796875 248.654297 169.87175 248.908203 168.814453 248.908203 C 167.656891 248.908203 166.705734 248.611984 165.962891 248.019531 C 165.220047 247.427078 164.703781 246.62175 164.412109 245.605469 C 164.120438 244.589188 164.079422 243.448578 164.289063 242.181641 C 164.489578 240.951172 164.913406 239.845062 165.560547 238.865234 C 166.207687 237.885406 166.997391 237.110687 167.931641 236.541016 C 168.865891 235.971344 169.871735 235.6875 170.947266 235.6875 C 171.895187 235.6875 172.683594 235.898438 173.3125 236.322266 C 173.941406 236.746094 174.369797 237.236969 174.597656 237.792969 L 174.707031 237.792969 L 175.007813 235.974609 L 176.675781 235.974609 L 175.130859 245.203125 C 175.021484 245.877609 175.054688 246.407547 175.232422 246.794922 C 175.410156 247.182297 175.800781 247.376953 176.402344 247.376953 C 177.46875 247.376953 178.34375 246.852875 179.027344 245.804688 C 179.710938 244.7565 180.221359 243.216064 180.558594 241.183594 C 180.777344 239.871094 180.763672 238.622406 180.517578 237.4375 C 180.271484 236.252594 179.802094 235.196625 179.109375 234.271484 C 178.416656 233.346344 177.505219 232.617188 176.375 232.083984 C 175.244781 231.550781 173.904953 231.285156 172.355469 231.285156 C 170.286453 231.285156 168.3965 231.742188 166.6875 232.658203 C 164.9785 233.574219 163.552094 234.862625 162.408203 236.521484 C 161.264313 238.180344 160.511063 240.117264 160.146484 242.332031 C 159.781906 244.546799 159.886719 246.471344 160.460938 248.107422 C 161.035156 249.7435 162.033203 251.013672 163.455078 251.916016 C 164.876968 252.818359 166.681625 253.269531 168.869141 253.269531 C 169.598312 253.269531 170.332031 253.197922 171.070313 253.056641 C 171.808594 252.915375 172.496735 252.740891 173.134766 252.53125 C 173.772797 252.321609 174.296875 252.116531 174.707031 251.916016 L 174.994141 253.365234 C 174.192047 253.766281 173.230469 254.104813 172.109375 254.382813 C 170.988281 254.660812 169.889984 254.800781 168.814453 254.800781 Z M 115.287109 249.728516 C 114.038406 249.728516 112.996101 249.395844 112.162109 248.730469 C 111.328117 248.065094 110.748047 247.136719 110.419922 245.947266 C 110.091797 244.757813 110.059898 243.371094 110.324219 241.785156 C 110.57943 240.208328 111.071609 238.828781 111.800781 237.648438 C 112.529953 236.468094 113.423172 235.550781 114.480469 234.894531 C 115.537766 234.238281 116.686195 233.910156 117.925781 233.910156 C 118.855476 233.910156 119.599609 234.074219 120.160156 234.402344 C 120.720703 234.730469 121.149086 235.136063 121.445313 235.619141 C 121.741539 236.102219 121.95443 236.580719 122.082031 237.054688 L 122.246094 237.054688 L 122.724609 234.115234 L 124.583984 234.115234 L 122.054688 249.400391 L 120.25 249.400391 L 120.714844 246.542969 L 120.496094 246.542969 C 120.20443 247.026047 119.826172 247.513672 119.361328 248.005859 C 118.896484 248.498047 118.328125 248.908203 117.658203 249.236328 C 116.988281 249.564453 116.19857 249.728516 115.287109 249.728516 Z M 132.951172 249.728516 C 132.012375 249.728516 131.251312 249.564453 130.667969 249.236328 C 130.084641 248.908203 129.636719 248.499359 129.322266 248.011719 C 129.007813 247.524078 128.78125 247.035156 128.644531 246.542969 L 128.453125 246.542969 L 127.974609 249.400391 L 126.169922 249.400391 L 129.546875 229.029297 L 131.40625 229.029297 L 130.066406 237.054688 L 130.230469 237.054688 C 130.513031 236.580719 130.877609 236.102219 131.324219 235.619141 C 131.770844 235.136063 132.320969 234.730469 132.972656 234.402344 C 133.624359 234.074219 134.404953 233.910156 135.316406 233.910156 C 136.938812 233.910156 138.219406 234.458328 139.158203 235.556641 C 140.097015 236.654953 140.566406 238.130203 140.566406 239.980469 C 140.566406 241.147141 140.393234 242.305984 140.046875 243.458984 C 139.700531 244.611984 139.199234 245.663406 138.542969 246.611328 C 137.886719 247.55925 137.089203 248.31575 136.150391 248.880859 C 135.211594 249.445969 134.145187 249.728516 132.951172 249.728516 Z M 206.152344 249.728516 C 204.903641 249.728516 203.863281 249.395844 203.029297 248.730469 C 202.195297 248.065094 201.613281 247.136719 201.285156 245.947266 C 200.957031 244.757813 200.925125 243.371094 201.189453 241.785156 C 201.444656 240.208328 201.936844 238.828781 202.666016 237.648438 C 203.395187 236.468094 204.288406 235.550781 205.345703 234.894531 C 206.403 234.238281 207.551422 233.910156 208.791016 233.910156 C 209.720703 233.910156 210.466797 234.074219 211.027344 234.402344 C 211.587891 234.730469 212.016266 235.136063 212.3125 235.619141 C 212.608719 236.102219 212.819656 236.580719 212.947266 237.054688 L 213.111328 237.054688 L 213.589844 234.115234 L 215.449219 234.115234 L 212.919922 249.400391 L 211.115234 249.400391 L 211.580078 246.542969 L 211.361328 246.542969 C 211.069656 247.026047 210.691406 247.513672 210.226563 248.005859 C 209.761719 248.498047 209.195313 248.908203 208.525391 249.236328 C 207.855469 249.564453 207.063797 249.728516 206.152344 249.728516 Z M 223.818359 249.728516 C 222.879547 249.728516 222.118484 249.564453 221.535156 249.236328 C 220.951813 248.908203 220.501953 248.499359 220.1875 248.011719 C 219.873032 247.524078 219.648438 247.035156 219.511719 246.542969 L 219.320313 246.542969 L 218.841797 249.400391 L 217.037109 249.400391 L 220.414063 229.029297 L 222.273438 229.029297 L 220.933594 237.054688 L 221.097656 237.054688 C 221.380203 236.580719 221.744781 236.102219 222.191406 235.619141 C 222.638016 235.136063 223.186188 234.730469 223.837891 234.402344 C 224.489578 234.074219 225.272125 233.910156 226.183594 233.910156 C 227.805984 233.910156 229.086578 234.458328 230.025391 235.556641 C 230.964188 236.654953 231.433594 238.130203 231.433594 239.980469 C 231.433594 241.147141 231.260406 242.305984 230.914063 243.458984 C 230.567703 244.611984 230.066406 245.663406 229.410156 246.611328 C 228.753891 247.55925 227.956375 248.31575 227.017578 248.880859 C 226.078766 249.445969 225.012375 249.728516 223.818359 249.728516 Z M 263.753906 249.728516 C 262.58725 249.728516 261.578796 249.46875 260.726563 248.949219 C 259.874359 248.429688 259.214844 247.700531 258.75 246.761719 C 258.285156 245.822906 258.052734 244.729172 258.052734 243.480469 C 258.052734 242.286453 258.244141 241.119797 258.626953 239.980469 C 259.009766 238.841141 259.555328 237.815765 260.261719 236.904297 C 260.968109 235.992828 261.817047 235.264984 262.810547 234.722656 C 263.804047 234.180328 264.911469 233.910156 266.132813 233.910156 C 267.308594 233.910156 268.323578 234.169922 269.175781 234.689453 C 270.028015 235.208984 270.685547 235.938141 271.150391 236.876953 C 271.615234 237.815765 271.847656 238.9095 271.847656 240.158203 C 271.847656 241.361328 271.654938 242.532547 271.267578 243.671875 C 270.880219 244.811203 270.330078 245.836578 269.619141 246.748047 C 268.908203 247.659515 268.059265 248.384109 267.070313 248.921875 C 266.08139 249.459641 264.975281 249.728516 263.753906 249.728516 Z M 319.03125 249.728516 C 317.782532 249.728516 316.742188 249.395844 315.908203 248.730469 C 315.074219 248.065094 314.492188 247.136719 314.164063 245.947266 C 313.835938 244.757813 313.804016 243.371094 314.068359 241.785156 C 314.323578 240.208328 314.815735 238.828781 315.544922 237.648438 C 316.274078 236.468094 317.167297 235.550781 318.224609 234.894531 C 319.281891 234.238281 320.430328 233.910156 321.669922 233.910156 C 322.599609 233.910156 323.345703 234.074219 323.90625 234.402344 C 324.466797 234.730469 324.895172 235.136063 325.191406 235.619141 C 325.48764 236.102219 325.698547 236.580719 325.826172 237.054688 L 325.990234 237.054688 L 326.46875 234.115234 L 328.328125 234.115234 L 325.798828 249.400391 L 323.994141 249.400391 L 324.458984 246.542969 L 324.240234 246.542969 C 323.948547 247.026047 323.570313 247.513672 323.105469 248.005859 C 322.640625 248.498047 322.074219 248.908203 321.404297 249.236328 C 320.734375 249.564453 319.942719 249.728516 319.03125 249.728516 Z M 341.441406 249.728516 C 339.819 249.728516 338.542969 249.177094 337.613281 248.074219 C 336.683563 246.971344 336.21875 245.494797 336.21875 243.644531 C 336.21875 242.46875 336.388672 241.303391 336.730469 240.150391 C 337.072266 238.997391 337.573547 237.952484 338.234375 237.013672 C 338.895172 236.07486 339.695953 235.322922 340.634766 234.757813 C 341.573547 234.192703 342.639954 233.910156 343.833984 233.910156 C 344.781891 233.910156 345.547516 234.078766 346.130859 234.416016 C 346.714172 234.75325 347.157532 235.164703 347.462891 235.652344 C 347.768219 236.139984 347.985657 236.621735 348.113281 237.095703 L 348.25 237.095703 L 349.589844 229.029297 L 351.449219 229.029297 L 348.072266 249.400391 L 346.267578 249.400391 L 346.759766 246.542969 L 346.554688 246.542969 C 346.272125 247.044281 345.904297 247.53775 345.453125 248.025391 C 345.001953 248.513031 344.445953 248.91861 343.785156 249.242188 C 343.124329 249.56575 342.34375 249.728516 341.441406 249.728516 Z M 358.216797 249.728516 C 357.05011 249.728516 356.041656 249.46875 355.189453 248.949219 C 354.337219 248.429688 353.677734 247.700531 353.212891 246.761719 C 352.748016 245.822906 352.515625 244.729172 352.515625 243.480469 C 352.515625 242.286453 352.707001 241.119797 353.089844 239.980469 C 353.472656 238.841141 354.018219 237.815765 354.724609 236.904297 C 355.430969 235.992828 356.279938 235.264984 357.273438 234.722656 C 358.266907 234.180328 359.374329 233.910156 360.595703 233.910156 C 361.771484 233.910156 362.786438 234.169922 363.638672 234.689453 C 364.490875 235.208984 365.148407 235.938141 365.613281 236.876953 C 366.078125 237.815765 366.310547 238.9095 366.310547 240.158203 C 366.310547 241.361328 366.117828 242.532547 365.730469 243.671875 C 365.343079 244.811203 364.792969 245.836578 364.082031 246.748047 C 363.371063 247.659515 362.522125 248.384109 361.533203 248.921875 C 360.54425 249.459641 359.438141 249.728516 358.216797 249.728516 Z M 396.705078 249.728516 C 395.538422 249.728516 394.528015 249.46875 393.675781 248.949219 C 392.823578 248.429688 392.166016 247.700531 391.701172 246.761719 C 391.236328 245.822906 391.003906 244.729172 391.003906 243.480469 C 391.003906 242.286453 391.195313 241.119797 391.578125 239.980469 C 391.960938 238.841141 392.504578 237.815765 393.210938 236.904297 C 393.917328 235.992828 394.768219 235.264984 395.761719 234.722656 C 396.755219 234.180328 397.86264 233.910156 399.083984 233.910156 C 400.259796 233.910156 401.272797 234.169922 402.125 234.689453 C 402.977234 235.208984 403.636719 235.938141 404.101563 236.876953 C 404.566406 237.815765 404.798828 238.9095 404.798828 240.158203 C 404.798828 241.361328 404.604187 242.532547 404.216797 243.671875 C 403.829437 244.811203 403.28125 245.836578 402.570313 246.748047 C 401.859375 247.659515 401.008484 248.384109 400.019531 248.921875 C 399.030609 249.459641 397.926453 249.728516 396.705078 249.728516 Z M 148.632813 249.6875 C 146.846344 249.6875 145.429047 249.145187 144.380859 248.060547 C 143.332687 246.975906 142.808594 245.503906 142.808594 243.644531 C 142.808594 242.268219 143.021484 240.984375 143.445313 239.794922 C 143.869141 238.605469 144.457031 237.565109 145.208984 236.671875 C 145.960938 235.778641 146.8405 235.08139 147.847656 234.580078 C 148.854828 234.078766 149.945313 233.828125 151.121094 233.828125 C 152.561203 233.828125 153.695969 234.184891 154.525391 234.900391 C 155.354828 235.615891 155.769531 236.594391 155.769531 237.833984 C 155.769531 239.037109 155.363937 239.975906 154.552734 240.650391 C 153.741531 241.324875 152.514328 241.800125 150.869141 242.078125 C 149.223953 242.356125 147.151703 242.505203 144.654297 242.523438 C 144.617844 242.897141 144.599609 243.270828 144.599609 243.644531 C 144.599609 244.902344 144.940109 245.947266 145.619141 246.78125 C 146.298187 247.615234 147.333984 248.033203 148.728516 248.033203 C 149.722015 248.033203 150.636719 247.806641 151.470703 247.355469 C 152.304688 246.904297 152.957687 246.306 153.431641 245.558594 L 155.113281 246.119141 C 154.502609 247.203781 153.613937 248.069656 152.447266 248.716797 C 151.280594 249.363937 150.009125 249.6875 148.632813 249.6875 Z M 239.5 249.6875 C 237.713531 249.6875 236.296234 249.145187 235.248047 248.060547 C 234.199875 246.975906 233.675781 245.503906 233.675781 243.644531 C 233.675781 242.268219 233.886719 240.984375 234.310547 239.794922 C 234.73439 238.605469 235.322266 237.565109 236.074219 236.671875 C 236.826187 235.778641 237.705734 235.08139 238.712891 234.580078 C 239.720062 234.078766 240.8125 233.828125 241.988281 233.828125 C 243.428406 233.828125 244.563156 234.184891 245.392578 234.900391 C 246.222015 235.615891 246.636719 236.594391 246.636719 237.833984 C 246.636719 239.037109 246.231125 239.975906 245.419922 240.650391 C 244.608719 241.324875 243.379578 241.800125 241.734375 242.078125 C 240.089188 242.356125 238.018906 242.505203 235.521484 242.523438 C 235.485031 242.897141 235.466797 243.270828 235.466797 243.644531 C 235.466797 244.902344 235.805344 245.947266 236.484375 246.78125 C 237.163422 247.615234 238.201172 248.033203 239.595703 248.033203 C 240.589203 248.033203 241.501953 247.806641 242.335938 247.355469 C 243.169937 246.904297 243.824875 246.306 244.298828 245.558594 L 245.980469 246.119141 C 245.369797 247.203781 244.481125 248.069656 243.314453 248.716797 C 242.147781 249.363937 240.876312 249.6875 239.5 249.6875 Z M 381.597656 249.6875 C 379.847656 249.6875 378.46225 249.117844 377.441406 247.978516 C 376.420593 246.839188 375.910156 245.335297 375.910156 243.466797 C 375.910156 242.272781 376.098328 241.107422 376.476563 239.972656 C 376.854828 238.837891 377.397156 237.815765 378.103516 236.904297 C 378.809906 235.992828 379.660828 235.264984 380.654297 234.722656 C 381.647797 234.180328 382.755219 233.910156 383.976563 233.910156 C 385.033875 233.910156 385.9375 234.110672 386.689453 234.511719 C 387.441437 234.912766 388.033875 235.414063 388.466797 236.015625 C 388.89975 236.617188 389.167328 237.227859 389.267578 237.847656 L 387.476563 238.298828 C 387.412781 237.916016 387.25 237.514969 386.990234 237.095703 C 386.730469 236.676422 386.350922 236.320969 385.849609 236.029297 C 385.348328 235.737625 384.714874 235.591797 383.949219 235.591797 C 382.964844 235.591797 382.089874 235.824219 381.324219 236.289063 C 380.558594 236.753906 379.911469 237.373688 379.382813 238.148438 C 378.854187 238.923187 378.44989 239.775391 378.171875 240.705078 C 377.89389 241.634766 377.755859 242.559891 377.755859 243.480469 C 377.755859 244.792969 378.076172 245.877594 378.71875 246.734375 C 379.361359 247.591156 380.335297 248.019531 381.638672 248.019531 C 382.44989 248.019531 383.179047 247.856766 383.826172 247.533203 C 384.473328 247.209625 385.01239 246.822266 385.445313 246.371094 C 385.878265 245.919922 386.186859 245.499344 386.369141 245.107422 L 388.050781 245.763672 C 387.75 246.383469 387.289734 246.995438 386.669922 247.601563 C 386.05014 248.207687 385.308624 248.707672 384.447266 249.099609 C 383.585938 249.491531 382.636749 249.6875 381.597656 249.6875 Z M 302.898438 249.605469 C 301.358063 249.605469 300.174469 249.126953 299.349609 248.169922 C 298.524719 247.212891 298.263672 245.822922 298.564453 244 L 300.191406 234.115234 L 302.050781 234.115234 L 300.4375 243.863281 C 300.236969 245.111984 300.423828 246.097656 300.998047 246.822266 C 301.572266 247.546875 302.451813 247.910156 303.636719 247.910156 C 304.429688 247.910156 305.173828 247.738281 305.871094 247.396484 C 306.568359 247.054688 307.15625 246.565765 307.634766 245.927734 C 308.113281 245.289703 308.426422 244.528656 308.572266 243.644531 L 310.144531 234.115234 L 312.003906 234.115234 L 309.474609 249.400391 L 307.669922 249.400391 L 308.148438 246.570313 C 307.501282 247.645844 306.722015 248.420563 305.810547 248.894531 C 304.899078 249.3685 303.928375 249.605469 302.898438 249.605469 Z M 369.933594 249.564453 C 369.514343 249.564453 369.171234 249.4095 368.902344 249.099609 C 368.633484 248.789703 368.539063 248.411469 368.621094 247.964844 C 368.684906 247.582031 368.871765 247.263016 369.181641 247.007813 C 369.491547 246.752594 369.824219 246.625 370.179688 246.625 C 370.626312 246.625 370.975922 246.779938 371.226563 247.089844 C 371.477234 247.399734 371.569672 247.764313 371.505859 248.183594 C 371.451172 248.557297 371.272156 248.880859 370.966797 249.154297 C 370.661469 249.427734 370.316437 249.564453 369.933594 249.564453 Z M 248.6875 249.400391 L 251.216797 234.115234 L 253.021484 234.115234 L 252.625 236.494141 L 252.761719 236.494141 C 253.199219 235.710281 253.835938 235.082687 254.669922 234.613281 C 255.503922 234.143875 256.398438 233.910156 257.355469 233.910156 C 257.501312 233.910156 257.664063 233.911453 257.841797 233.916016 C 258.019531 233.920563 258.166656 233.928375 258.285156 233.9375 L 257.984375 235.796875 C 257.893219 235.778641 257.747406 235.757156 257.546875 235.734375 C 257.346344 235.711578 257.132172 235.701172 256.904297 235.701172 C 256.120453 235.701172 255.391281 235.869781 254.716797 236.207031 C 254.042313 236.544266 253.480469 237.004547 253.029297 237.587891 C 252.578125 238.171234 252.287766 238.841141 252.160156 239.597656 L 250.546875 249.400391 L 248.6875 249.400391 Z M 273.777344 249.400391 L 276.320313 234.115234 L 278.125 234.115234 L 277.6875 236.835938 C 278.2435 235.805984 278.954407 235.050781 279.820313 234.572266 C 280.686188 234.09375 281.556641 233.855469 282.431641 233.855469 C 283.479828 233.855469 284.304688 234.152985 284.90625 234.75 C 285.507813 235.347015 285.872406 236.129547 286 237.095703 C 286.510406 236.07486 287.236328 235.278656 288.179688 234.708984 C 289.123047 234.139313 290.142578 233.855469 291.236328 233.855469 C 292.630859 233.855469 293.716797 234.311188 294.496094 235.222656 C 295.275391 236.134125 295.520172 237.451157 295.228516 239.173828 L 293.533203 249.400391 L 291.673828 249.400391 L 293.396484 239.078125 C 293.597015 237.847656 293.428375 236.954437 292.890625 236.398438 C 292.352875 235.842438 291.623688 235.564453 290.703125 235.564453 C 289.563782 235.564453 288.580719 235.919922 287.755859 236.630859 C 286.930969 237.341797 286.428375 238.26236 286.246094 239.392578 L 284.578125 249.400391 L 282.732422 249.400391 L 284.46875 238.927734 C 284.651031 237.852203 284.488281 237.022797 283.982422 236.439453 C 283.476563 235.85611 282.764313 235.564453 281.84375 235.564453 C 281.141937 235.564453 280.467438 235.728516 279.820313 236.056641 C 279.173187 236.384766 278.6185 236.850906 278.158203 237.457031 C 277.697906 238.063156 277.395844 238.791016 277.25 239.638672 L 275.636719 249.400391 L 273.777344 249.400391 Z M 329.914063 249.400391 L 333.291016 229.029297 L 335.150391 229.029297 L 331.773438 249.400391 L 329.914063 249.400391 Z M 406.726563 249.400391 L 409.269531 234.115234 L 411.074219 234.115234 L 410.636719 236.835938 C 411.192719 235.805984 411.903656 235.050781 412.769531 234.572266 C 413.635437 234.09375 414.505859 233.855469 415.380859 233.855469 C 416.429047 233.855469 417.253906 234.152985 417.855469 234.75 C 418.457031 235.347015 418.821625 236.129547 418.949219 237.095703 C 419.459656 236.07486 420.1875 235.278656 421.130859 234.708984 C 422.074219 234.139313 423.091797 233.855469 424.185547 233.855469 C 425.580078 233.855469 426.667969 234.311188 427.447266 235.222656 C 428.226563 236.134125 428.469421 237.451157 428.177734 239.173828 L 426.482422 249.400391 L 424.623047 249.400391 L 426.345703 239.078125 C 426.546234 237.847656 426.377625 236.954437 425.839844 236.398438 C 425.302094 235.842438 424.572937 235.564453 423.652344 235.564453 C 422.513031 235.564453 421.531921 235.919922 420.707031 236.630859 C 419.882172 237.341797 419.377625 238.26236 419.195313 239.392578 L 417.527344 249.400391 L 415.681641 249.400391 L 417.417969 238.927734 C 417.600281 237.852203 417.439453 237.022797 416.933594 236.439453 C 416.427734 235.85611 415.713562 235.564453 414.792969 235.564453 C 414.091156 235.564453 413.416687 235.728516 412.769531 236.056641 C 412.122406 236.384766 411.569672 236.850906 411.109375 237.457031 C 410.649078 238.063156 410.345062 238.791016 410.199219 239.638672 L 408.585938 249.400391 L 406.726563 249.400391 Z M 115.833984 248.046875 C 116.818367 248.046875 117.697914 247.778 118.472656 247.240234 C 119.247398 246.702469 119.891273 245.959641 120.40625 245.011719 C 120.921227 244.063797 121.279945 242.983734 121.480469 241.771484 C 121.78125 239.948563 121.623047 238.462891 121.007813 237.314453 C 120.392578 236.166016 119.356781 235.591797 117.898438 235.591797 C 116.886711 235.591797 115.98568 235.865234 115.197266 236.412109 C 114.408852 236.958984 113.760422 237.698563 113.25 238.632813 C 112.739578 239.567062 112.388672 240.613922 112.197266 241.771484 C 112.005859 242.947266 112.011719 244.009109 112.216797 244.957031 C 112.421875 245.904953 112.826172 246.656891 113.427734 247.212891 C 114.029297 247.76889 114.831375 248.046875 115.833984 248.046875 Z M 132.732422 248.046875 C 133.689468 248.046875 134.537109 247.805344 135.275391 247.322266 C 136.013687 246.839188 136.638031 246.201172 137.148438 245.408203 C 137.658859 244.615234 138.046234 243.749359 138.310547 242.810547 C 138.574875 241.871735 138.707031 240.942062 138.707031 240.021484 C 138.707031 238.727203 138.401703 237.665375 137.791016 236.835938 C 137.180344 236.0065 136.259781 235.591797 135.029297 235.591797 C 134.072266 235.591797 133.224625 235.828766 132.486328 236.302734 C 131.748047 236.776703 131.128265 237.405594 130.626953 238.189453 C 130.125656 238.973312 129.747406 239.835938 129.492188 240.779297 C 129.236984 241.722656 129.109375 242.664703 129.109375 243.603516 C 129.109375 244.93425 129.414719 246.0065 130.025391 246.822266 C 130.636078 247.638031 131.538406 248.046875 132.732422 248.046875 Z M 206.699219 248.046875 C 207.683594 248.046875 208.563141 247.778 209.337891 247.240234 C 210.112625 246.702469 210.758453 245.959641 211.273438 245.011719 C 211.788406 244.063797 212.145172 242.983734 212.345703 241.771484 C 212.646484 239.948563 212.490234 238.462891 211.875 237.314453 C 211.259766 236.166016 210.222015 235.591797 208.763672 235.591797 C 207.751938 235.591797 206.852859 235.865234 206.064453 236.412109 C 205.276031 236.958984 204.625656 237.698563 204.115234 238.632813 C 203.604813 239.567062 203.253906 240.613922 203.0625 241.771484 C 202.871094 242.947266 202.878906 244.009109 203.083984 244.957031 C 203.289063 245.904953 203.691406 246.656891 204.292969 247.212891 C 204.894531 247.76889 205.696609 248.046875 206.699219 248.046875 Z M 223.599609 248.046875 C 224.556641 248.046875 225.404282 247.805344 226.142578 247.322266 C 226.880859 246.839188 227.505203 246.201172 228.015625 245.408203 C 228.526031 244.615234 228.913406 243.749359 229.177734 242.810547 C 229.442047 241.871735 229.574219 240.942062 229.574219 240.021484 C 229.574219 238.727203 229.268875 237.665375 228.658203 236.835938 C 228.047516 236.0065 227.126953 235.591797 225.896484 235.591797 C 224.939438 235.591797 224.091797 235.828766 223.353516 236.302734 C 222.615219 236.776703 221.995438 237.405594 221.494141 238.189453 C 220.992828 238.973312 220.614578 239.835938 220.359375 240.779297 C 220.104156 241.722656 219.976563 242.664703 219.976563 243.603516 C 219.976563 244.93425 220.281891 246.0065 220.892578 246.822266 C 221.50325 247.638031 222.405594 248.046875 223.599609 248.046875 Z M 263.794922 248.046875 C 264.761078 248.046875 265.626953 247.814453 266.392578 247.349609 C 267.158203 246.884766 267.808594 246.266281 268.341797 245.496094 C 268.875 244.725906 269.281891 243.881516 269.564453 242.960938 C 269.847015 242.040359 269.988281 241.124359 269.988281 240.212891 C 269.988281 238.882156 269.663422 237.779297 269.011719 236.904297 C 268.360016 236.029297 267.386078 235.591797 266.091797 235.591797 C 265.14389 235.591797 264.290375 235.820953 263.529297 236.28125 C 262.768219 236.741547 262.117828 237.352203 261.580078 238.113281 C 261.042328 238.874359 260.630859 239.720703 260.34375 240.650391 C 260.056641 241.580078 259.912109 242.514313 259.912109 243.453125 C 259.912109 244.77475 260.235687 245.869781 260.882813 246.740234 C 261.529938 247.610687 262.500641 248.046875 263.794922 248.046875 Z M 319.578125 248.046875 C 320.5625 248.046875 321.442047 247.778 322.216797 247.240234 C 322.991547 246.702469 323.63736 245.959641 324.152344 245.011719 C 324.667328 244.063797 325.024078 242.983734 325.224609 241.771484 C 325.525391 239.948563 325.369141 238.462891 324.753906 237.314453 C 324.138672 236.166016 323.100922 235.591797 321.642578 235.591797 C 320.630859 235.591797 319.731781 235.865234 318.943359 236.412109 C 318.154938 236.958984 317.504547 237.698563 316.994141 238.632813 C 316.483704 239.567062 316.132813 240.613922 315.941406 241.771484 C 315.75 242.947266 315.757813 244.009109 315.962891 244.957031 C 316.167969 245.904953 316.570313 246.656891 317.171875 247.212891 C 317.773438 247.76889 318.5755 248.046875 319.578125 248.046875 Z M 341.728516 248.046875 C 342.694641 248.046875 343.546875 247.805344 344.285156 247.322266 C 345.023438 246.839188 345.643219 246.197922 346.144531 245.400391 C 346.645813 244.602859 347.025391 243.731125 347.285156 242.783203 C 347.544922 241.835281 347.675781 240.901047 347.675781 239.980469 C 347.675781 238.658844 347.370422 237.597015 346.759766 236.794922 C 346.149078 235.992828 345.23764 235.591797 344.025391 235.591797 C 343.077454 235.591797 342.234375 235.825516 341.496094 236.294922 C 340.757813 236.764328 340.134766 237.388672 339.628906 238.167969 C 339.123047 238.947266 338.738922 239.807281 338.474609 240.746094 C 338.210266 241.684906 338.078125 242.619141 338.078125 243.548828 C 338.078125 244.870453 338.383453 245.950516 338.994141 246.789063 C 339.604797 247.627609 340.516266 248.046875 341.728516 248.046875 Z M 358.257813 248.046875 C 359.223938 248.046875 360.089813 247.814453 360.855469 247.349609 C 361.621094 246.884766 362.271454 246.266281 362.804688 245.496094 C 363.337891 244.725906 363.744781 243.881516 364.027344 242.960938 C 364.309875 242.040359 364.451172 241.124359 364.451172 240.212891 C 364.451172 238.882156 364.126282 237.779297 363.474609 236.904297 C 362.822906 236.029297 361.848938 235.591797 360.554688 235.591797 C 359.60675 235.591797 358.753235 235.820953 357.992188 236.28125 C 357.23111 236.741547 356.580719 237.352203 356.042969 238.113281 C 355.505188 238.874359 355.09375 239.720703 354.806641 240.650391 C 354.519531 241.580078 354.375 242.514313 354.375 243.453125 C 354.375 244.77475 354.698547 245.869781 355.345703 246.740234 C 355.992828 247.610687 356.963531 248.046875 358.257813 248.046875 Z M 396.746094 248.046875 C 397.71225 248.046875 398.578125 247.814453 399.34375 247.349609 C 400.109375 246.884766 400.757813 246.266281 401.291016 245.496094 C 401.824219 244.725906 402.233093 243.881516 402.515625 242.960938 C 402.798187 242.040359 402.939453 241.124359 402.939453 240.212891 C 402.939453 238.882156 402.61264 237.779297 401.960938 236.904297 C 401.309265 236.029297 400.33725 235.591797 399.042969 235.591797 C 398.095062 235.591797 397.239594 235.820953 396.478516 236.28125 C 395.717468 236.741547 395.069031 237.352203 394.53125 238.113281 C 393.9935 238.874359 393.580078 239.720703 393.292969 240.650391 C 393.005859 241.580078 392.863281 242.514313 392.863281 243.453125 C 392.863281 244.77475 393.186859 245.869781 393.833984 246.740234 C 394.48114 247.610687 395.451813 248.046875 396.746094 248.046875 Z M 99.46875 247.568359 C 100.453133 247.568359 101.309898 247.345062 102.039063 246.898438 C 102.768234 246.451813 103.375648 245.856125 103.863281 245.113281 C 104.350914 244.370438 104.71875 243.548828 104.964844 242.646484 C 105.210945 241.744141 105.333984 240.83725 105.333984 239.925781 C 105.333984 238.6315 105.028648 237.584641 104.417969 236.787109 C 103.807289 235.989578 102.895844 235.591797 101.683594 235.591797 C 100.744789 235.591797 99.907562 235.819656 99.173828 236.275391 C 98.440102 236.731125 97.819016 237.338531 97.308594 238.099609 C 96.79818 238.860687 96.407555 239.699219 96.138672 240.615234 C 95.869797 241.53125 95.736328 242.445953 95.736328 243.357422 C 95.736328 244.633469 96.050781 245.654297 96.679688 246.419922 C 97.308601 247.185547 98.238281 247.568359 99.46875 247.568359 Z M 190.333984 247.568359 C 191.318359 247.568359 192.175125 247.345062 192.904297 246.898438 C 193.633469 246.451813 194.240875 245.856125 194.728516 245.113281 C 195.216141 244.370438 195.583984 243.548828 195.830078 242.646484 C 196.076172 241.744141 196.199219 240.83725 196.199219 239.925781 C 196.199219 238.6315 195.893875 237.584641 195.283203 236.787109 C 194.672516 235.989578 193.761078 235.591797 192.548828 235.591797 C 191.610016 235.591797 190.772781 235.819656 190.039063 236.275391 C 189.305328 236.731125 188.68425 237.338531 188.173828 238.099609 C 187.663406 238.860687 187.272781 239.699219 187.003906 240.615234 C 186.735016 241.53125 186.601563 242.445953 186.601563 243.357422 C 186.601563 244.633469 186.916016 245.654297 187.544922 246.419922 C 188.173828 247.185547 189.1035 247.568359 190.333984 247.568359 Z M 169.019531 247.308594 C 170.3685 247.308594 171.477203 246.845062 172.347656 245.919922 C 173.218109 244.994781 173.791016 243.717453 174.064453 242.085938 C 174.328781 240.463531 174.169281 239.255859 173.585938 238.462891 C 173.002609 237.669922 172.077484 237.273438 170.810547 237.273438 C 170.017578 237.273438 169.276047 237.492188 168.587891 237.929688 C 167.899734 238.367188 167.320969 238.950516 166.851563 239.679688 C 166.382156 240.408859 166.075516 241.215485 165.929688 242.099609 C 165.774734 243.038422 165.783859 243.901031 165.957031 244.689453 C 166.130203 245.477875 166.46875 246.111328 166.974609 246.589844 C 167.480469 247.068359 168.16275 247.308594 169.019531 247.308594 Z M 144.914063 241.074219 C 147.019547 241.065094 148.736328 240.973953 150.0625 240.800781 C 151.388687 240.627594 152.363937 240.308594 152.988281 239.84375 C 153.61264 239.378906 153.923828 238.704437 153.923828 237.820313 C 153.923828 237.082031 153.659515 236.509109 153.130859 236.103516 C 152.602219 235.697906 151.877609 235.496094 150.957031 235.496094 C 149.863281 235.496094 148.909515 235.752594 148.09375 236.267578 C 147.278 236.782562 146.604828 237.464844 146.076172 238.3125 C 145.547531 239.160156 145.160156 240.080719 144.914063 241.074219 Z M 235.78125 241.074219 C 237.886734 241.065094 239.601563 240.973953 240.927734 240.800781 C 242.253922 240.627594 243.229172 240.308594 243.853516 239.84375 C 244.477875 239.378906 244.791016 238.704437 244.791016 237.820313 C 244.791016 237.082031 244.526703 236.509109 243.998047 236.103516 C 243.469406 235.697906 242.744797 235.496094 241.824219 235.496094 C 240.730469 235.496094 239.77475 235.752594 238.958984 236.267578 C 238.143234 236.782562 237.472015 237.464844 236.943359 238.3125 C 236.414719 239.160156 236.027344 240.080719 235.78125 241.074219 Z M 175.054688 218.207031 C 174.489578 218.207031 173.997406 218.134125 173.578125 217.988281 L 174.083984 216.320313 C 174.229828 216.375 174.430344 216.416016 174.685547 216.443359 C 174.940765 216.470703 175.141281 216.484375 175.287109 216.484375 C 175.979828 216.484375 176.559891 216.280609 177.029297 215.875 C 177.498703 215.469391 177.802734 214.852875 177.939453 214.023438 L 180.550781 198.259766 L 177.488281 198.259766 L 177.748047 196.714844 L 180.810547 196.714844 L 181.056641 195.183594 C 181.293625 193.752594 181.855469 192.645187 182.744141 191.861328 C 183.632828 191.077469 184.725266 190.685547 186.019531 190.685547 C 186.338547 190.685547 186.636078 190.711578 186.914063 190.761719 C 187.192062 190.811859 187.46875 190.872406 187.742188 190.945313 L 187.181641 192.53125 C 187.026703 192.494781 186.813812 192.464203 186.544922 192.441406 C 186.276047 192.41861 186.014984 192.408203 185.759766 192.408203 C 185.021484 192.408203 184.401703 192.640625 183.900391 193.105469 C 183.399094 193.570313 183.070969 194.253906 182.916016 195.15625 L 182.65625 196.714844 L 186.279297 196.714844 L 186.019531 198.259766 L 182.410156 198.259766 L 179.798828 214.023438 C 179.580078 215.372406 179.043625 216.406891 178.191406 217.126953 C 177.339188 217.847015 176.294281 218.207031 175.054688 218.207031 Z M 227.419922 218.207031 C 226.854828 218.207031 226.36264 218.134125 225.943359 217.988281 L 226.449219 216.320313 C 226.595062 216.375 226.795578 216.416016 227.050781 216.443359 C 227.306 216.470703 227.506516 216.484375 227.652344 216.484375 C 228.345062 216.484375 228.927094 216.280609 229.396484 215.875 C 229.865891 215.469391 230.167969 214.852875 230.304688 214.023438 L 232.916016 198.259766 L 229.853516 198.259766 L 230.113281 196.714844 L 233.175781 196.714844 L 233.421875 195.183594 C 233.658859 193.752594 234.222656 192.645187 235.111328 191.861328 C 236.000015 191.077469 237.0905 190.685547 238.384766 190.685547 C 238.703781 190.685547 239.003265 190.711578 239.28125 190.761719 C 239.55925 190.811859 239.833984 190.872406 240.107422 190.945313 L 239.546875 192.53125 C 239.391937 192.494781 239.181 192.464203 238.912109 192.441406 C 238.643234 192.41861 238.380219 192.408203 238.125 192.408203 C 237.386719 192.408203 236.766937 192.640625 236.265625 193.105469 C 235.764328 193.570313 235.436203 194.253906 235.28125 195.15625 L 235.021484 196.714844 L 238.644531 196.714844 L 238.384766 198.259766 L 234.775391 198.259766 L 232.164063 214.023438 C 231.945313 215.372406 231.410812 216.406891 230.558594 217.126953 C 229.70639 217.847015 228.659515 218.207031 227.419922 218.207031 Z M 141.447266 217.824219 C 141.091797 217.824219 140.760422 217.792328 140.455078 217.728516 C 140.149734 217.664703 139.911453 217.591797 139.738281 217.509766 L 140.517578 215.896484 L 140.708984 215.951172 C 141.501953 216.20639 142.21875 216.180344 142.861328 215.875 C 143.503906 215.569656 144.108719 214.875656 144.673828 213.791016 L 145.5625 212.123047 L 142.240234 196.714844 L 144.167969 196.714844 L 146.109375 206.326172 C 146.246094 207.009766 146.360016 207.692047 146.451172 208.371094 C 146.542313 209.05014 146.633453 209.721344 146.724609 210.386719 C 147.025391 209.721344 147.335281 209.05014 147.654297 208.371094 C 147.973312 207.692047 148.315094 207.009766 148.679688 206.326172 L 153.806641 196.714844 L 155.912109 196.714844 L 146.177734 214.488281 C 144.956375 216.71225 143.379562 217.824219 141.447266 217.824219 Z M 86.607422 212.328125 C 85.358719 212.328125 84.316406 211.995453 83.482422 211.330078 C 82.64843 210.664703 82.068359 209.736328 81.740234 208.546875 C 81.412109 207.357422 81.380203 205.970703 81.644531 204.384766 C 81.899742 202.807938 82.391922 201.430344 83.121094 200.25 C 83.850266 199.069656 84.743484 198.150391 85.800781 197.494141 C 86.858078 196.837891 88.0065 196.509766 89.246094 196.509766 C 90.175781 196.509766 90.919914 196.673828 91.480469 197.001953 C 92.041016 197.330078 92.469398 197.735672 92.765625 198.21875 C 93.061852 198.701828 93.274734 199.180328 93.402344 199.654297 L 93.566406 199.654297 L 94.044922 196.714844 L 95.904297 196.714844 L 93.375 212 L 91.570313 212 L 92.035156 209.142578 L 91.816406 209.142578 C 91.524734 209.625656 91.146484 210.113281 90.681641 210.605469 C 90.216789 211.097656 89.648438 211.507813 88.978516 211.835938 C 88.308586 212.164063 87.518883 212.328125 86.607422 212.328125 Z M 130.660156 212.328125 C 129.411453 212.328125 128.369141 211.995453 127.535156 211.330078 C 126.701164 210.664703 126.121094 209.736328 125.792969 208.546875 C 125.464844 207.357422 125.432938 205.970703 125.697266 204.384766 C 125.952477 202.807938 126.444656 201.430344 127.173828 200.25 C 127.903 199.069656 128.796219 198.150391 129.853516 197.494141 C 130.910812 196.837891 132.059235 196.509766 133.298828 196.509766 C 134.228516 196.509766 134.972656 196.673828 135.533203 197.001953 C 136.09375 197.330078 136.522125 197.735672 136.818359 198.21875 C 137.114578 198.701828 137.327469 199.180328 137.455078 199.654297 L 137.619141 199.654297 L 138.097656 196.714844 L 139.957031 196.714844 L 137.427734 212 L 135.623047 212 L 136.087891 209.142578 L 135.869141 209.142578 C 135.577469 209.625656 135.199219 210.113281 134.734375 210.605469 C 134.269531 211.097656 133.701172 211.507813 133.03125 211.835938 C 132.361328 212.164063 131.571625 212.328125 130.660156 212.328125 Z M 161.025391 212.328125 C 159.557922 212.328125 158.386719 212.004562 157.511719 211.357422 C 156.636703 210.710281 156.135406 209.794281 156.007813 208.609375 C 155.998688 208.481781 155.989578 208.376953 155.980469 208.294922 L 157.785156 208.007813 C 157.848953 208.928391 158.163406 209.602859 158.728516 210.03125 C 159.29361 210.459641 160.068344 210.673828 161.052734 210.673828 C 161.854813 210.673828 162.579422 210.538422 163.226563 210.269531 C 163.873688 210.000641 164.397781 209.639328 164.798828 209.183594 C 165.19986 208.727859 165.423172 208.217453 165.46875 207.652344 C 165.569 206.576813 164.885422 205.852219 163.417969 205.478516 L 161.025391 204.876953 C 158.573547 204.266266 157.470703 202.949219 157.716797 200.925781 C 157.807938 200.059891 158.1315 199.294281 158.6875 198.628906 C 159.243484 197.963531 159.954422 197.444016 160.820313 197.070313 C 161.686203 196.696609 162.634109 196.509766 163.664063 196.509766 C 165.03125 196.509766 166.088531 196.802734 166.835938 197.390625 C 167.583328 197.978516 168.070953 198.770172 168.298828 199.763672 C 168.335281 199.909515 168.362625 200.046234 168.380859 200.173828 L 166.671875 200.488281 C 166.544266 199.795563 166.252594 199.227219 165.796875 198.785156 C 165.341141 198.343094 164.621094 198.123047 163.636719 198.123047 C 162.552078 198.123047 161.622391 198.401031 160.847656 198.957031 C 160.072906 199.513031 159.649078 200.205719 159.576172 201.035156 C 159.51236 201.600266 159.66275 202.060547 160.027344 202.416016 C 160.391922 202.771484 161.002594 203.058594 161.859375 203.277344 L 164.101563 203.837891 C 166.516937 204.448578 167.60611 205.751953 167.369141 207.748047 C 167.268875 208.641281 166.930328 209.434235 166.351563 210.126953 C 165.772781 210.819672 165.020828 211.358719 164.095703 211.746094 C 163.170563 212.133469 162.146484 212.328125 161.025391 212.328125 Z M 299.419922 212.328125 C 298.253235 212.328125 297.242828 212.068359 296.390625 211.548828 C 295.538391 211.029297 294.880859 210.30014 294.416016 209.361328 C 293.951172 208.422516 293.71875 207.328781 293.71875 206.080078 C 293.71875 204.886063 293.910156 203.719406 294.292969 202.580078 C 294.675781 201.44075 295.219391 200.415375 295.925781 199.503906 C 296.632172 198.592438 297.483063 197.866547 298.476563 197.324219 C 299.470062 196.781891 300.577454 196.509766 301.798828 196.509766 C 302.974609 196.509766 303.98761 196.769531 304.839844 197.289063 C 305.692047 197.808594 306.351563 198.53775 306.816406 199.476563 C 307.28125 200.415375 307.513672 201.509109 307.513672 202.757813 C 307.513672 203.960938 307.319 205.132156 306.931641 206.271484 C 306.54425 207.410812 305.996094 208.436188 305.285156 209.347656 C 304.574219 210.259125 303.723297 210.983719 302.734375 211.521484 C 301.745422 212.05925 300.641266 212.328125 299.419922 212.328125 Z M 346.576172 212.328125 C 345.327484 212.328125 344.285187 211.995453 343.451172 211.330078 C 342.617188 210.664703 342.037109 209.736328 341.708984 208.546875 C 341.380859 207.357422 341.348969 205.970703 341.613281 204.384766 C 341.8685 202.807938 342.360687 201.430344 343.089844 200.25 C 343.819031 199.069656 344.71225 198.150391 345.769531 197.494141 C 346.826843 196.837891 347.975281 196.509766 349.214844 196.509766 C 350.144562 196.509766 350.888672 196.673828 351.449219 197.001953 C 352.009796 197.330078 352.438171 197.735672 352.734375 198.21875 C 353.030609 198.701828 353.2435 199.180328 353.371094 199.654297 L 353.535156 199.654297 L 354.013672 196.714844 L 355.873047 196.714844 L 353.34375 212 L 351.539063 212 L 352.003906 209.142578 L 351.785156 209.142578 C 351.4935 209.625656 351.115265 210.113281 350.650391 210.605469 C 350.185547 211.097656 349.617218 211.507813 348.947266 211.835938 C 348.277344 212.164063 347.48764 212.328125 346.576172 212.328125 Z M 401.839844 212.328125 C 400.673187 212.328125 399.664734 212.068359 398.8125 211.548828 C 397.960297 211.029297 397.300781 210.30014 396.835938 209.361328 C 396.371094 208.422516 396.138672 207.328781 396.138672 206.080078 C 396.138672 204.886063 396.330078 203.719406 396.712891 202.580078 C 397.095703 201.44075 397.641266 200.415375 398.347656 199.503906 C 399.054047 198.592438 399.902985 197.866547 400.896484 197.324219 C 401.889984 196.781891 402.997406 196.509766 404.21875 196.509766 C 405.394531 196.509766 406.409515 196.769531 407.261719 197.289063 C 408.113953 197.808594 408.771484 198.53775 409.236328 199.476563 C 409.701172 200.415375 409.933594 201.509109 409.933594 202.757813 C 409.933594 203.960938 409.740906 205.132156 409.353516 206.271484 C 408.966156 207.410812 408.416016 208.436188 407.705078 209.347656 C 406.994141 210.259125 406.145203 210.983719 405.15625 211.521484 C 404.167328 212.05925 403.061218 212.328125 401.839844 212.328125 Z M 191.884766 212.287109 C 190.098297 212.287109 188.681 211.744797 187.632813 210.660156 C 186.584625 209.575516 186.060547 208.103516 186.060547 206.244141 C 186.060547 204.867828 186.273438 203.583984 186.697266 202.394531 C 187.121094 201.205078 187.708984 200.164719 188.460938 199.271484 C 189.212891 198.37825 190.092438 197.681 191.099609 197.179688 C 192.106781 196.678375 193.197266 196.427734 194.373047 196.427734 C 195.813156 196.427734 196.947922 196.7845 197.777344 197.5 C 198.606781 198.2155 199.021484 199.194 199.021484 200.433594 C 199.021484 201.636719 198.615891 202.575516 197.804688 203.25 C 196.993484 203.924484 195.766281 204.401688 194.121094 204.679688 C 192.475906 204.957687 190.403656 205.104828 187.90625 205.123047 C 187.869797 205.49675 187.851563 205.870438 187.851563 206.244141 C 187.851563 207.501953 188.192062 208.548828 188.871094 209.382813 C 189.55014 210.216797 190.585938 210.632813 191.980469 210.632813 C 192.973969 210.632813 193.888672 210.408203 194.722656 209.957031 C 195.556641 209.505859 196.209641 208.905609 196.683594 208.158203 L 198.365234 208.71875 C 197.754562 209.803391 196.865891 210.669266 195.699219 211.316406 C 194.532547 211.963547 193.261078 212.287109 191.884766 212.287109 Z M 207.210938 212.287109 C 205.424469 212.287109 204.007172 211.744797 202.958984 210.660156 C 201.910797 209.575516 201.386719 208.103516 201.386719 206.244141 C 201.386719 204.867828 201.599609 203.583984 202.023438 202.394531 C 202.447266 201.205078 203.035156 200.164719 203.787109 199.271484 C 204.539063 198.37825 205.41861 197.681 206.425781 197.179688 C 207.432953 196.678375 208.523438 196.427734 209.699219 196.427734 C 211.139328 196.427734 212.274078 196.7845 213.103516 197.5 C 213.932953 198.2155 214.347656 199.194 214.347656 200.433594 C 214.347656 201.636719 213.942062 202.575516 213.130859 203.25 C 212.319656 203.924484 211.092453 204.401688 209.447266 204.679688 C 207.802078 204.957687 205.729828 205.104828 203.232422 205.123047 C 203.195969 205.49675 203.177734 205.870438 203.177734 206.244141 C 203.177734 207.501953 203.518219 208.548828 204.197266 209.382813 C 204.876312 210.216797 205.912109 210.632813 207.306641 210.632813 C 208.30014 210.632813 209.214844 210.408203 210.048828 209.957031 C 210.882813 209.505859 211.535797 208.905609 212.009766 208.158203 L 213.691406 208.71875 C 213.080719 209.803391 212.192062 210.669266 211.025391 211.316406 C 209.858719 211.963547 208.58725 212.287109 207.210938 212.287109 Z M 253.986328 212.287109 C 252.19986 212.287109 250.782562 211.744797 249.734375 210.660156 C 248.686188 209.575516 248.162109 208.103516 248.162109 206.244141 C 248.162109 204.867828 248.373047 203.583984 248.796875 202.394531 C 249.220703 201.205078 249.808594 200.164719 250.560547 199.271484 C 251.3125 198.37825 252.192047 197.681 253.199219 197.179688 C 254.20639 196.678375 255.298828 196.427734 256.474609 196.427734 C 257.914734 196.427734 259.049469 196.7845 259.878906 197.5 C 260.708344 198.2155 261.123047 199.194 261.123047 200.433594 C 261.123047 201.636719 260.717468 202.575516 259.90625 203.25 C 259.095062 203.924484 257.865906 204.401688 256.220703 204.679688 C 254.575516 204.957687 252.505219 205.104828 250.007813 205.123047 C 249.971359 205.49675 249.953125 205.870438 249.953125 206.244141 C 249.953125 207.501953 250.291672 208.548828 250.970703 209.382813 C 251.64975 210.216797 252.6875 210.632813 254.082031 210.632813 C 255.075531 210.632813 255.988281 210.408203 256.822266 209.957031 C 257.65625 209.505859 258.311188 208.905609 258.785156 208.158203 L 260.466797 208.71875 C 259.85611 209.803391 258.967468 210.669266 257.800781 211.316406 C 256.634125 211.963547 255.36264 212.287109 253.986328 212.287109 Z M 269.3125 212.287109 C 267.526031 212.287109 266.108734 211.744797 265.060547 210.660156 C 264.01236 209.575516 263.488281 208.103516 263.488281 206.244141 C 263.488281 204.867828 263.701172 203.583984 264.125 202.394531 C 264.548828 201.205078 265.134766 200.164719 265.886719 199.271484 C 266.638672 198.37825 267.520172 197.681 268.527344 197.179688 C 269.534515 196.678375 270.625 196.427734 271.800781 196.427734 C 273.240906 196.427734 274.375641 196.7845 275.205078 197.5 C 276.034515 198.2155 276.449219 199.194 276.449219 200.433594 C 276.449219 201.636719 276.04361 202.575516 275.232422 203.25 C 274.421234 203.924484 273.192078 204.401688 271.546875 204.679688 C 269.901672 204.957687 267.83139 205.104828 265.333984 205.123047 C 265.297516 205.49675 265.279297 205.870438 265.279297 206.244141 C 265.279297 207.501953 265.617828 208.548828 266.296875 209.382813 C 266.975922 210.216797 268.013672 210.632813 269.408203 210.632813 C 270.401703 210.632813 271.314453 210.408203 272.148438 209.957031 C 272.982422 209.505859 273.63736 208.905609 274.111328 208.158203 L 275.792969 208.71875 C 275.182281 209.803391 274.29364 210.669266 273.126953 211.316406 C 271.960266 211.963547 270.688812 212.287109 269.3125 212.287109 Z M 331.960938 212.287109 C 330.174469 212.287109 328.757141 211.744797 327.708984 210.660156 C 326.660797 209.575516 326.136719 208.103516 326.136719 206.244141 C 326.136719 204.867828 326.347626 203.583984 326.771484 202.394531 C 327.195313 201.205078 327.783173 200.164719 328.535156 199.271484 C 329.287109 198.37825 330.166656 197.681 331.173828 197.179688 C 332.180969 196.678375 333.273407 196.427734 334.449219 196.427734 C 335.889313 196.427734 337.024078 196.7845 337.853516 197.5 C 338.682922 198.2155 339.097656 199.194 339.097656 200.433594 C 339.097656 201.636719 338.692047 202.575516 337.880859 203.25 C 337.069641 203.924484 335.840485 204.401688 334.195313 204.679688 C 332.55011 204.957687 330.479828 205.104828 327.982422 205.123047 C 327.945953 205.49675 327.927734 205.870438 327.927734 206.244141 C 327.927734 207.501953 328.266266 208.548828 328.945313 209.382813 C 329.624329 210.216797 330.662079 210.632813 332.056641 210.632813 C 333.05011 210.632813 333.96286 210.408203 334.796875 209.957031 C 335.630859 209.505859 336.285797 208.905609 336.759766 208.158203 L 338.441406 208.71875 C 337.830719 209.803391 336.942047 210.669266 335.775391 211.316406 C 334.608704 211.963547 333.337219 212.287109 331.960938 212.287109 Z M 363.488281 212.287109 C 361.738281 212.287109 360.352875 211.717453 359.332031 210.578125 C 358.311218 209.438797 357.800781 207.934906 357.800781 206.066406 C 357.800781 204.872391 357.990906 203.708984 358.369141 202.574219 C 358.747406 201.439453 359.289734 200.415375 359.996094 199.503906 C 360.702484 198.592438 361.551453 197.866547 362.544922 197.324219 C 363.538422 196.781891 364.645844 196.509766 365.867188 196.509766 C 366.9245 196.509766 367.830078 196.710281 368.582031 197.111328 C 369.333984 197.512375 369.926453 198.013672 370.359375 198.615234 C 370.792328 199.216797 371.057953 199.827469 371.158203 200.447266 L 369.367188 200.898438 C 369.303406 200.515625 369.142578 200.114594 368.882813 199.695313 C 368.623047 199.276031 368.241547 198.920578 367.740234 198.628906 C 367.238953 198.337234 366.605469 198.191406 365.839844 198.191406 C 364.855469 198.191406 363.980469 198.423828 363.214844 198.888672 C 362.449219 199.353516 361.802094 199.973297 361.273438 200.748047 C 360.744812 201.522797 360.342468 202.375 360.064453 203.304688 C 359.786469 204.234375 359.646484 205.1595 359.646484 206.080078 C 359.646484 207.392578 359.96875 208.477203 360.611328 209.333984 C 361.253906 210.190765 362.225922 210.619141 363.529297 210.619141 C 364.340515 210.619141 365.069672 210.45639 365.716797 210.132813 C 366.363953 209.809235 366.904968 209.423828 367.337891 208.972656 C 367.770844 208.521484 368.077484 208.098969 368.259766 207.707031 L 369.941406 208.363281 C 369.640625 208.983078 369.180359 209.597 368.560547 210.203125 C 367.940765 210.80925 367.201202 211.307281 366.339844 211.699219 C 365.478516 212.091156 364.527374 212.287109 363.488281 212.287109 Z M 417.111328 212.205078 C 415.570953 212.205078 414.389343 211.726563 413.564453 210.769531 C 412.739594 209.8125 412.476563 208.422546 412.777344 206.599609 L 414.404297 196.714844 L 416.263672 196.714844 L 414.650391 206.462891 C 414.44986 207.711594 414.636719 208.697266 415.210938 209.421875 C 415.785156 210.146484 416.664703 210.509766 417.849609 210.509766 C 418.642578 210.509766 419.388672 210.337891 420.085938 209.996094 C 420.783203 209.654297 421.371094 209.165375 421.849609 208.527344 C 422.328125 207.889313 422.639313 207.128265 422.785156 206.244141 L 424.357422 196.714844 L 426.216797 196.714844 L 423.6875 212 L 421.882813 212 L 422.361328 209.169922 C 421.714203 210.245453 420.934906 211.020172 420.023438 211.494141 C 419.111969 211.968109 418.141296 212.205078 417.111328 212.205078 Z M 289.423828 212.164063 C 288.404968 212.154083 287.64502 211.85759 287.142578 211.275391 C 286.568359 210.610016 286.376953 209.689453 286.568359 208.513672 L 288.263672 198.328125 L 285.966797 198.328125 L 286.240234 196.714844 L 288.523438 196.714844 L 289.125 193.078125 L 290.984375 193.078125 L 290.382813 196.714844 L 293.513672 196.714844 L 293.253906 198.328125 L 290.109375 198.328125 L 288.441406 208.390625 C 288.186188 209.931 288.755859 210.628265 290.150391 210.482422 C 290.287109 210.482422 290.447906 210.465485 290.634766 210.433594 C 290.821625 210.401703 291.002594 210.3685 291.175781 210.332031 L 291.285156 211.931641 C 290.865875 212.059235 290.396484 212.132172 289.876953 212.150391 C 289.720856 212.160645 289.569366 212.165497 289.423828 212.164063 Z M 431.425781 212.164063 C 430.406921 212.154083 429.646973 211.85759 429.144531 211.275391 C 428.570313 210.610016 428.378906 209.689453 428.570313 208.513672 L 430.265625 198.328125 L 427.96875 198.328125 L 428.242188 196.714844 L 430.525391 196.714844 L 431.126953 193.078125 L 432.986328 193.078125 L 432.384766 196.714844 L 435.515625 196.714844 L 435.255859 198.328125 L 432.111328 198.328125 L 430.443359 208.390625 C 430.188141 209.931 430.757813 210.628265 432.152344 210.482422 C 432.289063 210.482422 432.44986 210.465485 432.636719 210.433594 C 432.823578 210.401703 433.004547 210.3685 433.177734 210.332031 L 433.287109 211.931641 C 432.867828 212.059235 432.398438 212.132172 431.878906 212.150391 C 431.722809 212.160645 431.57132 212.165497 431.425781 212.164063 Z M 437.333984 212.164063 C 436.914703 212.164063 436.569672 212.009125 436.300781 211.699219 C 436.031891 211.389313 435.939453 211.011078 436.021484 210.564453 C 436.085297 210.181641 436.272125 209.86264 436.582031 209.607422 C 436.891937 209.352203 437.224609 209.224609 437.580078 209.224609 C 438.026703 209.224609 438.374359 209.379547 438.625 209.689453 C 438.875641 209.999359 438.970062 210.363922 438.90625 210.783203 C 438.851563 211.156906 438.670563 211.480469 438.365234 211.753906 C 438.059875 212.027344 437.716797 212.164063 437.333984 212.164063 Z M 97.490234 212 L 100.867188 191.628906 L 102.726563 191.628906 L 99.349609 212 L 97.490234 212 Z M 106.759766 212 L 104.708984 196.714844 L 106.664063 196.714844 L 107.648438 204.945313 C 107.730469 205.674484 107.8125 206.458328 107.894531 207.296875 C 107.976563 208.135422 108.044922 209.060547 108.099609 210.072266 C 108.473312 209.097 108.841148 208.186859 109.201172 207.34375 C 109.561203 206.500641 109.913414 205.701828 110.259766 204.945313 L 114.087891 196.714844 L 116.111328 196.714844 L 117.191406 204.945313 C 117.273438 205.674484 117.355469 206.455078 117.4375 207.289063 C 117.519531 208.123047 117.592445 209.042313 117.65625 210.044922 C 118.020836 209.078766 118.380859 208.177734 118.736328 207.34375 C 119.091797 206.509766 119.442711 205.710938 119.789063 204.945313 L 123.494141 196.714844 L 125.449219 196.714844 L 118.339844 212 L 116.425781 212 L 115.222656 203.455078 C 115.131508 202.744141 115.04818 201.99675 114.970703 201.212891 C 114.893227 200.429031 114.817062 199.617844 114.744141 198.779297 C 114.397789 199.608734 114.054688 200.415359 113.712891 201.199219 C 113.371094 201.983078 113.035156 202.735016 112.707031 203.455078 L 108.6875 212 L 106.759766 212 Z M 216.386719 212 L 219.763672 191.628906 L 221.623047 191.628906 L 218.246094 212 L 216.386719 212 Z M 238.794922 212 L 241.324219 196.714844 L 243.128906 196.714844 L 242.732422 199.09375 L 242.869141 199.09375 C 243.306641 198.309891 243.943359 197.68425 244.777344 197.214844 C 245.611343 196.745438 246.505859 196.509766 247.462891 196.509766 C 247.608734 196.509766 247.771484 196.511078 247.949219 196.515625 C 248.126953 196.520172 248.274094 196.527985 248.392578 196.537109 L 248.091797 198.396484 C 248.000656 198.378265 247.854828 198.358734 247.654297 198.335938 C 247.453781 198.313141 247.239594 198.300781 247.011719 198.300781 C 246.227859 198.300781 245.498703 198.469391 244.824219 198.806641 C 244.149734 199.14389 243.587891 199.604156 243.136719 200.1875 C 242.685547 200.770844 242.395187 201.44075 242.267578 202.197266 L 240.654297 212 L 238.794922 212 Z M 316.769531 212 L 319.298828 196.714844 L 321.103516 196.714844 L 320.707031 199.09375 L 320.84375 199.09375 C 321.28125 198.309891 321.917938 197.68425 322.751953 197.214844 C 323.585938 196.745438 324.480438 196.509766 325.4375 196.509766 C 325.583313 196.509766 325.746094 196.511078 325.923828 196.515625 C 326.101563 196.520172 326.248688 196.527985 326.367188 196.537109 L 326.066406 198.396484 C 325.97525 198.378265 325.829407 198.358734 325.628906 198.335938 C 325.428375 198.313141 325.214172 198.300781 324.986328 198.300781 C 324.202454 198.300781 323.473297 198.469391 322.798828 198.806641 C 322.124329 199.14389 321.5625 199.604156 321.111328 200.1875 C 320.660156 200.770844 320.369781 201.44075 320.242188 202.197266 L 318.628906 212 L 316.769531 212 Z M 372.568359 212 L 375.945313 191.628906 L 377.804688 191.628906 L 376.505859 199.394531 C 377.14389 198.373688 377.900391 197.638672 378.775391 197.1875 C 379.650391 196.736328 380.589203 196.509766 381.591797 196.509766 C 383.150421 196.509766 384.353516 196.991531 385.201172 197.953125 C 386.048828 198.914719 386.322266 200.301422 386.021484 202.115234 L 384.380859 212 L 382.521484 212 L 384.134766 202.251953 C 384.344421 200.994141 384.154297 200.005219 383.566406 199.285156 C 382.978516 198.565094 382.102234 198.205078 380.935547 198.205078 C 379.741547 198.205078 378.67514 198.586578 377.736328 199.347656 C 376.797516 200.108734 376.21875 201.149078 376 202.470703 L 374.427734 212 L 372.568359 212 Z M 87.154297 210.646484 C 88.138672 210.646484 89.018227 210.377609 89.792969 209.839844 C 90.567711 209.302078 91.211586 208.55925 91.726563 207.611328 C 92.241539 206.663406 92.600258 205.583344 92.800781 204.371094 C 93.101563 202.548157 92.943359 201.0625 92.328125 199.914063 C 91.712883 198.765625 90.677086 198.191406 89.21875 198.191406 C 88.207024 198.191406 87.305992 198.464844 86.517578 199.011719 C 85.729164 199.558594 85.080727 200.300125 84.570313 201.234375 C 84.059891 202.168625 83.708984 203.213531 83.517578 204.371094 C 83.326172 205.546875 83.332031 206.608719 83.537109 207.556641 C 83.742188 208.504562 84.146477 209.2565 84.748047 209.8125 C 85.349609 210.3685 86.151688 210.646484 87.154297 210.646484 Z M 131.207031 210.646484 C 132.191406 210.646484 133.070953 210.377609 133.845703 209.839844 C 134.620453 209.302078 135.264313 208.55925 135.779297 207.611328 C 136.294266 206.663406 136.653 205.583344 136.853516 204.371094 C 137.154297 202.548157 136.996094 201.0625 136.380859 199.914063 C 135.765625 198.765625 134.729828 198.191406 133.271484 198.191406 C 132.259766 198.191406 131.358734 198.464844 130.570313 199.011719 C 129.781891 199.558594 129.133469 200.300125 128.623047 201.234375 C 128.112625 202.168625 127.761719 203.213531 127.570313 204.371094 C 127.378906 205.546875 127.384766 206.608719 127.589844 207.556641 C 127.794922 208.504562 128.199219 209.2565 128.800781 209.8125 C 129.402344 210.3685 130.204422 210.646484 131.207031 210.646484 Z M 299.460938 210.646484 C 300.427094 210.646484 301.292969 210.414063 302.058594 209.949219 C 302.824219 209.484375 303.472656 208.867844 304.005859 208.097656 C 304.539063 207.327469 304.947906 206.481125 305.230469 205.560547 C 305.513 204.639969 305.654297 203.723969 305.654297 202.8125 C 305.654297 201.481766 305.327484 200.378906 304.675781 199.503906 C 304.024078 198.628906 303.052094 198.191406 301.757813 198.191406 C 300.809875 198.191406 299.954437 198.422516 299.193359 198.882813 C 298.432281 199.343109 297.783844 199.953766 297.246094 200.714844 C 296.708313 201.475922 296.294922 202.320313 296.007813 203.25 C 295.720703 204.179688 295.578125 205.113922 295.578125 206.052734 C 295.578125 207.374359 295.901672 208.469391 296.548828 209.339844 C 297.195953 210.210297 298.166656 210.646484 299.460938 210.646484 Z M 347.123047 210.646484 C 348.107452 210.646484 348.987 210.377609 349.761719 209.839844 C 350.536469 209.302078 351.180359 208.55925 351.695313 207.611328 C 352.210297 206.663406 352.569031 205.583344 352.769531 204.371094 C 353.070313 202.548157 352.91214 201.0625 352.296875 199.914063 C 351.681641 198.765625 350.645844 198.191406 349.1875 198.191406 C 348.175781 198.191406 347.27475 198.464844 346.486328 199.011719 C 345.697937 199.558594 345.0495 200.300125 344.539063 201.234375 C 344.028656 202.168625 343.677734 203.213531 343.486328 204.371094 C 343.294922 205.546875 343.300781 206.608719 343.505859 207.556641 C 343.710938 208.504562 344.115234 209.2565 344.716797 209.8125 C 345.31839 210.3685 346.120453 210.646484 347.123047 210.646484 Z M 401.880859 210.646484 C 402.847015 210.646484 403.712891 210.414063 404.478516 209.949219 C 405.244141 209.484375 405.894531 208.867844 406.427734 208.097656 C 406.960938 207.327469 407.367828 206.481125 407.650391 205.560547 C 407.932953 204.639969 408.074219 203.723969 408.074219 202.8125 C 408.074219 201.481766 407.749359 200.378906 407.097656 199.503906 C 406.445953 198.628906 405.472015 198.191406 404.177734 198.191406 C 403.229828 198.191406 402.376312 198.422516 401.615234 198.882813 C 400.854156 199.343109 400.203796 199.953766 399.666016 200.714844 C 399.128265 201.475922 398.716797 202.320313 398.429688 203.25 C 398.142578 204.179688 397.998047 205.113922 397.998047 206.052734 C 397.998047 207.374359 398.321625 208.469391 398.96875 209.339844 C 399.615906 210.210297 400.586578 210.646484 401.880859 210.646484 Z M 188.166016 203.673828 C 190.2715 203.664703 191.988281 203.573578 193.314453 203.400391 C 194.64064 203.227203 195.615891 202.908203 196.240234 202.443359 C 196.864594 201.978516 197.175781 201.304047 197.175781 200.419922 C 197.175781 199.681641 196.911469 199.108734 196.382813 198.703125 C 195.854172 198.297516 195.129562 198.095703 194.208984 198.095703 C 193.115234 198.095703 192.161469 198.352203 191.345703 198.867188 C 190.529953 199.382172 189.856781 200.064453 189.328125 200.912109 C 188.799484 201.759766 188.412109 202.680328 188.166016 203.673828 Z M 203.492188 203.673828 C 205.597672 203.664703 207.314453 203.573578 208.640625 203.400391 C 209.966797 203.227203 210.942047 202.908203 211.566406 202.443359 C 212.19075 201.978516 212.501953 201.304047 212.501953 200.419922 C 212.501953 199.681641 212.237625 199.108734 211.708984 198.703125 C 211.180328 198.297516 210.455734 198.095703 209.535156 198.095703 C 208.441406 198.095703 207.48764 198.352203 206.671875 198.867188 C 205.85611 199.382172 205.182938 200.064453 204.654297 200.912109 C 204.125641 201.759766 203.738281 202.680328 203.492188 203.673828 Z M 250.267578 203.673828 C 252.373062 203.664703 254.087891 203.573578 255.414063 203.400391 C 256.740234 203.227203 257.715485 202.908203 258.339844 202.443359 C 258.964203 201.978516 259.277344 201.304047 259.277344 200.419922 C 259.277344 199.681641 259.013031 199.108734 258.484375 198.703125 C 257.955719 198.297516 257.23114 198.095703 256.310547 198.095703 C 255.216797 198.095703 254.261078 198.352203 253.445313 198.867188 C 252.629562 199.382172 251.958344 200.064453 251.429688 200.912109 C 250.901047 201.759766 250.513672 202.680328 250.267578 203.673828 Z M 265.59375 203.673828 C 267.699219 203.664703 269.416016 203.573578 270.742188 203.400391 C 272.068359 203.227203 273.04361 202.908203 273.667969 202.443359 C 274.292328 201.978516 274.603516 201.304047 274.603516 200.419922 C 274.603516 199.681641 274.339203 199.108734 273.810547 198.703125 C 273.281891 198.297516 272.557281 198.095703 271.636719 198.095703 C 270.542969 198.095703 269.589203 198.352203 268.773438 198.867188 C 267.957672 199.382172 267.284515 200.064453 266.755859 200.912109 C 266.227203 201.759766 265.839844 202.680328 265.59375 203.673828 Z M 328.242188 203.673828 C 330.347656 203.664703 332.062469 203.573578 333.388672 203.400391 C 334.714844 203.227203 335.690094 202.908203 336.314453 202.443359 C 336.938782 201.978516 337.251953 201.304047 337.251953 200.419922 C 337.251953 199.681641 336.98761 199.108734 336.458984 198.703125 C 335.930328 198.297516 335.205719 198.095703 334.285156 198.095703 C 333.191376 198.095703 332.235657 198.352203 331.419922 198.867188 C 330.604156 199.382172 329.932922 200.064453 329.404297 200.912109 C 328.875641 201.759766 328.488281 202.680328 328.242188 203.673828 Z M 439.275391 200.392578 C 438.85611 200.392578 438.511078 200.23764 438.242188 199.927734 C 437.973297 199.617828 437.880859 199.239594 437.962891 198.792969 C 438.026703 198.410156 438.213531 198.091156 438.523438 197.835938 C 438.833344 197.580719 439.166016 197.453125 439.521484 197.453125 C 439.968109 197.453125 440.315765 197.608063 440.566406 197.917969 C 440.817047 198.227875 440.911469 198.592438 440.847656 199.011719 C 440.792969 199.385422 440.611969 199.708984 440.306641 199.982422 C 440.001282 200.255859 439.658203 200.392578 439.275391 200.392578 Z"/>
    </g>
    <path id="Gabe-Romualdo" fill="#ffffff" fill-rule="evenodd" stroke="none" d="M 491.252502 71.828003 C 502.08551 71.828003 509.192505 64.307007 509.192505 52.714996 C 509.192505 41.123001 502.08551 33.60202 491.252502 33.60202 C 480.419495 33.60202 473.3125 41.123001 473.3125 52.714996 C 473.3125 64.307007 480.419495 71.828003 491.252502 71.828003 Z M 482.144501 52.714996 C 482.144501 45.125 485.456512 40.639999 491.252502 40.639999 C 497.048492 40.639999 500.360504 45.125 500.360504 52.714996 C 500.360504 60.304993 497.048492 64.789993 491.252502 64.789993 C 485.456512 64.789993 482.144501 60.304993 482.144501 52.714996 Z M 468.206512 22.01001 L 459.650513 22.01001 L 459.650513 39.32901 C 457.511505 35.602997 453.785492 33.60202 448.679504 33.60202 C 438.329498 33.60202 433.223511 42.296005 433.223511 52.714996 C 433.223511 63.134003 438.329498 71.828003 448.679504 71.828003 C 454.061493 71.828003 457.856506 69.619995 459.926514 65.824997 L 460.133514 71 L 468.206512 71 Z M 441.986511 52.714996 C 441.986511 46.160004 444.67749 40.363998 451.094513 40.363998 C 457.511505 40.363998 460.202515 46.160004 460.202515 52.714996 C 460.202515 58.994003 457.511505 64.789993 451.094513 64.789993 C 444.74649 64.789993 441.986511 58.994003 441.986511 52.714996 Z M 417.146515 22.01001 L 417.146515 62.029999 C 417.146515 67.619003 420.734497 71 426.116486 71 L 431.153503 71 L 431.153503 64.238007 L 428.255493 64.238007 C 426.599487 64.238007 425.702515 63.410004 425.702515 61.684998 L 425.702515 22.01001 Z M 376.298492 45.539001 L 385.061493 46.022003 C 385.958496 42.020004 388.511505 39.950012 392.444489 39.950012 C 397.412506 39.950012 399.758514 42.641006 399.827515 48.229996 L 389.546509 50.300003 C 380.990509 51.955994 375.67749 54.233002 375.67749 61.408997 C 375.67749 67.895004 381.542511 71.828003 388.856506 71.828003 C 395.135498 71.828003 399.206512 68.998993 400.931488 65.410995 C 401.48349 71 407.00351 71.069 409.97049 71.069 L 412.109497 71 L 412.109497 64.651993 L 410.729492 64.651993 C 409.280487 64.651993 408.452515 64.100006 408.452515 62.029999 L 408.452515 49.264999 C 408.452515 39.053009 402.932495 33.60202 392.444489 33.60202 C 383.612488 33.60202 377.747498 38.018005 376.298492 45.539001 Z M 384.509491 61.132996 C 384.509491 56.854996 388.166504 56.371994 392.92749 55.475006 L 399.965515 54.233002 L 399.965515 54.578003 C 399.965515 62.029999 396.170502 65.686996 391.064514 65.686996 C 386.648499 65.686996 384.509491 63.686005 384.509491 61.132996 Z M 370.364502 71 L 370.364502 34.429993 L 361.808502 34.429993 L 361.808502 55.199005 C 361.808502 61.408997 358.841492 64.789993 354.080505 64.789993 C 349.388489 64.789993 347.732513 61.408997 347.732513 55.199005 L 347.732513 34.429993 L 339.176514 34.429993 L 339.176514 57.959 C 339.176514 66.100998 343.592499 71.828003 351.527496 71.828003 C 356.219513 71.828003 360.290497 69.964996 362.291504 65.272995 L 362.429504 71 Z M 279.836487 34.429993 L 279.836487 71 L 288.392487 71 L 288.392487 50.162003 C 288.392487 44.089996 291.014496 40.570999 295.775513 40.570999 C 299.639496 40.570999 301.709503 43.951996 301.709503 50.162003 L 301.709503 71 L 309.5755 71 L 309.5755 50.162003 C 309.5755 43.951996 312.19751 40.570999 316.958496 40.570999 C 320.89151 40.570999 322.892487 43.882996 322.892487 50.162003 L 322.892487 71 L 331.448486 71 L 331.448486 47.470993 C 331.448486 38.501007 326.894501 33.60202 319.511505 33.60202 C 314.198486 33.60202 310.403503 36.154999 308.609497 41.123001 C 307.022491 36.362 303.296509 33.60202 298.12149 33.60202 C 293.291504 33.60202 289.565491 36.016998 287.771515 40.294998 L 287.564514 34.429993 Z M 257.066498 71.828003 C 267.899506 71.828003 275.0065 64.307007 275.0065 52.714996 C 275.0065 41.123001 267.899506 33.60202 257.066498 33.60202 C 246.233505 33.60202 239.126495 41.123001 239.126495 52.714996 C 239.126495 64.307007 246.233505 71.828003 257.066498 71.828003 Z M 247.958496 52.714996 C 247.958496 45.125 251.270493 40.639999 257.066498 40.639999 C 262.862488 40.639999 266.1745 45.125 266.1745 52.714996 C 266.1745 60.304993 262.862488 64.789993 257.066498 64.789993 C 251.270493 64.789993 247.958496 60.304993 247.958496 52.714996 Z M 218.7715 22.01001 L 198.485504 22.01001 L 198.485504 71 L 207.179504 71 L 207.179504 52.369995 L 217.460495 52.369995 C 223.739502 52.369995 226.292496 53.75 226.637497 58.028 L 227.672501 71 L 236.435501 71 L 235.193497 56.785995 C 234.710495 51.542007 232.433502 49.057999 227.3965 48.367996 C 232.226501 47.057007 236.0215 42.779007 236.0215 36.776001 C 236.0215 27.460999 228.914505 22.01001 218.7715 22.01001 Z M 207.179504 44.710999 L 207.179504 29.669006 L 217.874496 29.669006 C 223.739502 29.669006 227.051498 32.360016 227.051498 37.190002 C 227.051498 42.020004 223.739502 44.710999 217.874496 44.710999 Z M 143.906494 52.714996 C 143.906494 64.307007 151.013504 71.828003 161.846497 71.828003 C 169.643494 71.828003 176.198502 67.481003 178.406494 60.442993 L 169.643494 59.822006 C 168.263504 62.996002 165.227493 64.927994 161.846497 64.927994 C 156.533493 64.927994 153.290497 61.270996 152.876495 55.061005 L 178.889496 55.061005 L 178.889496 52.783997 C 178.613495 39.812012 171.092499 33.60202 161.846497 33.60202 C 151.013504 33.60202 143.906494 41.123001 143.906494 52.714996 Z M 152.945496 49.195999 C 153.704498 43.744995 156.878494 40.432999 161.846497 40.432999 C 165.779495 40.432999 169.298492 42.779007 170.057495 49.195999 Z M 105.749496 22.01001 L 105.749496 71 L 113.822502 71 L 114.029503 65.824997 C 116.099503 69.619995 119.894501 71.828003 125.276497 71.828003 C 135.626495 71.828003 140.732498 63.134003 140.732498 52.714996 C 140.732498 42.296005 135.626495 33.60202 125.276497 33.60202 C 120.170502 33.60202 116.444504 35.602997 114.305496 39.32901 L 114.305496 22.01001 Z M 113.753502 52.714996 C 113.753502 46.160004 116.444504 40.363998 122.861504 40.363998 C 129.278503 40.363998 131.969498 46.160004 131.969498 52.714996 C 131.969498 58.994003 129.209503 64.789993 122.861504 64.789993 C 116.444504 64.789993 113.753502 58.994003 113.753502 52.714996 Z M 65.384499 45.539001 L 74.147499 46.022003 C 75.044502 42.020004 77.597504 39.950012 81.530502 39.950012 C 86.498497 39.950012 88.844498 42.641006 88.913498 48.229996 L 78.6325 50.300003 C 70.0765 51.955994 64.763496 54.233002 64.763496 61.408997 C 64.763496 67.895004 70.628502 71.828003 77.942497 71.828003 C 84.221497 71.828003 88.292503 68.998993 90.017502 65.410995 C 90.569504 71 96.0895 71.069 99.056503 71.069 L 101.195503 71 L 101.195503 64.651993 L 99.815498 64.651993 C 98.366501 64.651993 97.538498 64.100006 97.538498 62.029999 L 97.538498 49.264999 C 97.538498 39.053009 92.018501 33.60202 81.530502 33.60202 C 72.698502 33.60202 66.833504 38.018005 65.384499 45.539001 Z M 73.595497 61.132996 C 73.595497 56.854996 77.252502 56.371994 82.013496 55.475006 L 89.051498 54.233002 L 89.051498 54.578003 C 89.051498 62.029999 85.2565 65.686996 80.150497 65.686996 C 75.734497 65.686996 73.595497 63.686005 73.595497 61.132996 Z M 61.244499 71 L 61.244499 45.746002 L 40.544498 45.746002 L 40.544498 52.783997 L 52.550499 52.783997 C 51.8605 59.477005 47.789501 64.445007 40.613499 64.445007 C 30.953501 64.445007 26.606501 56.440994 26.606501 46.574005 C 26.606501 36.638 30.884501 28.565002 40.613499 28.565002 C 46.685501 28.565002 50.6185 32.153015 51.998501 37.466003 L 61.037498 36.983002 C 58.760502 27.391998 51.515499 20.906006 40.682499 20.906006 C 26.3305 20.906006 17.636499 32.153015 17.636499 46.574005 C 17.636499 60.925995 26.3305 72.104004 40.337502 72.104004 C 46.961498 72.104004 52.7575 68.723007 55.0345 63.617004 L 55.655499 71 Z"/>
</svg>
